<?xml version="1.0" encoding="UTF-8"?><svg xmlns="http://www.w3.org/2000/svg" viewBox="0 0 896.15 761.97"><defs><style>.cls-1{fill:#624784;}.cls-2{fill:#afb0d0;}.cls-3{fill:#7877a2;}.cls-4{fill:#d4daeb;}.cls-5{fill:#5e3813;}.cls-6{fill:#fff;}.cls-7{fill:#50396e;}.cls-8{fill:#dbdac8;}.cls-9{fill:#387b4d;}.cls-10{fill:#4d3534;}.cls-11{fill:#383547;}.cls-12{fill:#6bac0a;}.cls-13{fill:#99ced8;}.cls-14{fill:#c1bfa7;}.cls-15{fill:#133238;}.cls-16{fill:#afafaa;}.cls-17{fill:#65483e;}.cls-18{fill:#8264b2;}.cls-19{fill:#323d44;}.cls-20{fill:#b1afb6;}.cls-21{fill:#3d4c45;}.cls-22{fill:#626287;}.cls-23{fill:#c6c4ac;}.cls-24{fill:#30d18a;}.cls-25{fill:#c2c3ca;}.cls-26{fill:#a9a7d4;}.cls-27{fill:#dee2d0;}.cls-28{fill:#426761;}.cls-29{fill:#997aa6;}.cls-30{fill:#413d51;}.cls-31{fill:#276954;}.cls-32{fill:#302b3f;}.cls-33{fill:#493341;}.cls-34{fill:#72569c;}.cls-35{fill:#ecedda;}.cls-36{fill:#36261b;}.cls-37{fill:#4d7c73;}.cls-38{fill:#d3d3d1;}.cls-39{fill:#1f5150;}.cls-40{fill:#96405f;}.cls-41{fill:#ffb647;}.cls-42{fill:#006953;}.cls-43{fill:#3a271d;}.cls-44{fill:#ffdc72;}.cls-45{fill:#547a54;}.cls-46{fill:#c8ecec;}.cls-47{fill:#412c2f;}.cls-48{fill:#5d3d29;}.cls-49{fill:#009976;}.cls-50{fill:#9491ba;}.cls-51{fill:#008f3e;}.cls-52{fill:#acb2cd;}.cls-53{fill:#d9ddcb;}.cls-54{fill:#b7484e;}.cls-55{fill:#00504f;}</style></defs><g id="Capa_4"><rect class="cls-32" x="-1.17" y="142.05" width="899.32" height="545.84"/><ellipse class="cls-11" cx="442.78" cy="264.29" rx="474.22" ry="241.4"/><ellipse class="cls-30" cx="446.13" cy="166.35" rx="474.22" ry="241.4"/><ellipse class="cls-28" cx="448.49" cy="741.08" rx="474.22" ry="104.78"/><g><path class="cls-19" d="M299.11,654.04s28.98-33.29,28.98-109.98c0,77.79,25.76,103.33,25.76,103.33l-54.73,6.65Z"/><path class="cls-19" d="M333.48,646.72s28.98-33.29,28.98-109.98c0,77.79,25.76,103.33,25.76,103.33l-54.73,6.65Z"/><path class="cls-19" d="M365.05,640.91s28.98-33.29,28.98-109.98c0,77.79,25.76,103.33,25.76,103.33l-54.73,6.65Z"/><path class="cls-19" d="M652.76,659.29s-28.98-33.29-28.98-109.98c0,77.79-25.76,103.33-25.76,103.33l54.73,6.65Z"/><path class="cls-19" d="M618.4,651.97s-28.98-33.29-28.98-109.98c0,77.79-25.76,103.33-25.76,103.33l54.73,6.65Z"/><path class="cls-19" d="M586.82,646.16s-28.98-33.29-28.98-109.98c0,77.79-25.76,103.33-25.76,103.33l54.73,6.65Z"/><path class="cls-19" d="M397.71,633.97s28.98-33.29,28.98-109.98c0,77.79,25.76,103.33,25.76,103.33l-54.73,6.65Z"/><path class="cls-19" d="M430.99,633.97s28.98-33.29,28.98-109.98c0,77.79,25.76,103.33,25.76,103.33l-54.73,6.65Z"/><path class="cls-19" d="M458.36,644.87s28.98-33.29,28.98-109.98c0,77.79,25.76,103.33,25.76,103.33l-54.73,6.65Z"/><path class="cls-19" d="M491.53,645.26s28.98-33.29,28.98-109.98c0,77.79,25.76,103.33,25.76,103.33l-54.73,6.65Z"/></g><path class="cls-28" d="M94.41,513.93s28.98-22.44,28.98-74.13c0,52.43,25.76,69.65,25.76,69.65l-54.73,4.48Z"/><path class="cls-28" d="M749.81,516.26s28.98-22.44,28.98-74.13c0,52.43,25.76,69.65,25.76,69.65l-54.73,4.48Z"/><rect class="cls-30" width="898.15" height="125.28"/></g><g id="Capa_1"><g><ellipse class="cls-42" cx="456.83" cy="579.49" rx="58.55" ry="18.25"/><ellipse class="cls-51" cx="456.83" cy="600.9" rx="58.55" ry="18.25"/><path class="cls-55" d="M515.11,579.35c0-9.33-22.48-17.01-51.48-18.1v21.4c16.55,.62,30.94,3.41,40.28,7.41,7.02-3.01,11.21-6.7,11.21-10.7Z"/><ellipse class="cls-12" cx="456.83" cy="600.9" rx="37.93" ry="11.82"/><ellipse class="cls-51" cx="456.83" cy="600.9" rx="20.53" ry="6.4"/></g><g><path class="cls-5" d="M500.43,536.68c.07,12.98-2.98,25.41-6.76,37.65-6.16,20.01-12.94,39.85-21.92,58.81-5.86,11.37-22.66,5.07-19.69-7.3,6.81-24.21,16.21-47.62,27.01-70.3,3.97-7.64,8.31-14.96,14.09-21.55,2.42-2.81,7.27-.98,7.26,2.69h0Z"/><ellipse class="cls-14" cx="499.22" cy="569.5" rx="8.5" ry="9.72" transform="translate(-210.36 834.16) rotate(-69.22)"/><ellipse class="cls-53" cx="478.95" cy="554.72" rx="18.23" ry="22.25" transform="translate(-99.15 104.26) rotate(-11.27)"/></g><g><path class="cls-3" d="M508.09,596.42c-7.68,2.84-16.62,4.53-24.68,5.85-8.45,1.39-17.41,.8-25.88-.12-8.37-.9-16.7-1.8-25.07-2.66-7-.72-13.54-2.21-19.53-5.82-15.9,10.34-26.47,28.22-26.47,48.44v16.67c0,31.81,26.12,57.83,58.05,57.83h28.13c31.93,0,58.05-26.02,58.05-57.83v-16.67c0-18.54-8.88-35.1-22.61-45.7Z"/><path class="cls-22" d="M508.09,596.42c-7.68,2.84-16.62,4.53-24.68,5.85-8.45,1.39-17.41,.8-25.88-.12-8.37-.9-16.7-1.8-25.07-2.66-7-.72-13.54-2.21-19.53-5.82-15.9,10.34-26.47,28.22-26.47,48.44v16.67c0,31.81,26.12,57.83,58.05,57.83h11.39c41.13,0,74.79-33.53,74.79-74.51h0c0-18.54-8.88-35.1-22.61-45.7Z"/><path class="cls-3" d="M483.41,602.27c-8.45,1.39-17.41,.8-25.88-.12-8.37-.9-16.7-1.8-25.07-2.66-7.55-.77-14.57-2.45-20.94-6.71-.51-.34-.92-.72-1.24-1.14-14.26,8.78-23.82,24.5-23.82,42.34v14.34c0,27.36,22.47,49.74,49.93,49.74h24.19c27.46,0,49.93-22.38,49.93-49.74v-14.34c0-13.25-5.28-25.31-13.83-34.25-4.46,1.03-9,1.84-13.28,2.54Z"/><path class="cls-50" d="M428.94,639.79h-8.33c-9.45,0-17.19,7.71-17.19,17.12v4.94c0,9.42,7.74,17.12,17.19,17.12h8.33c9.45,0,17.19-7.71,17.19-17.12v-4.94c0-9.42-7.74-17.12-17.19-17.12Z"/><path class="cls-22" d="M414.78,627.76s120.15-15.93,91.72,40.04c16.1-17.35,12.6-24.44,12.6-24.44l-3.99-42.23-101.37,5.13,1.04,21.5Z"/><path class="cls-22" d="M413.9,634.5c5.37-8.16,6.85-17.12,4.56-23.54-.54-.27-1.07-.53-1.61-.67-.94,3.21-2.28,6.55-4.43,9.63-6.71,10.03-17.05,15.38-24.7,13.11-.39-.14-.73-.37-1.11-.53-.02,.5-.15,.97-.15,1.48v12.44c.42,.2,.84,.42,1.26,.52,7.79,3.61,19.2-1.74,26.18-12.44Z"/></g><g><path class="cls-3" d="M543.82,624.5c-.81,1.6-2.01,2.94-3.62,4.01-.94,.67-2.01,1.07-3.09,1.47-.94-3.21-2.28-6.55-4.43-9.63-6.71-10.03-17.05-15.38-24.7-13.11-.13-.53-.27-1.2-.4-1.74,.81-1.6,2.01-2.94,3.62-4.01,7.79-5.08,20.14,.13,27.79,11.63,2.42,3.61,4.03,7.62,4.83,11.37Z"/><path class="cls-50" d="M538.77,643.27c-.54,.27-1.07,.54-1.61,.67-7.79,3.61-19.2-1.74-26.18-12.44-5.37-8.16-6.85-17.12-4.56-23.54,.54-.27,1.07-.53,1.61-.67,.94,3.21,2.28,6.55,4.43,9.63,6.71,10.03,17.05,15.38,24.7,13.11,1.07-.4,2.15-.8,3.09-1.47,1.61-1.07,2.82-2.41,3.62-4.01,1.88,7.89,.13,15.24-5.1,18.72Z"/></g><g><path class="cls-3" d="M374.67,621.22c.81,1.6,2.01,2.94,3.62,4.01,.94,.67,2.01,1.07,3.09,1.47,.94-3.21,2.28-6.55,4.43-9.63,6.71-10.03,17.05-15.38,24.7-13.11,.13-.53,.27-1.2,.4-1.74-.81-1.6-2.01-2.94-3.62-4.01-7.79-5.08-20.14,.13-27.79,11.63-2.42,3.61-4.03,7.62-4.83,11.37Z"/><path class="cls-50" d="M379.71,639.99c.54,.27,1.07,.54,1.61,.67,7.79,3.61,19.2-1.74,26.18-12.44,5.37-8.16,6.85-17.12,4.56-23.54-.54-.27-1.07-.53-1.61-.67-.94,3.21-2.28,6.55-4.43,9.63-6.71,10.03-17.05,15.38-24.7,13.11-1.07-.4-2.15-.8-3.09-1.47-1.61-1.07-2.82-2.41-3.62-4.01-1.88,7.89-.13,15.24,5.1,18.72Z"/></g><g><path class="cls-50" d="M516.65,596.93c-.38,1.99-.95,3.89-1.52,5.41q-.1,.09-.1,.19c-2.48,9.3-27.63,16.61-58.31,16.61s-54.69-7.02-58.12-16.04c0-.09-.1-.19-.1-.28-.67-1.52-1.14-3.32-1.52-5.41-1.62-7.88,0-14.81,1.43-18.89-.19,.28-.19,.66-.19,.95,0,3.99,4.19,7.69,11.24,10.73,10.58,4.56,27.82,7.5,47.26,7.5s36.78-2.94,47.35-7.5c7.05-3.04,11.24-6.74,11.24-10.73,0-.47-.1-.85-.19-1.33,1.43,3.8,3.24,10.73,1.52,18.79Z"/><path class="cls-52" d="M409.46,590.2c-.19-.08-.32-.18-.51-.26v21.41c6.07,2.68,14.34,4.82,24.07,6.17v-21.42c-9.43-1.3-17.58-3.34-23.56-5.91Z"/><path class="cls-2" d="M444.45,597.27v21.44c2.67,.18,5.42,.26,8.21,.32v-21.41c-2.79-.06-5.54-.17-8.21-.35Z"/></g><g><path class="cls-8" d="M559.08,689.52c-.74-1.12-1.4-2.3-1.96-3.55-.11,.03-.23,.06-.37,.06h-9.28s-.02,0-.04,0c.34,2.77,1.01,5.53,2.04,8.19,1.08,3.3,5.22,4.74,8.11,2.76,2.48-1.65,3.16-4.98,1.5-7.46Z"/><path class="cls-16" d="M556.74,685.97c.14,0,.26-.02,.37-.06-.91-2.01-1.57-4.18-1.93-6.43-.03-.2-.07-.39-.12-.58-.1-.05-.21-.09-.32-.09h-5.28c-.26,0-.53,.16-.68,.41l-1.61,2.61c0,1.37,.08,2.75,.25,4.13,.01,0,.02,0,.04,0h9.28Z"/><path class="cls-8" d="M556.17,683.56c-3.01-.81-6.15-1.13-9.3-.94-1.38,.07-2.04-1.37-1.25-2.82,.58-1.05,1.23-2.15,1.95-3.3,.16-.26,.48-.47,.8-.53,2.18-.38,4.39-.56,6.61-.54,.33,0,.65,.19,.81,.47,.7,1.23,1.31,2.54,1.82,3.93,.68,1.94-.12,4.12-1.43,3.72Z"/><g><path class="cls-54" d="M550.42,656.54h.1c7.57,0,13.71,6.15,13.71,13.71v.39c0,3.99-3.24,7.23-7.23,7.23h-13.08c-3.99,0-7.23-3.24-7.23-7.23v-.39c0-7.57,6.15-13.71,13.71-13.71Z" transform="translate(-32.72 28.4) rotate(-2.87)"/><path class="cls-40" d="M557.43,658.34c1.48,2.06,2.4,4.54,2.54,7.24l.02,.39c.2,3.97-2.9,7.38-6.88,7.58l-13.01,.65c-.9,.05-1.77-.09-2.59-.35,1.18,2.66,3.92,4.48,7,4.32l13.01-.65c3.98-.2,7.08-3.61,6.88-7.58l-.02-.39c-.24-4.83-3.01-8.97-6.95-11.22Z"/><path class="cls-38" d="M542.33,671.75c-.39-1.73,.14-2.88,1.93-3.49,2.05-.71,2.61-.42,2.99,1.84,.36,2.96-1.14,3.56-3.36,2.26-.47-.28-1.04-.41-1.56-.6Z"/><path class="cls-38" d="M550.92,660.73c.86-1.11,2.02-1.46,3.37-1.3,.46,.6,.9,1.22,1.39,1.8,1.17,1.38,.54,2.59-.35,3.76-.98,1.28-2.37,1.1-3.66,.8-.83-.19-.93-1.06-1.03-1.86-.13-1.1,.23-2.13,.26-3.2Z"/></g></g><g><path class="cls-19" d="M396.93,712.48c-2.88-3.32-3.4-6.99-4.63-11.16-1.46-4.59-4.24-8.8-7.21-12.6-.73-.86,.33-2.14,1.31-1.59,3.39,1.74,6.74,3.86,10.03,5.88,3.75,2.05,7.55,4.93,9.46,8.91,1.34,2.68,2.05,5.69,1.36,8.67-.76,3.06-3.87,4.93-6.94,4.17-1.44-.33-2.5-1.22-3.39-2.27h0Z"/><path class="cls-19" d="M402.89,713.15c-4.23-7.47-1.24-16.94,3.87-23.16,2.61-3.65,5.43-7.11,8.89-10,.75-.68,2.02,.08,1.78,1.05-.55,2.89-1.16,5.65-1.73,8.36-.77,3.77-1.51,7.77-1.65,11.53-.22,3.67-.02,6.92-1.03,10.74-1.09,4.79-7.75,5.71-10.14,1.48h0Z"/><path class="cls-19" d="M409.66,711.01c.9-2.49,1.91-2.83,4.1-3.96,1.19-.6,2.56-1.1,3.85-1.39,.66-.18,4.89-.68,4.35,.64-.68,1.19-1.31,2.2-1.88,3.13-1.27,2.11-1.72,4.29-4.06,5.69-3.14,2.2-8.03,.19-6.35-4.11h0Z"/><path class="cls-19" d="M412.94,714.3c.34-1.73,.64-3.9,.02-4.15-.62-.25-1.78,1.62-2.32,1.35-.41-.21-.15-1.54-.1-4.67,0-.42,0-1.21-.52-1.77-.26-.28-.57-.4-.78-.48-1.45-.52-4.5-1-4.95,.04-.01,.03-.03,.08-.03,.55-.01,1.21,.09,1.83,0,1.85-.14,.03-.33-1.81-1.01-1.98-.49-.12-1.37,.59-3.11,4.1l-1.23,1.23c.29,1.18,.79,1.93,1.15,2.38,3.03,3.71,10.03,2.25,11.05,2.04,.78-.16,1.41-.35,1.81-.48Z"/></g><polygon class="cls-6" points="155.19 198.84 162.64 185.29 170.08 198.84 183.69 206.26 170.08 213.67 162.64 227.23 155.19 213.67 141.58 206.26 155.19 198.84"/><polygon class="cls-6" points="190.8 101.83 198.24 88.27 205.68 101.83 219.29 109.24 205.68 116.65 198.24 130.21 190.8 116.65 177.19 109.24 190.8 101.83"/><polygon class="cls-6" points="618.31 198.84 625.76 185.29 633.2 198.84 646.81 206.26 633.2 213.67 625.76 227.23 618.31 213.67 604.7 206.26 618.31 198.84"/><polygon class="cls-6" points="685.02 12.48 692.46 -1.08 699.9 12.48 713.51 19.89 699.9 27.31 692.46 40.87 685.02 27.31 671.41 19.89 685.02 12.48"/><polygon class="cls-6" points="749.22 132.78 756.66 119.23 764.1 132.78 777.71 140.2 764.1 147.61 756.66 161.17 749.22 147.61 735.61 140.2 749.22 132.78"/><polygon class="cls-6" points="119.59 41.94 127.03 28.38 134.47 41.94 148.08 49.35 134.47 56.77 127.03 70.33 119.59 56.77 105.98 49.35 119.59 41.94"/></g><g id="Capa_2"><polygon class="cls-10" points="112.17 677.2 14.91 677.2 28.9 638.52 33.03 627.09 63.54 542.65 94.35 627.91 96.77 634.61 112.17 677.2"/><polygon class="cls-10" points="805.29 677.2 708.03 677.2 722.01 638.52 726.14 627.09 756.66 542.65 787.47 627.91 789.89 634.61 805.29 677.2"/><g><g><polygon class="cls-28" points="172.25 612.74 -64.03 612.74 -26.62 560.89 -20.74 552.73 -15.68 545.71 51.8 452.14 54.12 448.92 86.23 493.46 128.24 551.73 130.02 554.19 138.28 565.65 172.25 612.74"/><polygon class="cls-19" points="136.84 554.19 104.94 554.19 91.46 526.64 65.19 554.19 51.83 554.19 29.49 536.55 29.11 540.97 29.2 541.26 27.64 559.53 9.03 566.37 2.4 544.79 1.53 542 -15.68 545.71 51.8 452.14 86.23 493.46 126.38 541.64 136.84 554.19"/></g><g><polygon class="cls-28" points="-38.87 523.14 -6.06 478.73 54.8 396.34 106.76 483.41 137.61 535.09 103.69 533.43 91.45 507.72 63.98 531.5 50.63 530.84 29.11 513.72 28.53 517.71 28.61 517.99 26.23 534.53 7.34 539.85 1.68 519.89 .94 517.31 -38.87 523.14"/><path class="cls-19" d="M1.3,484.13l19.43-16.81-1.04,11.84,17.26,.84,11.18-21.26c4.96,10.51,9.93,21.02,14.89,31.53l12.2-5.67c1.76-5.34,3.53-10.69,5.29-16.03,3.79,4.7,7.57,9.41,11.36,14.11l14.91,.73-51.97-87.08L-6.06,478.73l7.36,5.41Z"/></g><g><path class="cls-28" d="M1.63,466.58l20.53-15.47-1.85,11.75,17.16,2,12.59-20.46,8.9,22.97,.14,.02,3.68,9.48,12.56-4.84-.1-24.89,16.83,24.09,15.04,1.76-19.74-38.83-4.75-9.34-23.83-46.87-30.56,35.99-9.61,11.31-22.47,26.47-.02,.02-5.06,5.95,10.55,8.89Z"/><path class="cls-19" d="M28.23,413.93l-5.22-.61,6.91-13.28c.76,.2,1.61,.2,2.53-.09,4.06-1.25,6.1-4.32,8.01-7.9,1.45-2.71,3.16-5.25,4.86-7.8,1.13-.03,2.25-.38,3.2-1.14,4.59-3.71,7.95-8.51,12.2-12.54,2.73-2.59,5.91-4.16,9.18-5.65l7.71,30.69,12.22,25.8-7.21,3.4,4.75,9.34-8.99,4.23c-4.27-5.94-8.55-11.89-12.82-17.83-2.14,2.99-4.28,5.98-6.42,8.97-5.77-3.07-11.55-6.14-17.32-9.21l-14.28,5.98-8.92-1.04,9.61-11.31Z"/></g><path class="cls-37" d="M21.1,409.93l10.47,2.24,14.78-4.59,8.82-10.09,3.28,21c2.83-3.01,5.65-6.02,8.48-9.02l14.09,19.57,2.9-1.03,7.5-2.7,6.17-2.21-13.25-36.71-7.28-48.09c-.63-4.13-6.05-5.3-8.33-1.79l-47.63,73.42Z"/></g><g><polygon class="cls-45" points="34.36 664.2 280.65 664.2 245.24 625.52 234.78 614.09 157.51 529.65 79.48 614.91 73.35 621.61 34.36 664.2"/><polygon class="cls-21" points="73.35 621.61 109.93 614.42 110.8 616.96 117.44 636.62 136.04 630.39 137.6 613.75 137.51 613.48 137.89 609.46 160.23 625.52 173.59 625.52 199.86 600.43 213.34 625.52 245.24 625.52 234.78 614.09 157.51 529.65 79.48 614.91 73.35 621.61"/></g><g><polygon class="cls-45" points="69.54 603.88 102.34 559.47 163.2 477.07 215.17 564.15 246.02 615.83 212.09 614.17 199.86 588.46 172.39 612.23 159.04 611.58 137.51 594.45 136.94 598.45 137.02 598.73 134.64 615.27 115.75 620.58 110.09 600.62 109.34 598.04 69.54 603.88"/><path class="cls-21" d="M109.71,564.87l19.43-16.81-1.04,11.84,17.26,.84,11.18-21.26c4.96,10.51,9.93,21.02,14.89,31.53l12.2-5.67c1.76-5.34,3.53-10.69,5.29-16.03,3.79,4.7,7.57,9.41,11.36,14.11l14.91,.73-51.97-87.08-60.86,82.39,7.36,5.41Z"/></g><g><path class="cls-45" d="M110.03,547.31l20.53-15.47-1.85,11.75,17.16,2,12.59-20.46,8.9,22.97,.14,.02,3.68,9.48,12.56-4.84-.1-24.89,16.83,24.09,15.04,1.76-19.74-38.83-4.75-9.34-23.83-46.87-30.56,35.99-9.61,11.31-22.47,26.47-.02,.02-5.06,5.95,10.55,8.89Z"/><path class="cls-21" d="M136.64,494.67l-5.22-.61,10.78-20.7c1.86,.82,3.94,.68,5.59-.9,3.14-3.03,4.73-6.73,6.38-10.68,1.85-4.43,3.92-7.32,7.89-10.09,4.54-3.17,11.91-7.95,14.3-13.86l9.67,38.53,12.22,25.8-7.21,3.4,4.75,9.34-8.99,4.23c-4.27-5.94-8.55-11.89-12.82-17.83-2.14,2.99-4.28,5.98-6.42,8.97-5.77-3.07-11.55-6.14-17.32-9.21l-14.28,5.98-8.92-1.04,9.61-11.31Z"/></g><path class="cls-45" d="M129.5,490.67l10.47,2.24,14.78-4.59,8.82-10.09,3.28,21c2.83-3.01,5.65-6.02,8.48-9.02l14.09,19.57,2.9-1.03,7.5-2.7,6.17-2.21-13.25-36.71-7.28-48.09c-.63-4.13-6.05-5.3-8.33-1.79l-47.63,73.42Z"/><g><g><polygon class="cls-28" points="951.23 621.6 714.95 621.6 748.92 574.51 757.18 563.05 758.95 560.59 801.03 502.24 833.09 457.78 835.41 461 902.87 554.57 907.93 561.59 913.82 569.75 951.23 621.6"/><polygon class="cls-19" points="902.87 554.57 885.67 550.86 884.79 553.65 878.16 575.23 859.56 568.39 857.99 550.12 858.08 549.82 857.7 545.41 835.37 563.05 822 563.05 795.73 535.5 782.25 563.05 750.35 563.05 760.81 550.49 801.03 502.24 835.41 461 902.87 554.57"/></g><g><polygon class="cls-28" points="926.06 532 893.26 487.59 832.4 405.2 780.43 492.27 749.58 543.95 783.51 542.29 795.74 516.58 823.21 540.36 836.56 539.7 858.08 522.57 858.66 526.57 858.58 526.85 860.96 543.39 879.85 548.71 885.51 528.75 886.26 526.17 926.06 532"/><path class="cls-19" d="M885.89,492.99l-19.43-16.81,1.04,11.84-17.26,.84-11.18-21.26c-4.96,10.51-9.93,21.02-14.89,31.53l-12.2-5.67c-1.76-5.34-3.53-10.69-5.29-16.03-3.79,4.7-7.57,9.41-11.36,14.11l-14.91,.73,51.97-87.08,60.86,82.39-7.36,5.41Z"/></g><g><path class="cls-28" d="M885.57,475.44l-20.53-15.47,1.85,11.75-17.16,2-12.59-20.46-8.9,22.97-.14,.02-3.68,9.48-12.56-4.84,.1-24.89-16.83,24.09-15.04,1.76,19.74-38.83,4.75-9.34,23.83-46.87,30.56,35.99,9.61,11.31,22.47,26.47,.02,.02,5.06,5.95-10.55,8.89Z"/><path class="cls-19" d="M858.96,422.79l5.22-.61-6.91-13.28c-.76,.2-1.61,.2-2.53-.09-4.06-1.25-6.1-4.32-8.01-7.9-1.45-2.71-3.16-5.25-4.86-7.8-1.13-.03-2.25-.38-3.2-1.14-4.59-3.71-7.95-8.51-12.2-12.54-2.73-2.59-5.91-4.16-9.18-5.65l-7.71,30.69-12.22,25.8,7.21,3.4-4.75,9.34,8.99,4.23c4.27-5.94,8.55-11.89,12.82-17.83,2.14,2.99,4.28,5.98,6.42,8.97,5.77-3.07,11.55-6.14,17.32-9.21l14.28,5.98,8.92-1.04-9.61-11.31Z"/></g><path class="cls-28" d="M866.1,418.79l-10.47,2.24-14.78-4.59-8.82-10.09-3.28,21c-2.83-3.01-5.65-6.02-8.48-9.02l-14.09,19.57-2.9-1.03-7.5-2.7-6.17-2.21,13.25-36.71,7.28-48.09c.63-4.13,6.05-5.3,8.33-1.79l47.63,73.42Z"/></g><g><polygon class="cls-45" points="873.27 653.54 626.98 653.54 662.39 614.86 672.85 603.43 750.12 518.99 828.15 604.25 834.28 610.95 873.27 653.54"/><polygon class="cls-21" points="834.28 610.95 797.7 603.76 796.83 606.3 790.19 625.96 771.59 619.73 770.03 603.09 770.12 602.82 769.74 598.8 747.4 614.86 734.04 614.86 707.77 589.77 694.29 614.86 662.39 614.86 672.85 603.43 750.12 518.99 828.15 604.25 834.28 610.95"/></g><g><polygon class="cls-45" points="838.09 593.22 805.29 548.81 744.43 466.41 692.46 553.49 661.61 605.17 695.54 603.51 707.77 577.8 735.24 601.57 748.59 600.92 770.12 583.79 770.69 587.79 770.61 588.07 772.99 604.61 791.88 609.92 797.54 589.96 798.29 587.38 838.09 593.22"/><path class="cls-21" d="M797.92,554.21l-19.43-16.81,1.04,11.84-17.26,.84-11.18-21.26c-4.96,10.51-9.93,21.02-14.89,31.53l-12.2-5.67c-1.76-5.34-3.53-10.69-5.29-16.03-3.79,4.7-7.57,9.41-11.36,14.11l-14.91,.73,51.97-87.08,60.86,82.39-7.36,5.41Z"/></g><g><path class="cls-45" d="M797.6,536.65l-20.53-15.47,1.85,11.75-17.16,2-12.59-20.46-8.9,22.97-.14,.02-3.68,9.48-12.56-4.84,.1-24.89-16.83,24.09-15.04,1.76,19.74-38.83,4.75-9.34,23.83-46.87,30.56,35.99,9.61,11.31,22.47,26.47,.02,.02,5.06,5.95-10.55,8.89Z"/><path class="cls-21" d="M770.99,484.01l5.22-.61-10.78-20.7c-1.86,.82-3.94,.68-5.59-.9-3.14-3.03-4.73-6.73-6.38-10.68-1.85-4.43-3.92-7.32-7.89-10.09-4.54-3.17-11.91-7.95-14.3-13.86l-9.67,38.53-12.22,25.8,7.21,3.4-4.75,9.34,8.99,4.23c4.27-5.94,8.55-11.89,12.82-17.83,2.14,2.99,4.28,5.98,6.42,8.97,5.77-3.07,11.55-6.14,17.32-9.21l14.28,5.98,8.92-1.04-9.61-11.31Z"/></g><path class="cls-45" d="M778.13,480.01l-10.47,2.24-14.78-4.59-8.82-10.09-3.28,21c-2.83-3.01-5.65-6.02-8.48-9.02l-14.09,19.57-2.9-1.03-7.5-2.7-6.17-2.21,13.25-36.71,7.28-48.09c.63-4.13,6.05-5.3,8.33-1.79l47.63,73.42Z"/><g><path class="cls-17" d="M568.12,689.26c5.84,1.93,16.44-13.91,22.63-24.27h-26.85c-.99,13.79,.29,22.97,4.22,24.27Z"/><path class="cls-17" d="M635.87,689.26c3.93-1.3,5.21-10.48,4.22-24.27h-26.85c6.19,10.35,16.79,26.2,22.63,24.27Z"/><path class="cls-47" d="M612.01,654.73l-3.45,2.06c.55,1.01,2.29,4.2,4.68,8.2h26.85c-.23-3.19-.58-6.62-1.04-10.26h-27.03Z"/><path class="cls-10" d="M612.01,654.73l-3.45,2.06c.54,.99,1.09,1.98,1.65,2.98,1.2,2.14,2.4,4.24,3.61,6.3,3.27-.56,9.9-1.21,17.34,1.62,4.1,1.56,7.16,3.69,9.21,5.4-.05-4.12-.26-8.48-.71-13.06-.18-1.81-.38-3.58-.61-5.3h-27.03Z"/><path class="cls-10" d="M591.94,654.73l3.45,2.06c-.54,.99-1.09,1.98-1.65,2.98-1.2,2.14-2.4,4.24-3.61,6.3-3.27-.56-9.9-1.21-17.34,1.62-4.1,1.56-7.16,3.69-9.21,5.4,.05-4.12,.26-8.48,.71-13.06,.18-1.81,.38-3.58,.61-5.3h27.03Z"/><path class="cls-23" d="M610.02,536.51c18.37,.36,26.52,2.05,30.35,3.78,.8,.36,3.86,1.83,8.13,2.16,2.94,.23,5.39-.16,7.04-.54,2.35,3.78,4.7,7.56,7.04,11.34-2.94,.53-7.53,1.49-13.01,3.24-6.12,1.96-8.31,3.3-10.3,3.78-5.1,1.22-13.78-2.06-29.26-23.75Z"/><path class="cls-9" d="M651.07,630.38c-.05-.13-.09-.25-.15-.38l-6.5-16.05c-7.03-17.34-22.51-27.78-36.26-27.78h-12.53c-13.75,0-29.24,10.43-36.26,27.78l-6.5,16.05c-.04,.09-.07,.18-.1,.27-.76,4.42-1.52,8.84-2.29,13.26,0,.58,.2,8.56,6.4,12.27,1.76,1.05,3.86,1.63,6.29,1.63h77.46c7.72,0,12.12-5.9,12.69-13.81-.75-4.41-1.49-8.82-2.24-13.24Z"/><path class="cls-31" d="M640.91,609.39c-10.53,4.8-17.65,4.18-22.22,2.7-8.08-2.61-9.73-8.38-16.8-8.64-6.87-.25-8.95,5.08-17.34,7.56-4.74,1.4-11.95,2.02-22.22-2.16-.36-5.4-.72-10.8-1.08-16.19h80.2c-.18,5.58-.36,11.16-.54,16.73Z"/><path class="cls-31" d="M616.52,626.12c-.15,.45-.06,.88,0,1.08,.79,2.67,6.89,3.11,8.67,3.24,1.5,.11,2.38,.06,9.21-.54,6.1-.54,6.76-.62,8.13-.54,3.58,.21,6.53,1.2,8.67,2.16l-5.19-13.86c-.85-2.06-1.82-4.02-2.89-5.88-2.33,4.02-5.09,6.53-6.85,7.9-2.25,1.75-6.17,4.81-11.62,5.35-3.42,.34-7.68-.3-8.13,1.08Z"/><g><path class="cls-27" d="M634.62,597.13h0c-2.08-8.47,3.18-17.09,11.68-19.16h0c8.5-2.07,17.15,3.17,19.23,11.63h0c2.08,8.47-3.18,17.09-11.68,19.16h0c-8.5,2.07-17.15-3.17-19.23-11.63Z"/><path class="cls-27" d="M662.34,618.04l5.93,.89c.69,.1,1.34-.37,1.43-1.06,.52-4.02,.6-8.09,.26-12.12-.47-5.48-1.72-10.85-3.74-16-.25-.65-1-.95-1.65-.69l-9.2,3.8c-.62,.26-.94,.96-.69,1.59,1.54,3.98,2.5,8.12,2.86,12.34,.16,1.85,.2,3.71,.13,5.56-.11,2.81,1.89,5.26,4.68,5.68Z"/><ellipse class="cls-23" cx="653.91" cy="595.1" rx="8.13" ry="8.1"/><path class="cls-23" d="M664.77,592.49c.42-.87,.98-1.62,1.63-2.26,1.66,4.36,2.79,8.88,3.35,13.49-.39-.12-.77-.25-1.14-.43-4.05-1.93-5.76-6.76-3.83-10.8Z"/><path class="cls-23" d="M665.49,607.74c1.21,3.42,1.42,7.23,.58,10.86l-2.1-.32c1.11-3.22,1.29-6.81,.42-10.21-.17-.69,.86-1,1.1-.33Z"/></g><path class="cls-31" d="M587.18,626.66c.15,.45,.06,.88,0,1.08-.79,2.67-6.89,3.11-8.67,3.24-1.5,.11-2.38,.06-9.21-.54-6.1-.54-6.76-.62-8.13-.54-3.58,.21-6.53,1.2-8.67,2.16l5.19-13.86c.85-2.06,1.82-4.02,2.89-5.88,2.33,4.02,5.09,6.53,6.85,7.9,2.25,1.75,6.17,4.81,11.62,5.35,3.42,.34,7.68-.3,8.13,1.08Z"/><path class="cls-31" d="M653.06,642.12c-3.29-2-7.48-.96-12.37,0-5.42,1.08-11.05-.4-16.58-.36-1.34,0-2.93,.05-4.96-.54-2.06-.59-2.99-1.37-3.25-1.08-.54,.61,2.06,5.39,5.5,8.1,.44,.34,1.39,1.05,1.54,2.16,.18,1.31-.85,2.44-1.08,2.7-2.35,2.59-7.13,.72-18.34,.54-1.11-.02-2.22-.02-3.34,0-11.21,.18-16,2.05-18.34-.54-.23-.26-1.26-1.39-1.08-2.7,.15-1.11,1.1-1.82,1.54-2.16,3.45-2.71,6.04-7.49,5.5-8.1-.26-.29-1.19,.49-3.25,1.08-2.03,.59-3.63,.55-4.96,.54-5.53-.04-11.16,1.44-16.58,.36-4.89-.97-9.08-2.01-12.37,0-.08,.5-.17,1-.25,1.5,.56,7.92,4.97,13.81,12.69,13.81h77.54c7.72,0,12.12-5.9,12.69-13.81-.08-.5-.17-1-.25-1.5Z"/><g><path class="cls-23" d="M618.76,625.16c-.82,.25-1.65,.46-2.48,.65,6.14,1.63,12.8,1.64,19.33-.31,4.16-1.24,7.92-3.18,11.2-5.64l-2.39-5.91c-.82-2.02-1.76-3.95-2.79-5.77-5.19,7.88-13.09,14.06-22.87,16.98Z"/><path class="cls-23" d="M618.24,640.46c-.85-.14-1.68-.31-2.51-.5,4.79,4.16,10.75,7.1,17.48,8.23,6.97,1.17,13.79,.22,19.84-2.35,.12-.72,.21-1.46,.27-2.22-.66-3.93-1.33-7.86-1.99-11.79-8.96,7.19-20.84,10.68-33.08,8.63Z"/></g><rect class="cls-15" x="526.57" y="508.98" width="144.69" height="72.88" rx="12" ry="12"/><path class="cls-27" d="M561.07,613.5h0c8.33-2.66,12.96-11.63,10.29-19.93h0c-2.67-8.3-11.68-12.91-20.01-10.25h0c-8.33,2.66-12.96,11.63-10.29,19.93h0c2.67,8.3,11.68,12.91,20.01,10.25Z"/><path class="cls-27" d="M528.69,600.88l-3.86-4.57c-.45-.53-.38-1.34,.16-1.77,3.17-2.54,6.61-4.74,10.23-6.55,4.93-2.47,10.19-4.21,15.64-5.19,.69-.12,1.34,.35,1.45,1.04l1.55,9.8c.1,.66-.33,1.3-1,1.42-4.21,.77-8.26,2.13-12.06,4.03-1.66,.83-3.28,1.77-4.83,2.8-2.35,1.56-5.49,1.15-7.31-1Z"/><ellipse class="cls-23" cx="552.73" cy="596.05" rx="8.13" ry="8.1"/><path class="cls-23" d="M549.28,585.46c.53-.81,.88-1.68,1.09-2.56-4.6,.87-9.06,2.28-13.3,4.21,.3,.27,.62,.52,.97,.75,3.77,2.43,8.8,1.36,11.24-2.39Z"/><path class="cls-39" d="M551.15,580.24c-1.73-.09-6.17-.56-10.51-3.76-4.62-3.41-6.33-7.85-6.87-9.46,1.21,15.12,9.93,28.1,22.21,34.8,5.19,1.77,10.73,2.72,16.46,2.72,14.22,0,26.24-10.4,29.44-24.29h-50.75Z"/><path class="cls-39" d="M652.5,580.24c1.73-.09,6.15-.56,10.48-3.76,4.61-3.41,6.32-7.86,6.85-9.46-1.21,15.12-9.9,28.1-22.15,34.8-5.18,1.77-10.7,2.72-16.42,2.72-14.19,0-26.17-10.4-29.37-24.29h50.61Z"/><path class="cls-23" d="M656.2,507.02l-17.05-29.41c-4.53-7.82-12.9-12.63-21.96-12.63h-34.09c-9.06,0-17.43,4.81-21.96,12.63l-17.05,29.41c-4.53,7.82-4.53,17.44,0,25.26l.96,1.65c4.23-10.44,10.73-20.01,20.8-27.92,4.93-3.87,16.67-11.81,36.04-13.23,19.11,1.51,30.72,9.34,35.67,13.23,9.05,7.11,15.21,15.56,19.44,24.77,3.71-7.52,3.44-16.43-.8-23.75Z"/><path class="cls-27" d="M662.97,554.32l-5.16-8.91c-.36-.62-.76-1.2-1.21-1.74-2.54-3.11-2.75-7.51-.74-10.98l.17-.29c4.52-7.8,4.52-17.41,0-25.21l-17.01-29.36c-4.52-7.8-12.88-12.61-21.92-12.61h-34.03c-9.04,0-17.4,4.81-21.92,12.61l-17.01,29.36c-4.52,7.8-4.52,17.41,0,25.21l1.86,3.21c1.76,3.03,1.64,6.73-.13,9.75l-.03,.05-5.16,8.91c-2.38,4.11-2.38,9.18,0,13.29l5.16,8.91c2.38,4.11,6.79,6.64,11.55,6.64h10.32c4.76,0,9.17-2.53,11.55-6.64l1.32-2.28h.03c-.12,.23-.24,.45-.34,.69l-4.79,10.99c-1.74,4-.35,8.77,3.42,10.97,4.5,2.62,10.2,.67,12.22-3.95l2.14-4.91v2.35c0,4.36,3.19,8.18,7.53,8.7,5.18,.62,9.62-3.44,9.62-8.48v-3.24l1.86,4.26c1.74,4,6.2,6.24,10.39,4.99,5-1.49,7.45-6.97,5.43-11.6l-3.78-8.67,.1,.16c2.38,4.11,6.79,6.64,11.55,6.64h10.32c4.76,0,9.17-2.53,11.55-6.64l5.16-8.9c2.38-4.11,2.38-9.18,0-13.29Z"/><path class="cls-23" d="M618.73,559.18c-5.22-1.54-12.87-3.18-22.22-3.12-8.82,.06-16.07,1.63-21.13,3.12-2.53-9.18-5.06-18.35-7.59-27.53,6.47,2.17,16.63,4.75,29.26,4.68,12.09-.07,21.83-2.55,28.18-4.68-2.17,9.18-4.34,18.35-6.5,27.53Z"/><path d="M570.99,561.01h-8.37c-4.82,0-8.76-3.94-8.76-8.76h0c0-15.18,12.42-27.61,27.61-27.61h.14c4.82,0,8.76,3.94,8.76,8.76v8.23c0,10.66-8.72,19.38-19.38,19.38Z"/><path d="M625.9,561.01h8.37c4.82,0,8.76-3.94,8.76-8.76h0c0-15.18-12.42-27.61-27.61-27.61h-.14c-4.82,0-8.76,3.94-8.76,8.76v8.23c0,10.66,8.72,19.38,19.38,19.38Z"/><g><path d="M593.95,562.27l-2.56,4.68c-1.41,2.58,.45,5.72,3.39,5.72h5.13c2.94,0,4.8-3.15,3.39-5.72l-2.56-4.68c-1.47-2.68-5.32-2.68-6.78,0Z"/><path d="M599.55,562.27l-2.56,4.68c-1.41,2.58,.45,5.72,3.39,5.72h5.13c2.94,0,4.8-3.15,3.39-5.72l-2.56-4.68c-1.47-2.68-5.32-2.68-6.78,0Z"/></g><path class="cls-9" d="M663.61,455.87c-23.52-26.91-55.01-30.27-61.81-30.83h-.18c-6.79,.57-38.28,3.92-61.81,30.83-18.43,21.09-21.36,44.5-22.01,52.71v40.1c0,25.01,16.56,46.35,39.3,53.67-13.93-7.23-23.5-21.76-23.5-38.41,2.44-10.31,4.88-20.63,7.32-30.94,3.66-15.49,10.76-29.9,24.93-41.03,4.93-3.87,16.67-11.81,36.04-13.23,19.11,1.51,30.72,9.34,35.67,13.23,14.17,11.14,21.27,25.55,24.93,41.03,2.44,10.31,4.88,20.63,7.32,30.94,0,16.65-9.57,31.19-23.5,38.41,22.74-7.32,39.3-28.66,39.3-53.67v-40.1c-.65-8.21-3.58-31.62-22.01-52.71Z"/><path class="cls-27" d="M622.72,596.99c-2.27,0-4.21-.19-5.73-.41,1.76,.77,3.77,.97,5.73,.41Z"/><path class="cls-23" d="M628.21,585.38l-3.78-8.67,.1,.16c2.38,4.11,6.79,6.64,11.55,6.64h10.32c4.76,0,9.17-2.53,11.55-6.64l5.16-8.9c.73-1.26,1.23-2.6,1.51-3.98-1.94-.47-10.08,14.35-23.17,15.7-8.9,.92-16.84-4.73-22.22-9.72,1.11,2.16,2.61,5.47,3.79,9.72,1.16,4.16,1.75,6.28,1.08,8.64-1.32,4.65-6.37,6.88-8.13,7.56,.43,.39,1.77,1.48,3.79,1.62,1.34,.09,2.4-.28,2.95-.52,.02,0,.04,0,.07-.02,5-1.49,7.45-6.97,5.43-11.6Z"/><path class="cls-23" d="M575.44,585.5l3.78-8.96-.1,.17c-2.38,4.25-6.79,6.86-11.55,6.86h-10.32c-4.76,0-9.17-2.62-11.55-6.86l-5.16-9.2c-.73-1.3-1.23-2.69-1.51-4.11,1.94-.49,10.08,14.83,23.17,16.22,8.9,.95,16.84-4.88,22.22-10.04-1.11,2.24-2.61,5.65-3.79,10.04-1.16,4.29-1.75,6.49-1.08,8.92,1.32,4.8,6.37,7.1,8.13,7.81-.67,.54-1.98,1.42-3.79,1.67-3.13,.44-6.28-1.19-8-3.76-1.73-2.58-1.88-5.95-.44-8.77Z"/><path class="cls-9" d="M536.65,590.57c5.86,5.24,12.8,9.3,20.45,11.76-11.71-6.08-20.33-17.31-22.78-30.63-.24,1-.47,2.01-.71,3.01,0,5.59,1.08,10.94,3.04,15.86Z"/><path class="cls-9" d="M663.6,455.85c-23.52-26.91-55.01-30.27-61.81-30.83h-.18c-6.79,.57-38.28,3.92-61.81,30.83-18.43,21.09-21.36,44.5-22.01,52.71v10.8c.65-8.21,3.58-31.62,22.01-52.71,23.52-26.91,55.01-30.27,61.81-30.83h.18c6.79,.57,38.28,3.92,61.81,30.83,18.43,21.09,21.36,44.5,22.01,52.71v-10.8c-.65-8.21-3.58-31.62-22.01-52.71Z"/><path class="cls-9" d="M669.09,571.7c-2.45,13.32-11.08,24.55-22.78,30.63,7.65-2.46,14.6-6.52,20.45-11.76,1.96-4.92,3.04-10.27,3.04-15.86-.24-1-.47-2.01-.71-3.01Z"/><path class="cls-23" d="M637.56,491.95c-4.95-3.89-16.57-11.72-35.67-13.23-19.36,1.42-31.11,9.35-36.04,13.23-12.69,9.97-19.71,22.57-23.66,36.22,.51,1.45,1.16,2.87,1.94,4.23l.15,.25c4.2-11.21,10.87-21.49,21.57-29.9,4.93-3.87,16.67-11.81,36.04-13.23,19.11,1.51,30.72,9.34,35.67,13.23,9.53,7.5,15.86,16.47,20.1,26.25,.86-2.18,1.4-4.45,1.62-6.74-4.19-11.36-10.89-21.79-21.72-30.31Z"/><g><path class="cls-23" d="M587.3,625.81c-.83-.19-1.65-.41-2.48-.65-9.71-2.9-17.56-9.01-22.76-16.82-1,1.78-1.91,3.65-2.7,5.61l-2.44,6.02c3.24,2.41,6.95,4.31,11.05,5.53,6.54,1.95,13.19,1.94,19.33,.31Z"/><path class="cls-23" d="M570.38,648.19c6.73-1.13,12.69-4.07,17.48-8.23-.83,.19-1.66,.36-2.51,.5-12.15,2.04-23.95-1.39-32.89-8.48-.66,3.85-1.33,7.7-1.99,11.55,0,.18,.02,1.09,.24,2.38,6.01,2.52,12.77,3.44,19.67,2.28Z"/></g><path class="cls-23" d="M618.24,640.46c-.85-.14-1.68-.31-2.51-.5,4.79,4.16,10.75,7.1,17.48,8.23,6.97,1.17,13.79,.22,19.84-2.35,.12-.72,.21-1.46,.27-2.22-.66-3.93-1.33-7.86-1.99-11.79-8.96,7.19-20.84,10.68-33.08,8.63Z"/><path class="cls-23" d="M570.38,648.19c6.73-1.13,12.69-4.07,17.48-8.23-.83,.19-1.66,.36-2.51,.5-12.15,2.04-23.95-1.39-32.89-8.48-.66,3.85-1.33,7.7-1.99,11.55,0,.18,.02,1.09,.24,2.38,6.01,2.52,12.77,3.44,19.67,2.28Z"/><path class="cls-23" d="M616.28,625.81c6.14,1.63,12.8,1.64,19.33-.31,4.16-1.24,7.92-3.18,11.2-5.64l-.85-2.09c-3.07,2.17-6.54,3.9-10.35,5.04-4.62,1.38-9.3,1.77-13.82,1.31-.99,.38-2,.73-3.04,1.04-.82,.25-1.65,.46-2.48,.65Z"/><path class="cls-23" d="M653.04,643.14c-6.05,2.57-12.87,3.52-19.84,2.35-4.63-.78-8.89-2.41-12.66-4.71-.77-.09-1.53-.19-2.3-.32-.85-.14-1.68-.31-2.51-.5,4.79,4.16,10.75,7.1,17.48,8.23,6.97,1.17,13.79,.22,19.84-2.35,.12-.72,.21-1.46,.27-2.22-.06-.36-.12-.72-.18-1.07-.03,.2-.05,.4-.09,.59Z"/><path class="cls-27" d="M635.62,622.8c3.81-1.14,7.28-2.87,10.35-5.04l-1.55-3.82c-.82-2.02-1.76-3.95-2.79-5.77-4.64,7.05-11.45,12.73-19.83,15.94,4.52,.46,9.2,.07,13.82-1.31Z"/><path class="cls-27" d="M653.04,643.14c.03-.2,.06-.4,.09-.59-.6-3.57-1.21-7.15-1.81-10.72-8.4,6.74-19.36,10.23-30.77,8.95,3.77,2.3,8.04,3.93,12.66,4.71,6.97,1.17,13.79,.22,19.84-2.35Z"/><path class="cls-27" d="M568.15,622.8c-3.81-1.14-7.28-2.87-10.35-5.04l1.55-3.82c.82-2.02,1.76-3.95,2.79-5.77,4.64,7.05,11.45,12.73,19.83,15.94-4.52,.46-9.2,.07-13.82-1.31Z"/><path class="cls-27" d="M550.72,643.14c-.03-.2-.06-.4-.09-.59,.6-3.57,1.21-7.15,1.81-10.72,8.4,6.74,19.36,10.23,30.77,8.95-3.77,2.3-8.04,3.93-12.66,4.71-6.97,1.17-13.79,.22-19.84-2.35Z"/><path class="cls-23" d="M528.28,611.36h-.04c-.01,.05-.03,.12-.05,.19l.08-.19Z"/><path class="cls-23" d="M535.85,592.83c-3.56,.76-6.93,2.57-9.6,5.18l1.37,1.62c2.18-2.63,5.16-4.66,8.52-5.7,.68-.21,.41-1.25-.29-1.1Z"/><path class="cls-31" d="M667.52,554.27c.76,3.22,1.52,6.44,2.29,9.66,0,16.65-9.57,31.19-23.5,38.41,22.74-7.32,39.3-28.66,39.3-53.67v-35.63c0,16.23-6.98,30.91-18.09,41.22Z"/><path class="cls-31" d="M517.81,513.05v35.63c0,25.01,16.56,46.35,39.3,53.67-13.93-7.23-23.5-21.76-23.5-38.41l2.29-9.66c-11.11-10.31-18.09-24.99-18.09-41.22Z"/><ellipse class="cls-23" cx="623.14" cy="629.71" rx="16.96" ry="7.06" transform="translate(-136.36 173.63) rotate(-14.32)"/><g><polygon class="cls-13" points="617.98 606.07 632.61 635.05 631.2 647.39 618.33 631 612.48 614.92 617.98 606.07"/><path class="cls-26" d="M610.24,628.83l6.36,9.3,5.02,5.46,5.84,2.67s3.84,1.49,3.75,1.14-5.44-9.95-5.44-9.95l-6.51-8.31s-8.34-2.59-8.43-2.23-.57,1.92-.57,1.92Z"/><path class="cls-26" d="M622.91,615.7s-3.74,8.75,.55,17.64c-6.5-5.73-10.95-19.88-10.95-19.88l3.87-6.98,1.6-.41"/><path class="cls-29" d="M605.23,613.73l11.08,7.1s3.94,6.73,9.44,16.61c-13.02-11.05-15.64-8.54-15.64-8.54l-4.89-15.18Z"/><path class="cls-46" d="M618.07,606.82c-.27,2.77-.68,9.75-.78,11.55-.02,.28,.03,.56,.13,.82l4.26,10.96-15.53-15.03c-.8-.78-1.22-1.89-1.13-3.01l.72-9.05c.11-1.44,1.55-2.31,2.84-1.73l8.57,3.86c.62,.28,1,.94,.93,1.63Z"/></g><ellipse class="cls-27" cx="630.26" cy="640.16" rx="18.5" ry="15.14" transform="translate(-193.76 997.95) rotate(-68.92)"/></g><g><path class="cls-41" d="M214.83,675.78l-.75,1.31c.39-.37,.65-.78,.75-1.31Z"/><path class="cls-44" d="M214.83,675.78c.14-.24,.23-.5,.28-.76l-.26,.45c0,.1-.01,.21-.03,.31Z"/><path class="cls-44" d="M213.8,677.33c.1-.08,.19-.16,.28-.25l.75-1.31c.02-.1,.03-.21,.03-.31l-1.06,1.86Z"/><path class="cls-24" d="M285.09,652.57c-10.09,33.3-21.69,56.28-29.59,55.06-10.69-1.65-11.84-47.15-11.94-52.39"/><path class="cls-49" d="M271.28,689.47c-3.13-.78-7.16-1.48-11.88-1.59-5.11-.12-9.47,.5-12.79,1.22-.41-2.52-.82-5.04-1.22-7.56,9.72,.38,19.44,.77,29.16,1.15-1.09,2.26-2.18,4.53-3.27,6.79Z"/><path class="cls-24" d="M271.7,653.31c10.09,33.3,21.69,56.28,29.59,55.06,10.69-1.65,11.84-47.15,11.94-52.39"/><path class="cls-49" d="M285.49,690.51c3.13-.78,7.16-1.48,11.88-1.59,5.11-.12,9.47,.5,12.79,1.22,.41-2.52,.82-5.04,1.22-7.56-9.72,.38-19.44,.77-29.16,1.15,1.09,2.26,2.18,4.53,3.27,6.79Z"/><path class="cls-7" d="M314.04,605.75c-6.4,2.97-18.24,7.46-33.69,7.55-16.43,.1-28.95-4.82-35.41-7.9l4.04-6.91c6.32-10.8,17.92-17.45,30.47-17.45h0c12.71,0,24.44,6.82,30.7,17.84l3.9,6.87Z"/><path class="cls-34" d="M280.31,668.22c29.52,.58,45.34-6.75,50.71-14.9-2.1-8.67-5.41-19.94-8.23-27.63-11.44-31.15-21.09-35.81-29.48-45.45-1.61-1.85-3.74-3.21-6.11-3.88-11.56-3.27-15.65-.54-16.83,.68l-1.79,1.9c-24.1,15.85-36.28,51.28-40.55,70.73,4.93,8.55,14.81,17.81,52.26,18.54Z"/><path class="cls-1" d="M331.03,653.32c-5.38,8.15-21.19,15.47-50.71,14.9-37.45-.73-47.33-10-52.26-18.54-.13,.58-.25,1.15-.36,1.7-1.12,5.43-2.46,11.13-1.05,13.94,4.58,9.16,12.31,20.38,53.67,21.19,38,.74,53.29-11.6,52.84-21.95-.09-2.06-.91-6.21-2.13-11.24Z"/><path class="cls-7" d="M314.04,605.75c-6.4,2.97-18.24,7.46-33.69,7.55-16.43,.1-28.95-4.82-35.41-7.9l4.04-6.91c6.32-10.8,17.92-17.45,30.47-17.45h0c12.71,0,24.44,6.82,30.7,17.84l3.9,6.87Z"/><path class="cls-24" d="M282.01,473.31s-65.22,1.25-64.16,63.68c.44,25.64,11.34,41.36,24.03,50.97,23.24,17.6,57.02,17.6,80.25,0,12.7-9.62,23.6-25.33,24.03-50.97,1.06-62.43-64.16-63.68-64.16-63.68Z"/><path class="cls-49" d="M285.36,550.48s.04,0,.06,0c-19.16-.14-38.32-.27-57.48-.41,.07,2.48,.26,6.13,.83,10.53,1.15,8.9,3.05,14.64,3.44,14.56,.37-.07-1.44-5.3,1.1-7.95,1.82-1.89,5-1.58,6.11-1.47,5.26,.51,31.74,2.91,42.32,2.93,10.72,.02,37.09-2.33,42.63-2.87,1.1-.11,4.29-.43,6.11,1.47,2.54,2.65,.72,7.88,1.1,7.95,.39,.07,2.29-5.66,3.44-14.56,.57-4.4,.76-8.05,.83-10.53-16.82,.12-33.64,.24-50.46,.36Z"/><path class="cls-36" d="M330.73,652.12l-3.26-12c-11.05,3.33-25.69,6.57-43.08,7.35-.7,.03-1.4,.06-2.1,.08,.42,4.97,1.35,9.74,.92,14.69,4.06-.03,12.23-.35,22.21-2.3,6.69-1.31,15.47-3.6,25.31-7.82Z"/><ellipse class="cls-24" cx="320.93" cy="611.99" rx="12.18" ry="14.86" transform="translate(-80.78 49.71) rotate(-7.87)"/><g><path d="M275.62,547.73c1.15,2.05,1.68,4.38,1.68,6.73v9.62c-.29,1.63-1.13,5.13-3.92,8.32-.89,1.01-2.59,2.68-5.1,3.96-.77,.39-1.58,.69-2.4,.98-1.57,.54-3.21,.81-4.87,.81h-1.39c-.78,0-1.55-.14-2.3-.34h-.01c-6.42-1.68-10.76-5.62-12.32-12.06-.65-2.67-.57-5.56-.5-8.34,.17-6.88,4.61-13.01,11.2-14.83,3.08-.85,6.45-.69,9.7-.85,2.77-.14,5.18,.94,7.35,2.6,1.25,.96,2.17,2.12,2.89,3.4Z"/><path d="M295.69,547.73c-1.15,2.05-1.68,4.38-1.68,6.73v9.62c.29,1.63,1.13,5.13,3.92,8.32,.89,1.01,2.59,2.68,5.1,3.96,.77,.39,1.58,.69,2.4,.98,1.57,.54,3.21,.81,4.87,.81h1.39c.78,0,1.55-.14,2.3-.34h0c6.42-1.68,10.76-5.62,12.32-12.06,.65-2.67,.57-5.56,.5-8.34-.17-6.88-4.61-13.01-11.2-14.83-3.08-.85-6.45-.69-9.7-.85-2.77-.14-5.18,.94-7.35,2.6-1.25,.96-2.17,2.12-2.89,3.4Z"/></g><g><path class="cls-36" d="M233.42,520.8l-24.8-4.19c-27.75,63.5,28.19,69.49,28.19,69.49,0,0-17.47-30.54-3.39-65.3Z"/><path class="cls-36" d="M355.01,516.61l-24.8,4.19c14.08,34.76-3.39,65.3-3.39,65.3,0,0,55.94-5.99,28.19-69.49Z"/></g><g id="Sombrero"><path class="cls-1" d="M367.03,438.7s-2.94,1.78-6.72,2.23c-4.57,.55-37.12-5.81-62.9-43.26-7.33-10.65-15.95-25.79-21.34-25.09-.29,.04-.57,.19-.84,.47-.21,.22-.4,.46-.58,.72-3.63,5.21-.74,18.32,8.7,39.33,.91,2.02,1.4,4.19,1.65,6.39,.18,1.61,.89,3.1,2,4.17,1.52,1.47,2.85,3.11,3.8,4.99,.21,.41,.42,.83,.63,1.25,3.26,6.42,9.74,10.59,16.95,10.94,5.7,.27,11.41,.54,17.11,.81,.35,.02,1.45,.17,3.11,.39,18.62,2.54,25.84,6.63,33.52,3.42,1.3-.55,5.02-2.11,6.97-5.88,.7-1.36,.97-2.61,1.09-3.4h0c-.66,.69-1.71,1.64-3.15,2.52Z"/><path class="cls-1" d="M354.8,459.55c-40.93-22.07-90.35-24.07-133.47-6.23-47.73,19.74-62.86,45.17-35.58,73.13s70.81,30.74,95.81,30.74c24.49,0,55.67,2.31,96.65-30.74,24.72-19.93,14.51-46.46-23.42-66.9Z"/><path class="cls-7" d="M382.08,479.55c4.55,5.19-8.43,31.38-51.87,41.24-16.72,3.8-56.36,7.3-72.31-1.95-2.62-1.52-1.16-30.9-1.16-33.92,0-21.9-13.73-41.28,29.38-43.55,60.05-3.16,90.03,31.43,95.95,38.18Z"/><path class="cls-18" d="M305.25,385.07c-2.78-6.55-6.95-11.53-12.9-14.29h-.02c-7.88-3.65-17.46-1.71-22.66,1.41-7.73,4.65-9.76,14.3-10.64,18.2-4.25,19.01-16.02,58.2-32.77,112.43,2.38,2.91,23.35,19.81,57.8,18.84,32.03-.91,50.6-15.52,53.3-18.84-9.5-38.87-22.62-78.88-32.12-117.75Z"/><path class="cls-34" d="M370.18,436.18c1.44-9.12-9.2-16.37-27.3-31.1,0,0-42.89-34.89-57.59-36.17-2.57-.22-5.07,.01-5.07,.01-2.97,.28-5.15,.97-5.82,1.19-2.62,.86-4.75,2.06-4.74,2.07,0,0,.01,0,.03,0h.02c12.64,.11,28.03,1.1,32.48,24.98,3.39,41.05,2.24,80.01,5.64,121.05,17.99-4.73,28.44-13.19,30.42-15.61-6.46-26.44-15.18-53.68-23.09-80.64-.41-1.39,1.29-2.45,2.36-1.47,8.76,8.03,24.6,23.69,43.49,22.66,3.14-.17,5.6-1.1,6.85-1.64,.88-1.18,1.96-3,2.34-5.34Z"/><path class="cls-36" d="M274.16,486.3c-8.19-.81-11.08-3.31-24.39-8.06-3.23-1.16-8.23-2.86-14.53-4.65l-5.04,16.51c19.44,9.88,34.97,16.37,42.98,18.62,2.15,.6,6.09,1.58,10.88,.79,2.52-.42,6.42-1.03,9.63-4.31,3.13-3.19,4.17-7.44,4.03-10.47-.08-1.79-.6-3.68-.74-4.15-.58-2.03-.87-3.04-1.55-3.74-1.81-1.84-5.29-.52-9.56,.03-2.61,.33-5.64,.03-11.71-.57Z"/><path class="cls-1" d="M276.04,461.72c3.45-3.3,11.26-2.89,13.7,.52,3.23,4.5-4.18,12.44-.34,17.34,1.49,1.91,2.88,1.03,5.51,3.09,4.38,3.42,6.63,10.56,4.91,17.08-1.58,5.99-6.24,10.48-11.63,12.19-5.48,1.74-10.16,.11-11.89-.52-1.59-.58-7.68-2.79-10.68-9.27-.31-.67-2.85-6.36-.69-12.62,1.91-5.55,5.28-5.03,8.01-10.47,3.98-7.9-.83-13.57,3.1-17.34Z"/><path class="cls-36" d="M289.46,486.3c8.11-.81,11.56-3.28,24.39-8.06,3.79-1.41,9.31-3.37,16.17-5.41,1.58,5.41,3.16,10.82,4.74,16.23-20.23,10.53-36.3,17.41-44.32,19.67-2.19,.62-6.12,1.57-10.88,.79-2.52-.42-6.42-1.03-9.63-4.31-3.13-3.19-4.17-7.44-4.03-10.47,.08-1.79,.6-3.68,.74-4.15,.58-2.03,.87-3.04,1.55-3.74,1.81-1.84,5.29-.52,9.56,.03,2.61,.33,5.64,.03,11.71-.57Z"/><g><path class="cls-25" d="M277.43,464.83c0-.9,.76-1.66,1.66-1.66h7.54c.9,0,1.66,.76,1.66,1.66v16.03l1.48,.78c4.11,2.16,6.91,6.05,7.7,10.49l5.57,5.55c.14-.96,.22-1.95,.22-2.95,0-6.99-3.57-13.4-9.42-17.12v-12.78c0-3.96-3.23-7.18-7.21-7.18h-7.54c-3.98,0-7.21,3.22-7.21,7.18v1.8l5.55,5.53v-7.33Z"/><path class="cls-25" d="M268.42,498.16l-5.81-5.79c-.09,.78-.14,1.56-.14,2.36,0,11.2,9.15,20.32,20.4,20.32,.8,0,1.59-.05,2.37-.14l-5.81-5.79c-5.43-1.29-9.7-5.55-11-10.96Z"/><path class="cls-4" d="M303.05,497.68l-5.57-5.55c.15,.85,.24,1.72,.24,2.6,0,8.16-6.66,14.8-14.85,14.8-1.19,0-2.34-.14-3.45-.41l5.81,5.79c9.16-1.06,16.49-8.19,17.81-17.23Z"/><path class="cls-4" d="M268.01,494.73c0-5.5,3.04-10.52,7.94-13.09l1.48-.78v-8.7l-5.55-5.53v10.97c-5.18,3.3-8.57,8.71-9.27,14.77l5.81,5.79c-.26-1.1-.41-2.25-.41-3.43Z"/></g></g><g><path class="cls-20" d="M287.26,645.76c0-.59-.22-1.16-.64-1.58-.42-.42-.99-.66-1.58-.66h-4.39l6.56,6.54,.04-4.3Z"/><path class="cls-20" d="M273.56,660.36l.09-8.4-4.4-4.38-.16,14.97c0,.59,.22,1.16,.64,1.58,.42,.42,.99,.66,1.58,.66h13.54c.47,0,.91-.15,1.27-.4l-4.04-4.03h-8.52Z"/><path class="cls-4" d="M287.08,662.6l.13-12.54-6.56-6.54h-9.16c-1.22,0-2.21,.98-2.22,2.19l-.02,1.87,4.4,4.38,.04-4.02h9.1l-.13,12.42h-.58l4.04,4.03c.57-.4,.95-1.05,.96-1.79Z"/></g><path class="cls-36" d="M282.79,647.95c-8.74,.12-18.84-.34-29.95-1.91-8.35-1.18-15.93-2.81-22.66-4.6l-2.81,10.93c5.47,1.7,11.98,3.45,19.4,4.88,7.32,1.41,13.05,2.05,15.51,2.3,5.75,.58,12.61,.98,20.38,.83,.02-1.83,.04-3.66,.06-5.49,.02-2.31,.05-4.62,.07-6.92Z"/><ellipse class="cls-49" cx="234.38" cy="647.23" rx="5.68" ry="13.61" transform="translate(-430.36 468.45) rotate(-55.04)"/><g><path class="cls-48" d="M344.6,587.76l-130.67,70.19c2.65,1.56,4.63,4.07,5.56,6.96l128.86-69.91c1.86-1.01,2.38-3.6,1.44-6.11-1.61-1.46-3.64-1.97-5.19-1.14Z"/><path class="cls-43" d="M351.07,590.43h0c-.38-.58-.82-1.09-1.29-1.52,.94,2.51,.42,5.1-1.44,6.11l-10.16,5.51c-9.52,2.21-14.24,3.49-14.17,3.83,.05,.27,2.96-.03,8.72-.87-35.8,19.43-71.61,38.86-107.41,58.29-2.2-3.59-5.69-5.48-8.81-4.87-.43,.08-2.7,.52-3.41,2.12-1.02,2.32,1.55,6.41,6.98,9.72,43.44-23.57,86.88-47.13,130.32-70.7,2.24-1.21,2.55-4.73,.68-7.62Z"/><g><path class="cls-43" d="M219.48,664.92c-.93-2.89-2.91-5.4-5.56-6.96-1.41-.83-3-1.38-4.73-1.59-.77-.09-1.55-.12-2.37-.07l-15.65,1c.84,.21,1.53,.83,1.8,1.69,.55,1.71,1.18,3.4,1.9,5.08,.47,1.11,.99,2.21,1.54,3.31,1.1,2.18,2.34,4.32,3.75,6.4,.27,.4,.55,.79,.83,1.19,.72,1.01,1.46,1.99,2.23,2.93,2.39,2.95,5.02,5.62,7.85,7.98,.69,.57,1,1.45,.88,2.3l6.86-14.11c.85-1.75,1.24-3.55,1.25-5.31,0-1.32-.2-2.6-.59-3.82Z"/><path class="cls-41" d="M163.55,675.58c-.09-.33-.19-.67-.27-.99,.09,.33,.18,.66,.27,.99Z"/><path class="cls-41" d="M166.15,682.94c-.18-.43-.36-.86-.53-1.29,.17,.43,.35,.86,.53,1.29Z"/><path class="cls-41" d="M161.28,660.42c0-.19,0-.38,0-.56,0,.18,0,.36,0,.56Z"/><path class="cls-41" d="M161.3,661.13c0-.21-.01-.42-.02-.62,0,.2,0,.41,.02,.62Z"/><path class="cls-41" d="M165.52,681.42c-.17-.44-.34-.88-.5-1.31,.16,.44,.33,.87,.5,1.31Z"/><path class="cls-41" d="M161.33,661.91c-.01-.24-.02-.48-.03-.71,0,.23,.02,.46,.03,.71Z"/><path class="cls-41" d="M175.11,697.6c-.14-.16-.27-.33-.4-.49,.13,.17,.27,.33,.4,.49Z"/><path class="cls-41" d="M173.18,695.15c-.07-.1-.14-.19-.21-.29,.07,.1,.14,.19,.21,.29Z"/><path class="cls-41" d="M161.27,659.77c0-.2,0-.39,0-.57,0,.18,0,.37,0,.57Z"/><path class="cls-41" d="M174.26,696.55c-.11-.14-.23-.28-.34-.43,.11,.14,.22,.28,.34,.43Z"/><path class="cls-41" d="M168.38,687.6c-.22-.4-.43-.81-.63-1.21,.2,.4,.41,.81,.63,1.21Z"/><path class="cls-41" d="M169.2,689.08c-.2-.34-.39-.69-.58-1.03,.19,.34,.38,.69,.58,1.03Z"/><path class="cls-41" d="M172.36,694.02c-.08-.11-.15-.22-.23-.33,.08,.11,.15,.22,.23,.33Z"/><path class="cls-41" d="M167.63,686.14c-.51-1.01-.97-2.01-1.4-3.01,.43,.99,.89,2,1.4,3.01Z"/><path class="cls-41" d="M170.12,690.62c-.21-.35-.42-.69-.62-1.04,.2,.35,.41,.69,.62,1.04Z"/><path class="cls-41" d="M171.35,692.56c-.33-.49-.65-.99-.95-1.48,.31,.49,.62,.99,.95,1.48Z"/><path class="cls-41" d="M176.33,699.02c-.29-.33-.59-.67-.88-1.01,.29,.34,.58,.68,.88,1.01Z"/><path class="cls-41" d="M172.55,675.73c-.16-.32-.31-.65-.45-.98-1.17,.25-2.48,.49-3.89,.67-1.84,.24-3.38,.32-4.47,.36-.05-.04-.11-.08-.17-.11,.4,1.41,.87,2.87,1.42,4.36,.06-.07,.11-.15,.16-.24,1.72-1.1,4.22-2.58,7.4-4.07Z"/><path class="cls-41" d="M192.83,712.07c.42-2.15,1.19-5.21,2.66-8.65,.14-.31,.27-.62,.41-.92-.51-.05-1.01-.13-1.51-.24-.95,1.06-2.1,2.21-3.46,3.35-1.58,1.32-3.02,2.25-4.01,2.84-.8-.56-1.61-1.16-2.42-1.79l-.02-.48c.64-1.06,1.55-2.48,2.76-4.09,.78-1.04,1.53-1.94,1.9-2.43-.03-.02-.06-.05-.08-.08-.63,.64-2.1,2.24-4.18,3.9-.87,.7-1.63,1.23-2.17,1.59l-.13,.02c-1.02-.86-2.04-1.78-3.07-2.77,0-.04,0-.08-.01-.11,.24-.75,.61-1.68,1.24-2.55,.61-.84,1.27-1.39,1.17-1.52-.08-.11-.57,.33-1.56,.66-.61,.21-1.1,.26-1.7,.33-.55,.06-1.28,.11-2.16,.06,8.13,9.11,17.09,13.52,21.23,15.3-1.32-.57-2.98-1.35-4.88-2.37v-.04Z"/><path class="cls-41" d="M162.84,671.21c2.6-1.1,5.47-2.17,8.58-3.15,.1-.54,.23-1.08,.4-1.61-1.43,.01-2.93-.02-4.49-.14-2.05-.16-3.97-.42-5.72-.75-.14-1.33-.23-2.54-.28-3.61,.14,3.13,.6,7.52,1.93,12.59-.28-1.07-.53-2.12-.73-3.12,.11-.05,.21-.12,.31-.21Z"/><path class="cls-41" d="M197.9,698.08c-.21-.13-1.33,1.76-3.51,4.18,.5,.11,1,.19,1.51,.24,1.11-2.44,2.19-4.3,2-4.42Z"/><path class="cls-41" d="M178.15,673.21c-.05-.15-2.41,.76-6.05,1.54,.13,.33,.28,.65,.45,.98,.09-.04,.18-.09,.28-.13,2.84-1.31,5.37-2.24,5.32-2.39Z"/><path class="cls-41" d="M189.04,699.57s.06,.05,.08,.08c.17-.22,.27-.36,.25-.38-.02-.02-.13,.09-.33,.3Z"/><path class="cls-41" d="M179.98,665.76c-2.38,.39-5.13,.66-8.16,.69-.17,.53-.3,1.06-.4,1.61,.51-.16,1.02-.32,1.54-.47,2.45-.73,4.79-1.33,7.02-1.82Z"/><path class="cls-44" d="M167.75,686.39c-.04-.08-.08-.16-.12-.24,.04,.08,.08,.16,.12,.24Z"/><path class="cls-44" d="M191.18,657.29c-.26-.07-.53-.1-.81-.08l.04,.13,.77-.05Z"/><path class="cls-44" d="M166.23,683.14c-.03-.07-.06-.13-.08-.2,.03,.07,.06,.13,.08,.2Z"/><path class="cls-44" d="M174.71,697.1c-.15-.18-.3-.37-.44-.55,.15,.19,.3,.37,.44,.55Z"/><path class="cls-44" d="M165.61,681.65c-.03-.08-.06-.15-.09-.23,.03,.08,.06,.15,.09,.23Z"/><path class="cls-44" d="M169.49,689.58c-.1-.17-.19-.34-.29-.5,.1,.17,.19,.34,.29,.5Z"/><path class="cls-44" d="M172.13,693.69c-.26-.37-.52-.75-.78-1.13,.26,.39,.52,.76,.78,1.13Z"/><path class="cls-44" d="M170.4,691.08c-.1-.15-.19-.3-.28-.46,.09,.15,.18,.3,.28,.46Z"/><path class="cls-44" d="M173.93,696.12c-.25-.32-.5-.65-.74-.98,.25,.33,.5,.66,.74,.98Z"/><path class="cls-44" d="M168.63,688.05c-.08-.15-.16-.3-.25-.45,.08,.15,.16,.3,.25,.45Z"/><path class="cls-44" d="M210.8,690.56l-2.44,5.02c-.84,1.73-2,3.14-3.36,4.24h0c-1.06,3.09-3.03,7.77-7.08,14.76,.36,.16,.71,.3,1.01,.42,4.04-8.23,8.09-16.46,12.13-24.69-.08,.09-.17,.18-.26,.26Z"/><path class="cls-44" d="M161.33,661.96v0Z"/><path class="cls-44" d="M161.28,660.51v0Z"/><path class="cls-44" d="M175.46,698c-.12-.14-.23-.27-.35-.41,.11,.14,.23,.27,.35,.41Z"/><path class="cls-44" d="M161.3,661.21v0Z"/><path class="cls-44" d="M176.47,699.18h0c-.05-.05-.09-.11-.14-.16,.05,.05,.09,.11,.14,.16Z"/><path class="cls-44" d="M161.27,659.86v0Z"/><path class="cls-44" d="M172.97,694.86c-.2-.28-.41-.56-.61-.84,.2,.28,.4,.56,.61,.84Z"/><path class="cls-44" d="M164.99,680.03s.02,.05,.03,.08l-.03-.08h0Z"/><path class="cls-44" d="M163.57,675.67h0l-.03-.09s.02,.06,.02,.09Z"/><path class="cls-44" d="M163.27,674.58v0Z"/><path class="cls-44" d="M211.08,685.87c-2.83-2.36-5.46-5.03-7.85-7.98l-.93,.51c-.48,.26-1.01,.41-1.56,.46,2.07,1.79,4.48,3.5,7.09,5.36,1.51,1.08,3.85,2.65,3.91,4.42l.23-.46c.12-.85-.2-1.72-.88-2.3Z"/><path class="cls-44" d="M191.03,659.47c.67,2.21,1.25,4.13,1.77,5.79,.19-.15,.39-.3,.61-.41l1.47-.79c-.71-1.67-1.35-3.37-1.9-5.08-.27-.85-.97-1.47-1.8-1.69l-.77,.05c.15,.52,.36,1.26,.63,2.13Z"/><path class="cls-44" d="M205,699.81c1.36-1.09,2.52-2.51,3.36-4.24l2.44-5.02c-.46,.43-1.05,.84-1.72,1.34-2.46,1.86-2.91,4.5-4.08,7.91Z"/><path class="cls-44" d="M197.65,675.8c.9,1.06,1.94,2.07,3.08,3.05,.55-.05,1.08-.2,1.56-.46l.93-.51c-.77-.95-1.51-1.93-2.23-2.93l-.75,.41c-.78,.42-1.68,.55-2.59,.44Z"/><path class="cls-44" d="M195.45,667.88l.96-.52c-.55-1.09-1.06-2.19-1.54-3.31l-1.47,.79c-.22,.12-.42,.26-.61,.41,.47,1.49,.89,2.78,1.29,3.9,.34-.53,.79-.97,1.37-1.28Z"/><path class="cls-44" d="M196.42,667.36l-.96,.52c-.58,.31-1.03,.75-1.37,1.28,.79,2.22,1.49,3.78,2.28,4.95,.39,.58,.83,1.14,1.29,1.68,.91,.11,1.81-.02,2.59-.44l.75-.41c-.28-.39-.56-.78-.83-1.19-1.4-2.08-2.65-4.22-3.75-6.4Z"/><path class="cls-44" d="M189.13,699.65c-.38,.49-1.12,1.39-1.9,2.43-1.21,1.61-2.12,3.03-2.76,4.09l.02,.48c.82,.64,1.63,1.23,2.42,1.79,.99-.59,2.43-1.52,4.01-2.84,1.36-1.13,2.51-2.29,3.46-3.35-1.89-.42-3.7-1.28-5.26-2.61Z"/><path class="cls-44" d="M178.63,699.12c.6-.07,1.09-.12,1.7-.33,.99-.33,1.48-.78,1.56-.66,.1,.13-.57,.68-1.17,1.52-.63,.88-1.01,1.81-1.24,2.55,0,.04,.01,.08,.01,.11,1.02,.99,2.05,1.91,3.07,2.77l.13-.02c.54-.36,1.3-.9,2.17-1.59,2.08-1.66,3.56-3.26,4.18-3.9-.81-.7-1.55-1.53-2.2-2.48l-13.49-19.99c-.3-.45-.57-.91-.8-1.37-3.18,1.49-5.68,2.97-7.4,4.07-.05,.08-.1,.16-.16,.24l.03,.08c.16,.44,.33,.87,.5,1.31,.03,.08,.06,.15,.09,.23,.17,.43,.35,.86,.53,1.29,.03,.07,.06,.13,.08,.2,.43,.99,.89,2,1.4,3.01,.04,.08,.08,.16,.12,.24,.2,.4,.41,.81,.63,1.21,.08,.15,.16,.3,.25,.45,.19,.34,.38,.69,.58,1.03,.1,.17,.19,.34,.29,.5,.2,.35,.41,.69,.62,1.04,.09,.15,.18,.3,.28,.46,.31,.49,.62,.99,.95,1.48,.26,.39,.52,.76,.78,1.13,.08,.11,.15,.22,.23,.33,.2,.28,.4,.56,.61,.84,.07,.1,.14,.19,.21,.29,.25,.33,.5,.65,.74,.98,.11,.14,.22,.28,.34,.43,.15,.19,.3,.37,.44,.55,.13,.17,.27,.33,.4,.49,.11,.14,.23,.27,.35,.41,.29,.34,.58,.68,.88,1.01,.05,.05,.09,.11,.14,.16,.88,.05,1.61,0,2.16-.06Z"/><path class="cls-44" d="M205,699.81c-2.59,2.09-5.89,3.01-9.1,2.69-.14,.3-.27,.61-.41,.92-1.48,3.44-2.24,6.5-2.66,8.65v.04c1.9,1.03,3.56,1.8,4.88,2.37l.04,.02c.06,.03,.11,.05,.17,.07,4.05-6.98,6.03-11.66,7.08-14.75h0Z"/><path class="cls-44" d="M168.21,675.42c1.41-.18,2.71-.42,3.89-.67-.89-2.2-1.07-4.51-.68-6.69-3.11,.98-5.97,2.06-8.58,3.15-.1,.09-.2,.16-.31,.21,.21,1.01,.45,2.05,.73,3.12v.03c.1,.33,.19,.66,.28,.99l.03,.09c.06,.03,.12,.06,.17,.11,1.09-.03,2.63-.12,4.47-.36Z"/><path class="cls-44" d="M161.61,665.57c1.75,.33,3.66,.59,5.72,.75,1.56,.12,3.05,.16,4.49,.14,1.47-4.59,5.56-8.28,11.06-8.63l7.52-.48-.04-.13-29.09,1.98c0,.18,0,.37,0,.57v.09c0,.18,0,.36,0,.56v.09c0,.2,.01,.41,.02,.62v.08c.01,.23,.02,.46,.03,.71v.04c.05,1.06,.14,2.27,.28,3.61Z"/><path class="cls-44" d="M194.15,674.61h0c-.11-.23-.21-.46-.29-.68-.7-.65-1.31-1.44-1.75-2.35h0c-1.21-2.45-.89-5,.69-6.32-.52-1.66-1.1-3.57-1.77-5.79-.27-.88-.48-1.61-.63-2.13l-7.52,.48c-5.51,.35-9.59,4.05-11.06,8.63,3.04-.03,5.79-.31,8.16-.69-2.23,.49-4.58,1.09-7.02,1.82-.52,.16-1.03,.31-1.54,.47-.39,2.18-.2,4.49,.68,6.69,3.64-.78,5.99-1.69,6.05-1.54,.05,.15-2.49,1.08-5.32,2.39-.09,.04-.18,.09-.28,.13,.24,.46,.5,.92,.8,1.37l13.49,19.99c.65,.96,1.39,1.78,2.2,2.48,.2-.2,.31-.32,.33-.3,.02,.02-.08,.15-.25,.38,1.56,1.32,3.37,2.18,5.26,2.61,2.18-2.42,3.3-4.31,3.51-4.18,.19,.12-.88,1.97-2,4.42,3.21,.32,6.52-.6,9.1-2.69,1.17-3.41,1.62-6.05,4.08-7.91,.66-.5,1.26-.92,1.72-1.34l.94-1.93c-.07-1.77-2.4-3.34-3.91-4.42-2.61-1.86-5.02-3.57-7.09-5.36-2.4,.22-5.21-1.48-6.57-4.24Z"/><path class="cls-44" d="M197.65,675.8c-1.32-.16-2.67-.83-3.79-1.87,.09,.23,.18,.46,.29,.68h0c1.37,2.76,4.18,4.47,6.57,4.24-1.14-.98-2.17-1.99-3.08-3.05Z"/><path class="cls-44" d="M192.11,671.58h0c.45,.91,1.06,1.7,1.75,2.35-.67-1.77-.56-3.52,.23-4.76-.4-1.12-.82-2.41-1.29-3.9-1.59,1.32-1.91,3.86-.69,6.32Z"/><path class="cls-44" d="M193.86,673.93c1.12,1.05,2.48,1.71,3.79,1.87-.46-.55-.9-1.1-1.29-1.68-.79-1.17-1.49-2.73-2.28-4.95-.79,1.25-.9,3-.23,4.76Z"/><path class="cls-48" d="M214.92,663.62c-.53-1.67-3.15-5.29-7.7-6.41-3.16-.77-7.89-.5-9.78,2.26-.16,.23-1.18,1.71-.94,3.5,.04,.26,.14,.47,1.15,2.48,.82,1.63,1.75,3.24,2.8,4.8,.2,.3,.41,.59,.62,.89,.86,1.21,1.57,2.07,1.67,2.2,.15,.19,2.92,3.55,6.07,3.25,2.44-.23,4.66-2.61,5.46-5.82l.14-.3c.64-1.31,.93-2.66,.94-3.98,0,0,0-1.45-.44-2.86Z"/></g><path class="cls-43" d="M294.44,615.73c.12,.44,6.07-.4,11.79-3.01,1.23-.56,4.34-2.07,4.22-2.37-.27-.65-16.21,4.64-16,5.38Z"/></g><ellipse class="cls-24" cx="226.56" cy="652.77" rx="12.18" ry="14.86"/><ellipse class="cls-49" cx="313.24" cy="616.72" rx="5.69" ry="13.6" transform="translate(-306.28 309.06) rotate(-36.66)"/></g><path class="cls-33" d="M-35.14,547.56c159.58,170.18,438.87,167.27,491.54,166.72,164.36-1.71,407.73-58.13,491.54-178.25,7.65-10.97,24.6-37.69,46.31-36.7,47.71,2.18,104.45,137.55,84.2,217.05-61.81,242.7-951.54,398.03-1179.92,57.67-22.81-33.99-47.71-135.7-56.84-236.97-5.34-59.22-.41-78.75,10.53-83.88,25.68-12.04,78.58,58.06,112.62,94.37Z"/><g><path class="cls-43" d="M219.48,664.92c-.93-2.89-2.91-5.4-5.56-6.96-1.41-.83-3-1.38-4.73-1.59-.77-.09-1.55-.12-2.37-.07l-15.65,1c.84,.21,1.53,.83,1.8,1.69,.55,1.71,1.18,3.4,1.9,5.08,.47,1.11,.99,2.21,1.54,3.31,1.1,2.18,2.34,4.32,3.75,6.4,.27,.4,.55,.79,.83,1.19,.72,1.01,1.46,1.99,2.23,2.93,2.39,2.95,5.02,5.62,7.85,7.98,.69,.57,1,1.45,.88,2.3l6.86-14.11c.85-1.75,1.24-3.55,1.25-5.31,0-1.32-.2-2.6-.59-3.82Z"/><path class="cls-41" d="M163.55,675.58c-.09-.33-.19-.67-.27-.99,.09,.33,.18,.66,.27,.99Z"/><path class="cls-41" d="M166.15,682.94c-.18-.43-.36-.86-.53-1.29,.17,.43,.35,.86,.53,1.29Z"/><path class="cls-41" d="M161.28,660.42c0-.19,0-.38,0-.56,0,.18,0,.36,0,.56Z"/><path class="cls-41" d="M161.3,661.13c0-.21-.01-.42-.02-.62,0,.2,0,.41,.02,.62Z"/><path class="cls-41" d="M165.52,681.42c-.17-.44-.34-.88-.5-1.31,.16,.44,.33,.87,.5,1.31Z"/><path class="cls-41" d="M161.33,661.91c-.01-.24-.02-.48-.03-.71,0,.23,.02,.46,.03,.71Z"/><path class="cls-41" d="M175.11,697.6c-.14-.16-.27-.33-.4-.49,.13,.17,.27,.33,.4,.49Z"/><path class="cls-41" d="M173.18,695.15c-.07-.1-.14-.19-.21-.29,.07,.1,.14,.19,.21,.29Z"/><path class="cls-41" d="M161.27,659.77c0-.2,0-.39,0-.57,0,.18,0,.37,0,.57Z"/><path class="cls-41" d="M174.26,696.55c-.11-.14-.23-.28-.34-.43,.11,.14,.22,.28,.34,.43Z"/><path class="cls-41" d="M168.38,687.6c-.22-.4-.43-.81-.63-1.21,.2,.4,.41,.81,.63,1.21Z"/><path class="cls-41" d="M169.2,689.08c-.2-.34-.39-.69-.58-1.03,.19,.34,.38,.69,.58,1.03Z"/><path class="cls-41" d="M172.36,694.02c-.08-.11-.15-.22-.23-.33,.08,.11,.15,.22,.23,.33Z"/><path class="cls-41" d="M167.63,686.14c-.51-1.01-.97-2.01-1.4-3.01,.43,.99,.89,2,1.4,3.01Z"/><path class="cls-41" d="M170.12,690.62c-.21-.35-.42-.69-.62-1.04,.2,.35,.41,.69,.62,1.04Z"/><path class="cls-41" d="M171.35,692.56c-.33-.49-.65-.99-.95-1.48,.31,.49,.62,.99,.95,1.48Z"/><path class="cls-41" d="M176.33,699.02c-.29-.33-.59-.67-.88-1.01,.29,.34,.58,.68,.88,1.01Z"/><path class="cls-41" d="M172.55,675.73c-.16-.32-.31-.65-.45-.98-1.17,.25-2.48,.49-3.89,.67-1.84,.24-3.38,.32-4.47,.36-.05-.04-.11-.08-.17-.11,.4,1.41,.87,2.87,1.42,4.36,.06-.07,.11-.15,.16-.24,1.72-1.1,4.22-2.58,7.4-4.07Z"/><path class="cls-41" d="M192.83,712.07c.42-2.15,1.19-5.21,2.66-8.65,.14-.31,.27-.62,.41-.92-.51-.05-1.01-.13-1.51-.24-.95,1.06-2.1,2.21-3.46,3.35-1.58,1.32-3.02,2.25-4.01,2.84-.8-.56-1.61-1.16-2.42-1.79l-.02-.48c.64-1.06,1.55-2.48,2.76-4.09,.78-1.04,1.53-1.94,1.9-2.43-.03-.02-.06-.05-.08-.08-.63,.64-2.1,2.24-4.18,3.9-.87,.7-1.63,1.23-2.17,1.59l-.13,.02c-1.02-.86-2.04-1.78-3.07-2.77,0-.04,0-.08-.01-.11,.24-.75,.61-1.68,1.24-2.55,.61-.84,1.27-1.39,1.17-1.52-.08-.11-.57,.33-1.56,.66-.61,.21-1.1,.26-1.7,.33-.55,.06-1.28,.11-2.16,.06,8.13,9.11,17.09,13.52,21.23,15.3-1.32-.57-2.98-1.35-4.88-2.37v-.04Z"/><path class="cls-41" d="M162.84,671.21c2.6-1.1,5.47-2.17,8.58-3.15,.1-.54,.23-1.08,.4-1.61-1.43,.01-2.93-.02-4.49-.14-2.05-.16-3.97-.42-5.72-.75-.14-1.33-.23-2.54-.28-3.61,.14,3.13,.6,7.52,1.93,12.59-.28-1.07-.53-2.12-.73-3.12,.11-.05,.21-.12,.31-.21Z"/><path class="cls-41" d="M197.9,698.08c-.21-.13-1.33,1.76-3.51,4.18,.5,.11,1,.19,1.51,.24,1.11-2.44,2.19-4.3,2-4.42Z"/><path class="cls-41" d="M178.15,673.21c-.05-.15-2.41,.76-6.05,1.54,.13,.33,.28,.65,.45,.98,.09-.04,.18-.09,.28-.13,2.84-1.31,5.37-2.24,5.32-2.39Z"/><path class="cls-41" d="M189.04,699.57s.06,.05,.08,.08c.17-.22,.27-.36,.25-.38-.02-.02-.13,.09-.33,.3Z"/><path class="cls-41" d="M179.98,665.76c-2.38,.39-5.13,.66-8.16,.69-.17,.53-.3,1.06-.4,1.61,.51-.16,1.02-.32,1.54-.47,2.45-.73,4.79-1.33,7.02-1.82Z"/><path class="cls-44" d="M167.75,686.39c-.04-.08-.08-.16-.12-.24,.04,.08,.08,.16,.12,.24Z"/><path class="cls-44" d="M191.18,657.29c-.26-.07-.53-.1-.81-.08l.04,.13,.77-.05Z"/><path class="cls-44" d="M166.23,683.14c-.03-.07-.06-.13-.08-.2,.03,.07,.06,.13,.08,.2Z"/><path class="cls-44" d="M174.71,697.1c-.15-.18-.3-.37-.44-.55,.15,.19,.3,.37,.44,.55Z"/><path class="cls-44" d="M165.61,681.65c-.03-.08-.06-.15-.09-.23,.03,.08,.06,.15,.09,.23Z"/><path class="cls-44" d="M169.49,689.58c-.1-.17-.19-.34-.29-.5,.1,.17,.19,.34,.29,.5Z"/><path class="cls-44" d="M172.13,693.69c-.26-.37-.52-.75-.78-1.13,.26,.39,.52,.76,.78,1.13Z"/><path class="cls-44" d="M170.4,691.08c-.1-.15-.19-.3-.28-.46,.09,.15,.18,.3,.28,.46Z"/><path class="cls-44" d="M173.93,696.12c-.25-.32-.5-.65-.74-.98,.25,.33,.5,.66,.74,.98Z"/><path class="cls-44" d="M168.63,688.05c-.08-.15-.16-.3-.25-.45,.08,.15,.16,.3,.25,.45Z"/><path class="cls-44" d="M210.8,690.56l-2.44,5.02c-.84,1.73-2,3.14-3.36,4.24h0c-1.06,3.09-3.03,7.77-7.08,14.76,.36,.16,.71,.3,1.01,.42,4.04-8.23,8.09-16.46,12.13-24.69-.08,.09-.17,.18-.26,.26Z"/><path class="cls-44" d="M161.33,661.96v0Z"/><path class="cls-44" d="M161.28,660.51v0Z"/><path class="cls-44" d="M175.46,698c-.12-.14-.23-.27-.35-.41,.11,.14,.23,.27,.35,.41Z"/><path class="cls-44" d="M161.3,661.21v0Z"/><path class="cls-44" d="M176.47,699.18h0c-.05-.05-.09-.11-.14-.16,.05,.05,.09,.11,.14,.16Z"/><path class="cls-44" d="M161.27,659.86v0Z"/><path class="cls-44" d="M172.97,694.86c-.2-.28-.41-.56-.61-.84,.2,.28,.4,.56,.61,.84Z"/><path class="cls-44" d="M164.99,680.03s.02,.05,.03,.08l-.03-.08h0Z"/><path class="cls-44" d="M163.57,675.67h0l-.03-.09s.02,.06,.02,.09Z"/><path class="cls-44" d="M163.27,674.58v0Z"/><path class="cls-44" d="M211.08,685.87c-2.83-2.36-5.46-5.03-7.85-7.98l-.93,.51c-.48,.26-1.01,.41-1.56,.46,2.07,1.79,4.48,3.5,7.09,5.36,1.51,1.08,3.85,2.65,3.91,4.42l.23-.46c.12-.85-.2-1.72-.88-2.3Z"/><path class="cls-44" d="M191.03,659.47c.67,2.21,1.25,4.13,1.77,5.79,.19-.15,.39-.3,.61-.41l1.47-.79c-.71-1.67-1.35-3.37-1.9-5.08-.27-.85-.97-1.47-1.8-1.69l-.77,.05c.15,.52,.36,1.26,.63,2.13Z"/><path class="cls-44" d="M205,699.81c1.36-1.09,2.52-2.51,3.36-4.24l2.44-5.02c-.46,.43-1.05,.84-1.72,1.34-2.46,1.86-2.91,4.5-4.08,7.91Z"/><path class="cls-44" d="M197.65,675.8c.9,1.06,1.94,2.07,3.08,3.05,.55-.05,1.08-.2,1.56-.46l.93-.51c-.77-.95-1.51-1.93-2.23-2.93l-.75,.41c-.78,.42-1.68,.55-2.59,.44Z"/><path class="cls-44" d="M195.45,667.88l.96-.52c-.55-1.09-1.06-2.19-1.54-3.31l-1.47,.79c-.22,.12-.42,.26-.61,.41,.47,1.49,.89,2.78,1.29,3.9,.34-.53,.79-.97,1.37-1.28Z"/><path class="cls-44" d="M196.42,667.36l-.96,.52c-.58,.31-1.03,.75-1.37,1.28,.79,2.22,1.49,3.78,2.28,4.95,.39,.58,.83,1.14,1.29,1.68,.91,.11,1.81-.02,2.59-.44l.75-.41c-.28-.39-.56-.78-.83-1.19-1.4-2.08-2.65-4.22-3.75-6.4Z"/><path class="cls-44" d="M189.13,699.65c-.38,.49-1.12,1.39-1.9,2.43-1.21,1.61-2.12,3.03-2.76,4.09l.02,.48c.82,.64,1.63,1.23,2.42,1.79,.99-.59,2.43-1.52,4.01-2.84,1.36-1.13,2.51-2.29,3.46-3.35-1.89-.42-3.7-1.28-5.26-2.61Z"/><path class="cls-44" d="M178.63,699.12c.6-.07,1.09-.12,1.7-.33,.99-.33,1.48-.78,1.56-.66,.1,.13-.57,.68-1.17,1.52-.63,.88-1.01,1.81-1.24,2.55,0,.04,.01,.08,.01,.11,1.02,.99,2.05,1.91,3.07,2.77l.13-.02c.54-.36,1.3-.9,2.17-1.59,2.08-1.66,3.56-3.26,4.18-3.9-.81-.7-1.55-1.53-2.2-2.48l-13.49-19.99c-.3-.45-.57-.91-.8-1.37-3.18,1.49-5.68,2.97-7.4,4.07-.05,.08-.1,.16-.16,.24l.03,.08c.16,.44,.33,.87,.5,1.31,.03,.08,.06,.15,.09,.23,.17,.43,.35,.86,.53,1.29,.03,.07,.06,.13,.08,.2,.43,.99,.89,2,1.4,3.01,.04,.08,.08,.16,.12,.24,.2,.4,.41,.81,.63,1.21,.08,.15,.16,.3,.25,.45,.19,.34,.38,.69,.58,1.03,.1,.17,.19,.34,.29,.5,.2,.35,.41,.69,.62,1.04,.09,.15,.18,.3,.28,.46,.31,.49,.62,.99,.95,1.48,.26,.39,.52,.76,.78,1.13,.08,.11,.15,.22,.23,.33,.2,.28,.4,.56,.61,.84,.07,.1,.14,.19,.21,.29,.25,.33,.5,.65,.74,.98,.11,.14,.22,.28,.34,.43,.15,.19,.3,.37,.44,.55,.13,.17,.27,.33,.4,.49,.11,.14,.23,.27,.35,.41,.29,.34,.58,.68,.88,1.01,.05,.05,.09,.11,.14,.16,.88,.05,1.61,0,2.16-.06Z"/><path class="cls-44" d="M205,699.81c-2.59,2.09-5.89,3.01-9.1,2.69-.14,.3-.27,.61-.41,.92-1.48,3.44-2.24,6.5-2.66,8.65v.04c1.9,1.03,3.56,1.8,4.88,2.37l.04,.02c.06,.03,.11,.05,.17,.07,4.05-6.98,6.03-11.66,7.08-14.75h0Z"/><path class="cls-44" d="M168.21,675.42c1.41-.18,2.71-.42,3.89-.67-.89-2.2-1.07-4.51-.68-6.69-3.11,.98-5.97,2.06-8.58,3.15-.1,.09-.2,.16-.31,.21,.21,1.01,.45,2.05,.73,3.12v.03c.1,.33,.19,.66,.28,.99l.03,.09c.06,.03,.12,.06,.17,.11,1.09-.03,2.63-.12,4.47-.36Z"/><path class="cls-44" d="M161.61,665.57c1.75,.33,3.66,.59,5.72,.75,1.56,.12,3.05,.16,4.49,.14,1.47-4.59,5.56-8.28,11.06-8.63l7.52-.48-.04-.13-29.09,1.98c0,.18,0,.37,0,.57v.09c0,.18,0,.36,0,.56v.09c0,.2,.01,.41,.02,.62v.08c.01,.23,.02,.46,.03,.71v.04c.05,1.06,.14,2.27,.28,3.61Z"/><path class="cls-44" d="M194.15,674.61h0c-.11-.23-.21-.46-.29-.68-.7-.65-1.31-1.44-1.75-2.35h0c-1.21-2.45-.89-5,.69-6.32-.52-1.66-1.1-3.57-1.77-5.79-.27-.88-.48-1.61-.63-2.13l-7.52,.48c-5.51,.35-9.59,4.05-11.06,8.63,3.04-.03,5.79-.31,8.16-.69-2.23,.49-4.58,1.09-7.02,1.82-.52,.16-1.03,.31-1.54,.47-.39,2.18-.2,4.49,.68,6.69,3.64-.78,5.99-1.69,6.05-1.54,.05,.15-2.49,1.08-5.32,2.39-.09,.04-.18,.09-.28,.13,.24,.46,.5,.92,.8,1.37l13.49,19.99c.65,.96,1.39,1.78,2.2,2.48,.2-.2,.31-.32,.33-.3,.02,.02-.08,.15-.25,.38,1.56,1.32,3.37,2.18,5.26,2.61,2.18-2.42,3.3-4.31,3.51-4.18,.19,.12-.88,1.97-2,4.42,3.21,.32,6.52-.6,9.1-2.69,1.17-3.41,1.62-6.05,4.08-7.91,.66-.5,1.26-.92,1.72-1.34l.94-1.93c-.07-1.77-2.4-3.34-3.91-4.42-2.61-1.86-5.02-3.57-7.09-5.36-2.4,.22-5.21-1.48-6.57-4.24Z"/><path class="cls-44" d="M197.65,675.8c-1.32-.16-2.67-.83-3.79-1.87,.09,.23,.18,.46,.29,.68h0c1.37,2.76,4.18,4.47,6.57,4.24-1.14-.98-2.17-1.99-3.08-3.05Z"/><path class="cls-44" d="M192.11,671.58h0c.45,.91,1.06,1.7,1.75,2.35-.67-1.77-.56-3.52,.23-4.76-.4-1.12-.82-2.41-1.29-3.9-1.59,1.32-1.91,3.86-.69,6.32Z"/><path class="cls-44" d="M193.86,673.93c1.12,1.05,2.48,1.71,3.79,1.87-.46-.55-.9-1.1-1.29-1.68-.79-1.17-1.49-2.73-2.28-4.95-.79,1.25-.9,3-.23,4.76Z"/><path class="cls-48" d="M214.92,663.62c-.53-1.67-3.15-5.29-7.7-6.41-3.16-.77-7.89-.5-9.78,2.26-.16,.23-1.18,1.71-.94,3.5,.04,.26,.14,.47,1.15,2.48,.82,1.63,1.75,3.24,2.8,4.8,.2,.3,.41,.59,.62,.89,.86,1.21,1.57,2.07,1.67,2.2,.15,.19,2.92,3.55,6.07,3.25,2.44-.23,4.66-2.61,5.46-5.82l.14-.3c.64-1.31,.93-2.66,.94-3.98,0,0,0-1.45-.44-2.86Z"/></g><g><g><path class="cls-35" d="M348.1,690.94c-1.52-3.96-2.14-8.18-1.9-12.24,.11-1.87,1.73-3.29,3.6-3.17,1.65,.1,2.96,1.36,3.16,2.94,.5,3.11,1.65,6.01,3.31,8.49,1.4,2.1,.83,4.94-1.28,6.34-2.46,1.68-5.98,.46-6.9-2.35h0Z"/><path class="cls-16" d="M354.95,684.57c-2.82,.11-5.64,.22-8.45,.32-.11-.86-.22-1.73-.33-2.59h7.8c.33,.76,.65,1.51,.98,2.27Z"/><path class="cls-8" d="M353.4,682.63h-6.83c-1.02,0-1.73-.81-1.4-1.59l1.02-2.36c.1-.23,.37-.39,.68-.39h6.24c.3,0,.58,.16,.68,.39l1.02,2.36c.34,.78-.38,1.59-1.4,1.59Z"/><path class="cls-54" d="M363.72,669.71l-1.61-1.41c-.21-.26-.41-.54-.6-.86-.48-.79-.76-1.58-.93-2.29l-.21-1.95v-.59h.04c-.7-4.96-5-8.81-10.17-8.81s-9.47,3.85-10.17,8.81h.04v.59l-.21,1.95c-.17,.72-.46,1.51-.93,2.29-.19,.32-.4,.6-.6,.86-.45,.56-1.01,1.01-1.61,1.41-1.35,.9-2.23,2.44-2.21,4.19,.03,2.7,2.42,4.91,5.14,4.91h21.1c2.71,0,5.11-2.21,5.14-4.91,.02-1.75-.86-3.28-2.21-4.19Z"/><path class="cls-40" d="M363.72,669.71c-.54-.47-1.07-.94-1.61-1.41-.21-.26-.41-.54-.6-.86-.48-.79-.76-1.58-.93-2.29-.07-.65-.14-1.3-.21-1.95v-.59h.04c-.66-4.71-4.58-8.42-9.39-8.78,1.18,1.43,1.99,3.17,2.26,5.08h-.04v.59c.07,.65,.14,1.3,.21,1.95,.17,.72,.46,1.51,.93,2.29,.19,.32,.4,.6,.6,.86,.54,.47,1.07,.94,1.61,1.41,1.35,.9,2.23,2.44,2.21,4.19-.03,2.7-2.42,4.91-5.14,4.91h-18.93c.61,2.12,2.66,3.69,4.95,3.69h21.1c2.71,0,5.11-2.21,5.14-4.91,.02-1.75-.86-3.28-2.21-4.19Z"/><path class="cls-38" d="M345.16,673.15c-.8,.61-1.66,1.28-2.62,.44-1.1-.95-1.25-2.21-.74-3.55,.45-.13,.9-.25,1.35-.38,.75-.22,1.49-.37,2.09,.31,.59,.66,.47,1.38,.14,2.1-.16,.34-.33,.68-.22,1.08Z"/><path class="cls-38" d="M353.84,674.21c-.23-1.3,.22-2.14,1.57-2.53,1.55-.45,1.96-.22,2.16,1.48,.15,2.22-.98,2.61-2.59,1.56-.34-.22-.76-.34-1.14-.51Z"/></g><path class="cls-38" d="M355.87,662.5c.09,.89,.39,1.74,.31,2.66-.14,1.48-1,2.11-2.41,1.66-.81-.26-1.62-.54-2.39-.89-.94-.42-1.45-1.18-1.49-2.22-.02-.61-.07-1.22-.1-1.83,.52-1.71,1.3-2.07,2.91-1.36,1.16,.51,2.19,1.21,3.18,1.99Z"/><path class="cls-38" d="M342.09,661.18c-.07-1.01,.27-1.71,1.46-1.7,1.05,0,1.67,.81,1.7,2.14,.02,.94-.31,1.56-1.35,1.55-1.19,0-1.82-.7-1.81-1.99Z"/></g></g></svg>