<?xml version="1.0" encoding="UTF-8"?><svg id="Capa_1" xmlns="http://www.w3.org/2000/svg" viewBox="0 0 896.15 761.97"><defs><style>.cls-1{fill:#fff;}</style></defs><path class="cls-1" d="M657.44,247.33c-1.41-2.33-2.82-4.47-5.33-5.3-1.83-.61-3.82-.75-5.74-1.07-.38-.06-.78-.01-1.18-.01-128.32,0-256.63,0-384.95,.02-1.71,0-3.43,.16-5.12,.43-2.96,.47-5.07,2.18-6.48,4.81-.2,.37-.6,.64-.91,.95-.13-.44-.38-.87-.38-1.31-.03-3.83-.03-7.65-.01-11.48,0-2.61,1.64-4.21,4.32-4.21,1.37,0,2.74,.11,4.12,.12,132.54,0,265.07,0,397.61,0,4.25,0,4.63,.35,4.61,4.6-.01,3.58-.09,7.16-.18,10.73-.01,.58-.25,1.16-.38,1.74Z"/><path class="cls-1" d="M399.32,192.46c3.57,1.37,4.51,4.74,6.06,7.81,2.31,4.58,4.9,9.04,7.69,13.34,2.04,3.13,3.58,2.91,5.77-.2,3.64-5.18,6.1-10.94,8.28-16.84,3.35-9.05,6.77-18.07,10.09-27.13,.5-1.37,.74-2.85,.96-4.3,.43-2.91-.54-5.31-3.3-7.29,1.04-.23,1.76-.51,2.47-.52,4.27-.04,8.54,0,12.81-.04,1.62-.02,2.23,1.01,2.69,2.26,1.8,4.92,3.55,9.87,5.37,14.78,4.07,10.98,8.07,21.99,12.34,32.89,1.07,2.73,3.04,5.11,4.61,7.64,.33,.53,.71,1.03,1.24,1.8h-20.87c.53-.54,.92-.93,1.3-1.32,1.53-1.54,2.5-3.4,2.14-5.56-.36-2.15-.98-4.31-1.82-6.31-.31-.72-1.61-1.43-2.47-1.45-6.03-.12-12.07-.08-18.11-.05-1.4,0-2.42,.68-2.86,2.09-.36,1.17-.78,2.32-1.1,3.5-.9,3.31,.02,6.09,2.51,8.4,.24,.22,.42,.49,.83,.98-1.01,.05-1.77,.11-2.53,.11-10.06,.03-20.12,.05-30.18,.07-2.82,0-3.24-.34-4.32-3.01-1.89-4.68-3.95-9.29-5.69-14.02-1.54-4.2-4.49-5.98-8.77-5.98-1.62,0-3.24-.05-4.86,0-1.73,.06-2.41,.74-2.32,2.48,.22,4.2,.34,8.43,.91,12.59,.23,1.67,1.49,3.22,2.4,4.76,.53,.9,1.29,1.67,2.16,2.77h-21.53c.36-.39,.51-.62,.72-.77,2.94-2.11,4.26-5.12,4.4-8.59,.17-4.12,.1-8.24,.1-12.36,.01-8.34-.11-16.69,.05-25.03,.08-4.01-1.13-7.3-4.09-9.95-.58-.52-1.23-.96-1.85-1.44l.24-.58c.67-.11,1.34-.33,2.01-.33,10.54,.14,21.09,.23,31.63,.52,2.21,.06,4.47,.66,6.59,1.37,4.59,1.54,7.34,4.88,8.03,9.63,.46,3.18,.75,6.45,.52,9.63-.43,5.88-3.79,9.93-8.94,12.59-.39,.2-.78,.41-1.16,.64-.06,.04-.07,.17-.17,.42Zm-15.68-6.36l.03,.33c3.1-.34,6.24-.5,9.3-1.09,2.79-.54,4.67-2.53,5-5.33,.32-2.68,.33-5.49-.09-8.14-.63-3.93-2.34-5.35-6.34-5.68-3.85-.32-7.72-.4-11.58-.52-1.88-.06-2.74,.71-2.77,2.63-.07,5.58-.02,11.16-.03,16.74,0,.84,.4,1.09,1.18,1.08,1.76-.03,3.53-.01,5.29-.01Zm70.14,7.49c-2.68-7.71-5.28-15.17-7.88-22.63l-.35,.02c-2.62,7.49-5.25,14.98-7.92,22.61h16.15Z"/><path class="cls-1" d="M587.16,170.89c6.33,3.13,8.05,8.59,8.01,14.95-.04,5.59-.09,11.18-.22,16.77-.08,3.47-1.37,6.49-3.88,9.11,1.58,1.9,2.11,4.14,1.67,6.56-.09,.46-.69,1.15-1.08,1.17-1.5,.07-3.05,.1-4.49-.23-1.83-.41-2.83-1.81-3.17-3.83-8.81,1.77-17.57,1.77-26.29-.01-.78,3.84-3.79,4.83-7.56,4.39-.47-.05-1.14-.91-1.22-1.47-.35-2.34-.13-4.61,1.81-6.47-3.25-3.08-4.01-6.98-4.23-11.07-.1-1.81-.26-3.62-.24-5.43,.04-4.07-.04-8.15,.31-12.2,.46-5.31,2.61-9.74,7.79-12.13-1.27-1.21-2.7-2.19-3.61-3.53-1.16-1.7-1.96-3.67-2.79-5.57-.46-1.04,.1-1.72,1.11-2.19,4.32-2.01,8.91-3.03,13.61-3.52,8.02-.85,15.97-.49,23.72,1.92,2.09,.65,4.07,1.67,6.07,2.56,1.09,.48,1.27,1.33,.91,2.44-.92,2.82-2.75,4.93-4.98,6.78-.37,.31-.75,.61-1.22,.99Zm-16.43-11.56c-5.26,0-10.32,1.11-14.99,3.77-.38,.22-.61,.68-.92,1.03,.4,.29,.77,.75,1.22,.85,1.96,.42,3.93,.81,5.92,1.07,7.65,.99,15.24,.63,22.72-1.35,.54-.14,1-.61,1.5-.92-.45-.4-.84-.91-1.36-1.18-4.38-2.31-9.09-3.25-14.09-3.26Z"/><path class="cls-1" d="M351.67,111.57c.18-6.32,.31-12.1,.52-17.89,.19-5.37,3.69-9.94,9.18-11.52,9.54-2.74,19.19-2.83,28.76-.23,6.79,1.85,10.24,6.83,10.39,14.45,.1,5.64,.07,11.28,.08,16.92,0,3.63,.01,7.25,0,10.88-.04,10.24-3.91,15.16-13.9,17.08-7.93,1.52-15.92,1.35-23.79-.58-7.14-1.75-10.52-6.11-10.74-13.48-.16-5.39-.34-10.78-.5-15.64Zm11.89-.56c0,5-.04,10,.01,15,.04,3.8,1.88,6.14,5.64,6.48,4.13,.37,8.32,.49,12.46,.29,3.96-.19,6.18-2.14,6.99-5.42,.28-1.13,.46-2.32,.47-3.49,.07-5.49,.14-10.98,.08-16.47-.05-4.06-.11-8.14-.52-12.17-.32-3.13-2.57-5.22-5.72-5.36-4.54-.21-9.1-.22-13.63,0-3.74,.18-5.73,2.51-5.77,6.3-.06,4.95-.01,9.9-.01,14.85Z"/><path class="cls-1" d="M497.04,111.31c0-5.49-.08-10.98,.02-16.47,.12-6.72,3.54-11.16,10.12-12.91,9.38-2.5,18.81-2.52,28.18,.12,5.76,1.62,9.1,5.62,9.75,11.44,.52,4.66,.26,9.4,.51,14.09,.34,6.56,.04,13.09-.43,19.63-.56,7.75-3.94,11.92-11.57,13.67-8.64,1.98-17.33,1.89-25.94-.22-6.89-1.69-10.54-6.37-10.64-13.46-.07-5.29-.01-10.59-.01-15.88Zm37.11,.01h.13c0-1.76,.05-3.53-.01-5.29-.11-3.37-.1-6.77-.48-10.11-.4-3.51-2.34-5.46-5.81-6.12-4.46-.85-8.98-.84-13.44-.05-3.99,.71-5.81,2.83-6.26,6.87-.17,1.51-.25,3.03-.26,4.55-.03,6.86-.02,13.72,0,20.58,0,1.22,.09,2.45,.25,3.66,.62,4.61,2.43,6.85,6.7,7.25,3.98,.37,8.02,.32,12.01,.07,3.41-.21,5.9-2.03,6.72-5.57,.24-1.04,.41-2.13,.42-3.2,.05-4.21,.02-8.43,.02-12.65Z"/><path class="cls-1" d="M479.36,216.31c.34-.19,.67-.38,1.01-.56,2.95-1.57,4.62-4.05,5.06-7.32,.22-1.65,.34-3.32,.35-4.98,.03-10.65,.05-21.3-.02-31.95-.01-2.14-.32-4.3-.7-6.41-.5-2.78-2.2-4.75-4.69-6.06-.38-.2-.75-.42-1.46-.82,.96-.24,1.59-.54,2.21-.54,7.9,.04,15.8,.1,23.69,.19,2.65,.03,5.32-.07,7.93,.25,3.34,.41,6.74,.83,9.91,1.87,5.75,1.88,8.47,6.33,9.08,12.2,.99,9.54,1.06,19.09,.36,28.65-.31,4.17-1.52,8.09-4.71,11.12-2.76,2.62-6.14,3.89-9.81,4.24-4.68,.45-9.38,.75-14.08,.84-7.36,.14-14.72,.04-22.08,.02-.69,0-1.38-.19-2.07-.29v-.44Zm17.4-29.27c0,.74,0,1.47,0,2.21,0,5.79,0,11.58,0,17.37,0,.67-.15,1.45,.94,1.43,5.15-.09,10.31,.03,15.43-.32,4.9-.34,7.58-3.33,7.64-8.22,.1-8.09,.1-16.17,0-24.26-.06-4.63-2.65-7.7-7.23-8.21-5.06-.57-10.17-.65-15.25-1-1.24-.08-1.57,.36-1.56,1.57,.05,6.48,.03,12.96,.02,19.43Z"/><path class="cls-1" d="M570.15,99.63c-.06,.56-.17,1.12-.16,1.68,.14,9.22,.29,18.44,.47,27.65,.03,1.51,.15,3.05,.43,4.53,.52,2.79,2.03,4.96,4.51,6.4,.23,.13,.43,.32,.89,.67h-21.14c.66-.56,1-1,1.44-1.21,2.78-1.26,4.2-3.47,4.48-6.42,.23-2.49,.43-4.99,.44-7.48,.05-10.55,.02-21.09,.02-31.64,0-.93-.03-1.87-.12-2.79-.36-3.8-2.03-6.71-5.68-8.26-.22-.1-.44-.21-.65-.34-.07-.04-.09-.16-.27-.46,.54-.12,1-.31,1.47-.31,4.41,0,8.83,.11,13.24,.03,1.52-.03,2.36,.64,3.08,1.79,3.27,5.18,6.57,10.35,9.85,15.53,4.98,7.87,9.95,15.75,14.93,23.63,.33,.52,.7,1,1.37,1.41,.05-.71,.16-1.43,.15-2.14-.15-9.56-.3-19.12-.5-28.68-.03-1.41-.18-2.85-.48-4.23-.59-2.75-2.21-4.76-4.77-5.99-.42-.2-.82-.43-1.31-.68,1.01-.69,19.52-.89,21.47-.3-.22,.28-.37,.63-.62,.76-3.93,1.97-5.21,5.48-5.23,9.51-.07,13.35-.03,26.69-.03,40.04,0,2.4,0,4.8,0,7.2,0,1.19-.63,1.81-1.79,1.9-1.37,.11-2.74,.33-4.1,.29-3.47-.1-5.56-2.25-7.28-5.01-3.98-6.41-8.01-12.8-12.06-19.17-3.44-5.42-6.93-10.81-10.41-16.21-.39-.61-.82-1.19-1.23-1.78l-.41,.08Z"/><path class="cls-1" d="M316.26,157.33c3.95,0,7.58,0,11.2,0,1.13,0,2.26,.13,3.38,.02,1.54-.15,2.22,.67,2.68,1.95,1.6,4.42,3.22,8.83,4.85,13.24,4.07,11.02,8.02,22.1,12.3,33.04,1.28,3.28,3.5,6.2,5.3,9.28,.31,.53,.64,1.04,1.08,1.75h-20.31c.16-.27,.22-.46,.34-.56,2.96-2.6,3.33-5.78,2.21-9.37-1.44-4.65-1.49-4.74-6.28-4.73-5.1,.01-10.2,.06-15.3,.06-1.59,0-2.61,.76-3.1,2.2-.49,1.43-.96,2.88-1.27,4.36-.53,2.52,.17,4.75,1.9,6.66,.38,.42,.78,.82,1.4,1.48h-18.82c.06-.23,.05-.45,.15-.58,6.56-8.99,10.35-19.28,13.95-29.67,1.99-5.74,3.93-11.5,6.25-17.11,1.61-3.89,1.41-7.3-1.07-10.64-.25-.34-.44-.73-.83-1.38Zm10.57,13.7l-.38-.02c-2.63,7.47-5.26,14.94-7.94,22.54h16.18c-2.67-7.64-5.26-15.08-7.86-22.52Z"/><path class="cls-1" d="M628.49,193.99c-.67,1-1.26,1.87-1.84,2.76-2.33,3.57-4.66,7.14-6.99,10.71-1.95,3-2.48,5.96,.22,8.85,.05,.05,.01,.18,.02,.41h-18.73c.05-.24,.03-.41,.11-.5,6.11-7.91,12.22-15.82,18.33-23.73,.96-1.24,1.88-2.51,2.8-3.79,.73-1.02,.81-2.13,.12-3.17-5.04-7.65-10.08-15.31-15.2-22.91-1.08-1.6-2.52-2.97-3.99-4.67h19.42c-.12,.31-.18,.63-.35,.89-1.23,1.86-1.63,3.91-.53,5.85,2.97,5.27,6.11,10.46,9.29,15.87,.39-.42,.54-.53,.62-.67,2.55-4.69,5.06-9.4,7.67-14.07,.98-1.76,1.12-3.49,.43-5.35-.28-.76-.41-1.58-.65-2.53,.61-.05,1.03-.12,1.46-.12,5,0,10.01-.02,15.01,.02,.56,0,1.11,.38,1.66,.58-.34,.43-.59,.99-1.03,1.27-3.4,2.18-5.17,5.73-7.4,8.86-3.84,5.39-7.49,10.91-11.27,16.34-.97,1.39-1.06,2.67-.12,4.06,6.07,9.03,11.61,18.42,18.59,26.81,.24,.29,.41,.64,.72,1.12h-19.42c-.04-.1-.09-.16-.08-.18,2.4-3.33,1.16-6.38-.7-9.41-2.51-4.1-4.96-8.22-7.45-12.33-.17-.28-.4-.53-.74-.96Z"/><path class="cls-1" d="M264.47,194.33c.54,5.55,.89,10.93,1.71,16.24,.23,1.49,1.82,2.8,2.89,4.11,.47,.58,1.19,.96,1.8,1.43l-.37,.49h-22.68c.27-.25,.38-.4,.52-.48,4.22-2.29,5.86-6.07,5.88-10.62,.06-12.12,.06-24.24,0-36.35-.02-4.43-1.53-8.18-5.78-10.32-.16-.08-.26-.26-.59-.61,.64-.19,1.1-.46,1.56-.45,12.25,.36,24.5,.62,36.74,1.2,5.61,.27,9.18,3.44,10.47,8.93,1.32,5.57,1.16,11.24-.51,16.72-1.61,5.29-5.66,7.94-10.95,8.44-6,.57-12.03,.72-18.05,1.06-.73,.04-1.45,.13-2.64,.23Zm.76-29.08c0,6.89,0,13.45,.03,20,0,.28,.48,.81,.73,.8,4.6-.09,9.22-.02,13.79-.45,3.43-.33,5.68-2.63,5.99-6.1,.25-2.75,.12-5.59-.3-8.32-.41-2.69-2.27-4.58-5.04-4.86-4.96-.51-9.96-.72-15.2-1.07Z"/><path class="cls-1" d="M313.56,140.48h-23.03c.59-.6,.86-1.07,1.27-1.26,2.68-1.27,3.85-3.56,4.23-6.31,.27-1.94,.44-3.9,.45-5.86,.04-10.6,.02-21.19,.02-31.79,0-7.27-.76-8.84-6.7-13.4,1.19-.13,2.12-.33,3.04-.33,9.27,.05,18.54,.02,27.81,.25,3.16,.08,6.35,.61,9.45,1.28,5.71,1.24,9.1,5.47,9.33,11.98,.15,3.99-.13,8.04-.65,12.01-.7,5.25-4.07,8.36-9.28,9.21-6.88,1.11-13.77,2.11-20.77,1.69-1.18-.07-1.69,.28-1.61,1.56,.27,4.11,.54,8.22,.65,12.33,.09,3.25,1.46,5.62,4.28,7.19,.58,.32,1.11,.72,1.67,1.08l-.17,.36Zm-6.02-50.96v1.53c0,5.25,0,10.5,0,15.75,0,2.89,0,3.01,2.92,2.99,4.06-.03,8.14-.08,12.17-.49,2.82-.29,4.63-2.19,5.29-5.03,.78-3.32,.61-6.65-.24-9.9-.6-2.3-2.24-3.83-4.67-4.14-2.62-.34-5.26-.57-7.9-.69-2.43-.11-4.88-.02-7.56-.02Z"/><path class="cls-1" d="M408.97,94.38c1.16-3.89,2.28-7.79,3.51-11.66,.14-.44,.79-.85,1.29-1,.69-.2,1.45-.19,2.19-.19,11.63,0,23.26,0,34.89,0,4.83,0,4.89,.06,6.18,4.76,.6,2.17,1.23,4.34,1.83,6.51,.12,.45,.18,.92,.37,1.93-6.1-3.83-12.29-5.66-19.29-4.74-.09,.9-.29,1.9-.29,2.9-.02,11.87-.1,23.75,.06,35.62,.03,2.54,.88,5.09,1.57,7.57,.24,.86,1.09,1.6,1.77,2.27,.72,.71,1.59,1.28,2.71,2.15h-22.3c.13-.18,.23-.44,.4-.54,3.05-1.75,4.35-4.54,4.7-7.88,.14-1.36,.21-2.74,.21-4.11,.02-10.8,0-21.59,0-32.39,0-1.22,.06-2.45-.03-3.66-.1-1.4-.95-2.07-2.35-2.11-5.69-.14-11.2,.35-15.75,4.37-.35,.31-.91,.37-1.38,.54l-.29-.35Z"/><path class="cls-1" d="M471.55,107.44h10.45c0,1.07,0,2.04,0,3.01,.04,6.32,.04,12.65,.13,18.97,.06,4.01-1.63,7.17-4.47,9.85-.64,.61-1.1,.57-1.74,0-3.03-2.72-4.51-6.1-4.49-10.15,.02-5.1,.08-10.19,.11-15.29,.01-2.09,0-4.19,0-6.39Z"/><path class="cls-1" d="M465.56,92.71h22.44c-.44,.47-.67,.9-1.04,1.09-3.59,1.84-4.75,5.01-4.84,8.76-.07,2.93-.05,2.93-3.01,2.93-2.11,0-4.22-.04-6.33,.01-1.03,.03-1.34-.37-1.38-1.37-.06-1.56-.19-3.13-.52-4.65-.55-2.59-2.12-4.47-4.46-5.71-.33-.17-.63-.4-.94-.6l.08-.46Z"/><path class="cls-1" d="M472.06,90.59c0-1.86-.1-3.48,.02-5.08,.19-2.37,2-3.84,4.54-3.87,2.74-.04,4.54,1.28,4.82,3.7,.16,1.4,.16,2.84,.09,4.25-.02,.35-.59,.95-.92,.96-2.78,.08-5.57,.04-8.55,.04Z"/></svg>