<?xml version="1.0" encoding="UTF-8"?><svg id="Capa_1" xmlns="http://www.w3.org/2000/svg" viewBox="0 0 896.15 761.97"><defs><style>.cls-1{fill:#4d3534;}.cls-2{fill:#323d44;}.cls-3{fill:#3d4c45;}.cls-4{fill:#426761;}.cls-5{fill:#547a54;}</style></defs><g><polygon class="cls-1" points="112.17 677.2 14.91 677.2 28.9 638.52 33.03 627.09 63.54 542.65 94.35 627.91 96.77 634.61 112.17 677.2"/><g><g><polygon class="cls-4" points="172.25 612.74 -64.03 612.74 -26.62 560.89 -20.74 552.73 -15.68 545.71 51.8 452.14 54.12 448.92 86.23 493.46 128.24 551.73 130.02 554.19 138.28 565.65 172.25 612.74"/><polygon class="cls-2" points="136.84 554.19 104.94 554.19 91.46 526.64 65.19 554.19 51.83 554.19 29.49 536.55 29.11 540.97 29.2 541.26 27.64 559.53 9.03 566.37 2.4 544.79 1.53 542 -15.68 545.71 51.8 452.14 86.23 493.46 126.38 541.64 136.84 554.19"/></g><g><polygon class="cls-4" points="-38.87 523.14 -6.06 478.73 54.8 396.34 106.76 483.41 137.61 535.09 103.69 533.43 91.45 507.72 63.98 531.5 50.63 530.84 29.11 513.72 28.53 517.71 28.61 517.99 26.23 534.53 7.34 539.85 1.68 519.89 .94 517.31 -38.87 523.14"/><path class="cls-2" d="M1.3,484.13l19.43-16.81-1.04,11.84,17.26,.84,11.18-21.26c4.96,10.51,9.93,21.02,14.89,31.53l12.2-5.67c1.76-5.34,3.53-10.69,5.29-16.03,3.79,4.7,7.57,9.41,11.36,14.11l14.91,.73-51.97-87.08L-6.06,478.73l7.36,5.41h0Z"/></g><g><path class="cls-4" d="M1.63,466.58l20.53-15.47-1.85,11.75,17.16,2,12.59-20.46,8.9,22.97,.14,.02,3.68,9.48,12.56-4.84-.1-24.89,16.83,24.09,15.04,1.76-19.74-38.83-4.75-9.34-23.83-46.87-30.56,35.99-9.61,11.31-22.47,26.47-.02,.02-5.06,5.95,10.55,8.89h0Z"/><path class="cls-2" d="M28.23,413.93l-5.22-.61,6.91-13.28c.76,.2,1.61,.2,2.53-.09,4.06-1.25,6.1-4.32,8.01-7.9,1.45-2.71,3.16-5.25,4.86-7.8,1.13-.03,2.25-.38,3.2-1.14,4.59-3.71,7.95-8.51,12.2-12.54,2.73-2.59,5.91-4.16,9.18-5.65l7.71,30.69,12.22,25.8-7.21,3.4,4.75,9.34-8.99,4.23c-4.27-5.94-8.55-11.89-12.82-17.83-2.14,2.99-4.28,5.98-6.42,8.97-5.77-3.07-11.55-6.14-17.32-9.21l-14.28,5.98-8.92-1.04,9.61-11.31h0Z"/></g><path class="cls-4" d="M21.1,409.93l10.47,2.24,14.78-4.59,8.82-10.09,3.28,21c2.83-3.01,5.65-6.02,8.48-9.02l14.09,19.57,2.9-1.03,7.5-2.7,6.17-2.21-13.25-36.71-7.28-48.09c-.63-4.13-6.05-5.3-8.33-1.79l-47.63,73.42h0Z"/></g></g><g><polygon class="cls-1" points="817.5 655.33 819.92 647.22 850.73 544.08 881.25 646.23 885.38 660.06 899.36 706.85 802.1 706.85 817.5 655.33"/><g><polygon class="cls-4" points="951.23 621.6 714.95 621.6 748.92 574.51 757.18 563.05 758.95 560.59 801.03 502.24 833.09 457.78 835.41 461 902.87 554.57 907.93 561.59 913.82 569.75 951.23 621.6"/><polygon class="cls-2" points="902.87 554.57 885.67 550.86 884.79 553.65 878.16 575.23 859.56 568.39 857.99 550.12 858.08 549.82 857.7 545.41 835.37 563.05 822 563.05 795.73 535.5 782.25 563.05 750.35 563.05 760.81 550.49 801.03 502.24 835.41 461 902.87 554.57"/></g><g><polygon class="cls-4" points="926.06 532 893.26 487.59 832.4 405.2 780.43 492.27 749.58 543.95 783.51 542.29 795.74 516.58 823.21 540.36 836.56 539.7 858.08 522.57 858.66 526.57 858.58 526.85 860.96 543.39 879.85 548.71 885.51 528.75 886.26 526.17 926.06 532"/><path class="cls-2" d="M885.89,492.99l-19.43-16.81,1.04,11.84-17.26,.84-11.18-21.26c-4.96,10.51-9.93,21.02-14.89,31.53l-12.2-5.67c-1.76-5.34-3.53-10.69-5.29-16.03-3.79,4.7-7.57,9.41-11.36,14.11l-14.91,.73,51.97-87.08,60.86,82.39-7.36,5.41h.01Z"/></g><g><path class="cls-4" d="M885.57,475.44l-20.53-15.47,1.85,11.75-17.16,2-12.59-20.46-8.9,22.97-.14,.02-3.68,9.48-12.56-4.84,.1-24.89-16.83,24.09-15.04,1.76,19.74-38.83,4.75-9.34,23.83-46.87,30.56,35.99,9.61,11.31,22.47,26.47,.02,.02,5.06,5.95-10.55,8.89h0Z"/><path class="cls-2" d="M858.96,422.79l5.22-.61-6.91-13.28c-.76,.2-1.61,.2-2.53-.09-4.06-1.25-6.1-4.32-8.01-7.9-1.45-2.71-3.16-5.25-4.86-7.8-1.13-.03-2.25-.38-3.2-1.14-4.59-3.71-7.95-8.51-12.2-12.54-2.73-2.59-5.91-4.16-9.18-5.65l-7.71,30.69-12.22,25.8,7.21,3.4-4.75,9.34,8.99,4.23c4.27-5.94,8.55-11.89,12.82-17.83,2.14,2.99,4.28,5.98,6.42,8.97,5.77-3.07,11.55-6.14,17.32-9.21l14.28,5.98,8.92-1.04-9.61-11.31h0Z"/></g><path class="cls-4" d="M866.1,418.79l-10.47,2.24-14.78-4.59-8.82-10.09-3.28,21c-2.83-3.01-5.65-6.02-8.48-9.02l-14.09,19.57-2.9-1.03-7.5-2.7-6.17-2.21,13.25-36.71,7.28-48.09c.63-4.13,6.05-5.3,8.33-1.79l47.63,73.42h0Z"/></g><g><polygon class="cls-1" points="805.29 705.42 708.03 705.42 722.01 658.62 726.14 644.8 756.66 542.65 787.47 645.79 789.89 653.89 805.29 705.42"/><g><polygon class="cls-5" points="873.27 653.54 626.98 653.54 662.39 614.86 672.85 603.43 750.12 518.99 828.15 604.25 834.28 610.95 873.27 653.54"/><polygon class="cls-3" points="834.28 610.95 797.7 603.76 796.83 606.3 790.19 625.96 771.59 619.73 770.03 603.09 770.12 602.82 769.74 598.8 747.4 614.86 734.04 614.86 707.77 589.77 694.29 614.86 662.39 614.86 672.85 603.43 750.12 518.99 828.15 604.25 834.28 610.95"/></g><g><polygon class="cls-5" points="838.09 593.22 805.29 548.81 744.43 466.41 692.46 553.49 661.61 605.17 695.54 603.51 707.77 577.8 735.24 601.57 748.59 600.92 770.12 583.79 770.69 587.79 770.61 588.07 772.99 604.61 791.88 609.92 797.54 589.96 798.29 587.38 838.09 593.22"/><path class="cls-3" d="M797.92,554.21l-19.43-16.81,1.04,11.84-17.26,.84-11.18-21.26c-4.96,10.51-9.93,21.02-14.89,31.53l-12.2-5.67c-1.76-5.34-3.53-10.69-5.29-16.03-3.79,4.7-7.57,9.41-11.36,14.11l-14.91,.73,51.97-87.08,60.86,82.39-7.36,5.41h0Z"/></g><g><path class="cls-5" d="M797.6,536.65l-20.53-15.47,1.85,11.75-17.16,2-12.59-20.46-8.9,22.97-.14,.02-3.68,9.48-12.56-4.84,.1-24.89-16.83,24.09-15.04,1.76,19.74-38.83,4.75-9.34,23.83-46.87,30.56,35.99,9.61,11.31,22.47,26.47,.02,.02,5.06,5.95-10.55,8.89h0Z"/><path class="cls-3" d="M770.99,484.01l5.22-.61-10.78-20.7c-1.86,.82-3.94,.68-5.59-.9-3.14-3.03-4.73-6.73-6.38-10.68-1.85-4.43-3.92-7.32-7.89-10.09-4.54-3.17-11.91-7.95-14.3-13.86l-9.67,38.53-12.22,25.8,7.21,3.4-4.75,9.34,8.99,4.23c4.27-5.94,8.55-11.89,12.82-17.83,2.14,2.99,4.28,5.98,6.42,8.97,5.77-3.07,11.55-6.14,17.32-9.21l14.28,5.98,8.92-1.04-9.61-11.31v-.02Z"/></g><path class="cls-5" d="M778.13,480.01l-10.47,2.24-14.78-4.59-8.82-10.09-3.28,21c-2.83-3.01-5.65-6.02-8.48-9.02l-14.09,19.57-2.9-1.03-7.5-2.7-6.17-2.21,13.25-36.71,7.28-48.09c.63-4.13,6.05-5.3,8.33-1.79l47.63,73.42Z"/></g><g><polygon class="cls-1" points="213.26 717.73 116 717.73 129.98 670.94 134.11 657.11 164.63 554.97 195.44 658.11 197.86 666.21 213.26 717.73"/><g><polygon class="cls-5" points="78.69 608.95 84.82 602.25 162.85 516.99 240.12 601.43 250.58 612.86 285.99 651.54 39.7 651.54 78.69 608.95"/><polygon class="cls-3" points="84.82 602.25 162.85 516.99 240.12 601.43 250.58 612.86 218.68 612.86 205.2 587.77 178.93 612.86 165.57 612.86 143.23 596.8 142.85 600.82 142.94 601.09 141.38 617.73 122.78 623.96 116.14 604.3 115.27 601.76 78.69 608.95 84.82 602.25"/></g><g><polygon class="cls-5" points="114.68 585.38 115.43 587.96 121.09 607.92 139.98 602.61 142.36 586.07 142.28 585.79 142.85 581.79 164.38 598.92 177.73 599.57 205.2 575.8 217.43 601.51 251.36 603.17 220.51 551.49 168.54 464.41 107.68 546.81 74.88 591.22 114.68 585.38"/><path class="cls-3" d="M115.06,552.21l-7.36-5.41,60.86-82.39,51.97,87.08-14.91-.73c-3.79-4.7-7.57-9.41-11.36-14.11-1.76,5.34-3.53,10.69-5.29,16.03l-12.2,5.67c-4.96-10.51-9.93-21.02-14.89-31.53l-11.18,21.26-17.26-.84,1.04-11.84-19.43,16.81h0Z"/></g><g><path class="cls-5" d="M115.36,534.65l-10.55-8.89,5.06-5.95,.02-.02,22.47-26.47,9.61-11.31,30.56-35.99,23.83,46.87,4.75,9.34,19.74,38.83-15.04-1.76-16.83-24.09,.1,24.89-12.56,4.84-3.68-9.48-.14-.02-8.9-22.97-12.59,20.46-17.16-2,1.85-11.75-20.53,15.47h0Z"/><path class="cls-3" d="M141.99,482.03l-9.61,11.31,8.92,1.04,14.28-5.98c5.77,3.07,11.55,6.14,17.32,9.21,2.14-2.99,4.28-5.98,6.42-8.97,4.27,5.94,8.55,11.89,12.82,17.83l8.99-4.23-4.75-9.34,7.21-3.4-12.22-25.8-9.67-38.53c-2.39,5.91-9.76,10.69-14.3,13.86-3.97,2.77-6.04,5.66-7.89,10.09-1.65,3.95-3.24,7.65-6.38,10.68-1.65,1.58-3.73,1.72-5.59,.9l-10.78,20.7,5.22,.61v.02Z"/></g><path class="cls-5" d="M182.47,404.59c2.28-3.51,7.7-2.34,8.33,1.79l7.28,48.09,13.25,36.71-6.17,2.21-7.5,2.7-2.9,1.03-14.09-19.57c-2.83,3-5.65,6.01-8.48,9.02l-3.28-21-8.82,10.09-14.78,4.59-10.47-2.24,47.63-73.42Z"/></g></svg>