<?xml version="1.0" encoding="UTF-8"?><svg id="Capa_1" xmlns="http://www.w3.org/2000/svg" viewBox="0 0 896.15 761.97"><defs><style>.cls-1{fill:#383f46;}.cls-2{fill:#426761;}.cls-3{fill:#353244;}.cls-4{fill:#413d51;}.cls-5{fill:#302b3f;}</style></defs><rect class="cls-5" x="-349.05" y="139.39" width="1598.09" height="545.84"/><ellipse class="cls-3" cx="441.58" cy="261.63" rx="811.21" ry="241.4"/><ellipse class="cls-4" cx="447.32" cy="163.69" rx="811.21" ry="241.4"/><rect class="cls-4" x="-182.33" y="-2.66" width="1266.58" height="125.28"/><g><ellipse class="cls-2" cx="448.49" cy="738.42" rx="542.67" ry="104.78"/><g><path class="cls-1" d="M357.81,584.8l-14.75,53.02c-.67,2.4,1.14,4.78,3.63,4.78h29.49c2.49,0,4.3-2.38,3.63-4.78l-14.75-53.02c-1.02-3.68-6.24-3.68-7.26,0Z"/><path class="cls-1" d="M332.56,580.4l-14.75,53.02c-.67,2.4,1.14,4.78,3.63,4.78h29.49c2.49,0,4.3-2.38,3.63-4.78l-14.75-53.02c-1.02-3.68-6.24-3.68-7.26,0Z"/><path class="cls-1" d="M645.3,578.55l-14.75,53.02c-.67,2.4,1.14,4.78,3.63,4.78h29.49c2.49,0,4.3-2.38,3.63-4.78l-14.75-53.02c-1.02-3.68-6.24-3.68-7.26,0Z"/><path class="cls-1" d="M896.97,522.87l-14.75,53.02c-.67,2.4,1.14,4.78,3.63,4.78h29.49c2.49,0,4.3-2.38,3.63-4.78l-14.75-53.02c-1.02-3.68-6.24-3.68-7.26,0Z"/><path class="cls-1" d="M381.95,578.55l-14.75,53.02c-.67,2.4,1.14,4.78,3.63,4.78h29.49c2.49,0,4.3-2.38,3.63-4.78l-14.75-53.02c-1.02-3.68-6.24-3.68-7.26,0Z"/><path class="cls-1" d="M407.2,574.81l-14.75,53.02c-.67,2.4,1.14,4.78,3.63,4.78h29.49c2.49,0,4.3-2.38,3.63-4.78l-14.75-53.02c-1.02-3.68-6.24-3.68-7.26,0Z"/><path class="cls-1" d="M544.47,590l-14.75,53.02c-.67,2.4,1.14,4.78,3.63,4.78h29.49c2.49,0,4.3-2.38,3.63-4.78l-14.75-53.02c-1.02-3.68-6.24-3.68-7.26,0Z"/><path class="cls-1" d="M240.87,565.81l-14.75,53.02c-.67,2.4,1.14,4.78,3.63,4.78h29.49c2.49,0,4.3-2.38,3.63-4.78l-14.75-53.02c-1.02-3.68-6.24-3.68-7.26,0Z"/><path class="cls-1" d="M11.28,508.64l-14.75,53.02c-.67,2.4,1.14,4.78,3.63,4.78H29.66c2.49,0,4.3-2.38,3.63-4.78l-14.75-53.02c-1.02-3.68-6.24-3.68-7.26,0Z"/><path class="cls-1" d="M101.8,504.66l-14.75,53.02c-.67,2.4,1.14,4.78,3.63,4.78h29.49c2.49,0,4.3-2.38,3.63-4.78l-14.75-53.02c-1.02-3.68-6.24-3.68-7.26,0Z"/><path class="cls-1" d="M76.15,510.3l-14.75,53.02c-.67,2.4,1.14,4.78,3.63,4.78h29.49c2.49,0,4.3-2.38,3.63-4.78l-14.75-53.02c-1.02-3.68-6.24-3.68-7.26,0Z"/><path class="cls-1" d="M39.12,508.64l-14.75,53.02c-.67,2.4,1.14,4.78,3.63,4.78h29.49c2.49,0,4.3-2.38,3.63-4.78l-14.75-53.02c-1.02-3.68-6.24-3.68-7.26,0Z"/><path class="cls-1" d="M267.16,564.12l-14.75,53.02c-.67,2.4,1.14,4.78,3.63,4.78h29.49c2.49,0,4.3-2.38,3.63-4.78l-14.75-53.02c-1.02-3.68-6.24-3.68-7.26,0Z"/><path class="cls-1" d="M216.98,557.41l-14.75,53.02c-.67,2.4,1.14,4.78,3.63,4.78h29.49c2.49,0,4.3-2.38,3.63-4.78l-14.75-53.02c-1.02-3.68-6.24-3.68-7.26,0Z"/></g></g></svg>