<svg id="Capa_1" data-name="Capa 1" xmlns="http://www.w3.org/2000/svg" viewBox="0 0 896.15 761.97"><defs><style>.cls-1{fill:#006953;}.cls-2{fill:#008f3e;}.cls-3{fill:#00504f;}.cls-4{fill:#6bac0a;}.cls-5{fill:#5e3813;}.cls-6{fill:#c1bfa7;}.cls-7{fill:#d9ddcb;}.cls-8{fill:#7877a2;}.cls-9{fill:#626287;}.cls-10{fill:#9491ba;}.cls-11{fill:#acb2cd;}.cls-12{fill:#afb0d0;}.cls-13{fill:#323d44;}</style></defs><ellipse class="cls-1" cx="456.83" cy="579.49" rx="58.55" ry="18.25"/><ellipse class="cls-2" cx="456.83" cy="600.9" rx="58.55" ry="18.25"/><path class="cls-3" d="M515.11,579.35c0-9.33-22.48-17-51.48-18.1v21.4c16.55.62,30.94,3.41,40.28,7.41,7-3,11.21-6.7,11.21-10.7Z"/><ellipse class="cls-4" cx="456.83" cy="600.9" rx="37.93" ry="11.82"/><ellipse class="cls-2" cx="456.83" cy="600.9" rx="20.53" ry="6.4"/><path class="cls-5" d="M500.43,536.68c.07,13-3,25.41-6.76,37.65-6.16,20-12.94,39.85-21.92,58.81-5.86,11.37-22.66,5.07-19.69-7.3,6.81-24.21,16.21-47.62,27-70.3,4-7.64,8.31-15,14.09-21.55a4.18,4.18,0,0,1,7.26,2.69h0Z"/><ellipse class="cls-6" cx="499.21" cy="569.46" rx="8.5" ry="9.72" transform="translate(-210.32 834.16) rotate(-69.22)"/><ellipse class="cls-7" cx="478.97" cy="554.68" rx="18.23" ry="22.25" transform="translate(-99.17 104.3) rotate(-11.27)"/><path class="cls-8" d="M508.09,596.42c-7.68,2.84-16.62,4.53-24.68,5.85-8.45,1.39-17.41.8-25.88-.12s-16.7-1.8-25.07-2.66c-7-.72-13.54-2.21-19.53-5.82a57.84,57.84,0,0,0-26.47,48.44v16.67c0,31.81,26.12,57.83,58.05,57.83h28.13c31.93,0,58.05-26,58.05-57.83V642.11a57.71,57.71,0,0,0-22.61-45.7Z"/><path class="cls-9" d="M508.09,596.42c-7.68,2.84-16.62,4.53-24.68,5.85-8.45,1.39-17.41.8-25.88-.12s-16.7-1.8-25.07-2.66c-7-.72-13.54-2.21-19.53-5.82a57.84,57.84,0,0,0-26.47,48.44v16.67c0,31.81,26.12,57.83,58.05,57.83H455.9c41.13,0,74.79-33.53,74.79-74.51h0a57.71,57.71,0,0,0-22.61-45.7Z"/><path class="cls-8" d="M483.41,602.27c-8.45,1.39-17.41.8-25.88-.12s-16.7-1.8-25.07-2.66c-7.55-.77-14.57-2.45-20.94-6.71a5.07,5.07,0,0,1-1.24-1.14A49.79,49.79,0,0,0,386.46,634v14.34a50,50,0,0,0,49.93,49.74h24.19a50,50,0,0,0,49.93-49.74V634a49.44,49.44,0,0,0-13.83-34.25c-4.46,1-9,1.84-13.28,2.54Z"/><path class="cls-10" d="M428.94,639.79h-8.33a17.21,17.21,0,0,0-17.19,17.12v4.94A17.21,17.21,0,0,0,420.61,679h8.33a17.21,17.21,0,0,0,17.19-17.12v-4.94A17.21,17.21,0,0,0,428.94,639.79Z"/><path class="cls-9" d="M414.78,627.76s120.15-15.93,91.72,40c16.1-17.35,12.6-24.44,12.6-24.44l-4-42.23-101.37,5.13Z"/><path class="cls-9" d="M413.9,634.5c5.37-8.16,6.85-17.12,4.56-23.54a8.46,8.46,0,0,0-1.61-.67,32.66,32.66,0,0,1-4.43,9.63c-6.71,10-17.05,15.38-24.7,13.11-.39-.14-.73-.37-1.11-.53,0,.5-.15,1-.15,1.48v12.44a6.71,6.71,0,0,0,1.26.52c7.79,3.61,19.2-1.74,26.18-12.44Z"/><path class="cls-8" d="M543.82,624.5a10.43,10.43,0,0,1-3.62,4,12.9,12.9,0,0,1-3.09,1.47,32.66,32.66,0,0,0-4.43-9.63c-6.71-10-17-15.38-24.7-13.11-.13-.53-.27-1.2-.4-1.74a10.43,10.43,0,0,1,3.62-4c7.79-5.08,20.14.13,27.79,11.63a33.17,33.17,0,0,1,4.83,11.37Z"/><path class="cls-10" d="M538.77,643.27a7.86,7.86,0,0,1-1.61.67c-7.79,3.61-19.2-1.74-26.18-12.44-5.37-8.16-6.85-17.12-4.56-23.54a8.46,8.46,0,0,1,1.61-.67,32.66,32.66,0,0,0,4.43,9.63c6.71,10,17,15.38,24.7,13.11a13.08,13.08,0,0,0,3.09-1.47,10.35,10.35,0,0,0,3.62-4c1.88,7.89.13,15.24-5.1,18.72Z"/><path class="cls-8" d="M374.67,621.22a10.43,10.43,0,0,0,3.62,4,12.9,12.9,0,0,0,3.09,1.47,32.66,32.66,0,0,1,4.43-9.63c6.71-10,17.05-15.38,24.7-13.11.13-.53.27-1.2.4-1.74a10.43,10.43,0,0,0-3.62-4c-7.79-5.08-20.14.13-27.79,11.63a33.17,33.17,0,0,0-4.83,11.37Z"/><path class="cls-10" d="M379.71,640a7.86,7.86,0,0,0,1.61.67c7.79,3.61,19.2-1.74,26.18-12.44,5.37-8.16,6.85-17.12,4.56-23.54a8.46,8.46,0,0,0-1.61-.67,32.66,32.66,0,0,1-4.43,9.63c-6.71,10-17,15.38-24.7,13.11a13.08,13.08,0,0,1-3.09-1.47,10.35,10.35,0,0,1-3.62-4C372.73,629.16,374.48,636.51,379.71,640Z"/><path class="cls-10" d="M516.65,596.93a33.91,33.91,0,0,1-1.52,5.41.24.24,0,0,0-.1.19c-2.48,9.3-27.63,16.61-58.31,16.61s-54.69-7-58.12-16c0-.09-.1-.19-.1-.28a24.28,24.28,0,0,1-1.52-5.41,35.88,35.88,0,0,1,1.43-18.89,1.7,1.7,0,0,0-.19,1c0,4,4.19,7.69,11.24,10.73,10.58,4.56,27.82,7.5,47.26,7.5s36.78-2.94,47.35-7.5c7.05-3,11.24-6.74,11.24-10.73a6.88,6.88,0,0,0-.19-1.33,33.84,33.84,0,0,1,1.52,18.79Z"/><path class="cls-11" d="M409.46,590.2c-.19-.08-.32-.18-.51-.26v21.41c6.07,2.68,14.34,4.82,24.07,6.17V596.1c-9.43-1.3-17.58-3.34-23.56-5.91Z"/><path class="cls-12" d="M444.45,597.27v21.44c2.67.18,5.42.26,8.21.32V597.62c-2.79-.06-5.54-.17-8.21-.35Z"/><path class="cls-13" d="M396.93,712.48c-2.88-3.32-3.4-7-4.63-11.16a41.57,41.57,0,0,0-7.21-12.6,1.05,1.05,0,0,1,1.31-1.59c3.39,1.74,6.74,3.86,10,5.88,3.75,2,7.55,4.93,9.46,8.91a12.9,12.9,0,0,1,1.36,8.67,5.73,5.73,0,0,1-6.94,4.17,6.3,6.3,0,0,1-3.39-2.27h0Z"/><path class="cls-13" d="M402.89,713.15c-4.23-7.47-1.24-16.94,3.87-23.16a52.55,52.55,0,0,1,8.89-10,1.1,1.1,0,0,1,1.78,1c-.55,2.89-1.16,5.65-1.73,8.36a72.79,72.79,0,0,0-1.65,11.53c-.22,3.67,0,6.92-1,10.74a5.55,5.55,0,0,1-10.14,1.48h0Z"/><path class="cls-13" d="M409.66,711c.9-2.49,1.91-2.83,4.1-4a17.22,17.22,0,0,1,3.85-1.39c.66-.18,4.89-.68,4.35.64s-1.31,2.2-1.88,3.13c-1.27,2.11-1.72,4.29-4.06,5.69-3.14,2.2-8,.19-6.35-4.11h0Z"/><path class="cls-13" d="M412.94,714.3c.34-1.73.64-3.9,0-4.15s-1.78,1.62-2.32,1.35-.15-1.54-.1-4.67a2.53,2.53,0,0,0-.52-1.77,1.94,1.94,0,0,0-.78-.48c-1.45-.52-4.5-1-4.95,0a1.93,1.93,0,0,0,0,.55,11,11,0,0,1,0,1.85c-.14,0-.33-1.81-1-2-.49-.12-1.37.59-3.11,4.1l-1.23,1.23a6,6,0,0,0,1.15,2.38c3,3.71,10,2.25,11.05,2a16.71,16.71,0,0,0,1.81-.48Z"/></svg>