<svg id="Capa_1" data-name="Capa 1" xmlns="http://www.w3.org/2000/svg" viewBox="0 0 896.15 761.97"><defs><style>.cls-1{fill:#ecedda;}.cls-2{fill:#afafaa;}.cls-3{fill:#dbdac8;}.cls-4{fill:#b7484e;}.cls-5{fill:#96405f;}.cls-6{fill:#d3d3d1;}</style></defs><path class="cls-1" d="M348.1,690.94a29.48,29.48,0,0,1-1.9-12.24,3.4,3.4,0,0,1,6.76-.23,21.38,21.38,0,0,0,3.31,8.49A4.57,4.57,0,0,1,355,693.3a4.62,4.62,0,0,1-6.9-2.35h0Z"/><path class="cls-2" d="M355,684.57l-8.45.32-.33-2.59H354Z"/><path class="cls-3" d="M353.4,682.63h-6.83c-1,0-1.73-.81-1.4-1.59l1-2.36a.73.73,0,0,1,.68-.39h6.24a.74.74,0,0,1,.68.39l1,2.36c.34.78-.38,1.59-1.4,1.59Z"/><path class="cls-4" d="M363.72,669.71l-1.61-1.41a7.23,7.23,0,0,1-.6-.86,7.94,7.94,0,0,1-.93-2.29l-.21-1.95v-.59h0a10.27,10.27,0,0,0-20.34,0h0v.59l-.21,1.95a8,8,0,0,1-.93,2.29,8.62,8.62,0,0,1-.6.86,7,7,0,0,1-1.61,1.41,5,5,0,0,0-2.21,4.19,5.13,5.13,0,0,0,5.14,4.91h21.1a5.14,5.14,0,0,0,5.14-4.91,5,5,0,0,0-2.21-4.19Z"/><path class="cls-5" d="M363.72,669.71l-1.61-1.41a7.23,7.23,0,0,1-.6-.86,7.94,7.94,0,0,1-.93-2.29l-.21-1.95v-.59h0a10.29,10.29,0,0,0-9.39-8.78,10.23,10.23,0,0,1,2.26,5.08h0v.59l.21,2a8,8,0,0,0,.93,2.29,8.62,8.62,0,0,0,.6.86l1.61,1.41a5,5,0,0,1,2.21,4.19,5.13,5.13,0,0,1-5.14,4.91H334.73a5.21,5.21,0,0,0,4.95,3.69h21.1a5.14,5.14,0,0,0,5.14-4.91,5,5,0,0,0-2.21-4.19Z"/><path class="cls-6" d="M345.16,673.15c-.8.61-1.66,1.28-2.62.44a3,3,0,0,1-.74-3.55l1.35-.38c.75-.22,1.49-.37,2.09.31a1.77,1.77,0,0,1,.14,2.1,1.52,1.52,0,0,0-.22,1.08Z"/><path class="cls-6" d="M353.84,674.21a2,2,0,0,1,1.57-2.53c1.55-.45,2-.22,2.16,1.48.15,2.22-1,2.61-2.59,1.56a8.4,8.4,0,0,0-1.14-.51Z"/><path class="cls-6" d="M355.87,662.5a13.9,13.9,0,0,1,.31,2.66c-.14,1.48-1,2.11-2.41,1.66a22.07,22.07,0,0,1-2.39-.89,2.39,2.39,0,0,1-1.49-2.22c0-.61-.07-1.22-.1-1.83.52-1.71,1.3-2.07,2.91-1.36a14.76,14.76,0,0,1,3.18,2Z"/><path class="cls-6" d="M342.09,661.18c-.07-1,.27-1.71,1.46-1.7s1.67.81,1.7,2.14c0,.94-.31,1.56-1.35,1.55S342.08,662.47,342.09,661.18Z"/></svg>