<svg id="Capa_1" data-name="Capa 1" xmlns="http://www.w3.org/2000/svg" viewBox="0 0 896.15 761.97"><defs><style>.cls-1{fill:#dbdac8;}.cls-2{fill:#afafaa;}.cls-3{fill:#b7484e;}.cls-4{fill:#96405f;}.cls-5{fill:#d3d3d1;}</style></defs><path class="cls-1" d="M559.08,689.52a24.91,24.91,0,0,1-2-3.55,1.36,1.36,0,0,1-.37.06h-9.32a34.24,34.24,0,0,0,2,8.19,5.43,5.43,0,0,0,8.11,2.76,5.36,5.36,0,0,0,1.5-7.46Z"/><path class="cls-2" d="M556.74,686a1.06,1.06,0,0,0,.37-.06,25.33,25.33,0,0,1-1.93-6.43,5.41,5.41,0,0,0-.12-.58.73.73,0,0,0-.32-.09h-5.28a.83.83,0,0,0-.68.41l-1.61,2.61a33.78,33.78,0,0,0,.25,4.13h9.32Z"/><path class="cls-1" d="M556.17,683.56a29.05,29.05,0,0,0-9.3-.94c-1.38.07-2-1.37-1.25-2.82q.87-1.57,2-3.3a1.25,1.25,0,0,1,.8-.53,36.55,36.55,0,0,1,6.61-.54,1,1,0,0,1,.81.47,26.13,26.13,0,0,1,1.82,3.93c.68,1.94-.12,4.12-1.43,3.72Z"/><path class="cls-3" d="M549.88,656.56h.1a13.72,13.72,0,0,1,14.38,13l0,.39a7.23,7.23,0,0,1-6.86,7.58l-13.06.66a7.23,7.23,0,0,1-7.58-6.86l0-.39a13.72,13.72,0,0,1,13-14.38Z"/><path class="cls-4" d="M557.43,658.34a13.57,13.57,0,0,1,2.54,7.24l0,.39a7.26,7.26,0,0,1-6.88,7.58l-13,.65a7.22,7.22,0,0,1-2.59-.35,7.27,7.27,0,0,0,7,4.32l13-.65a7.26,7.26,0,0,0,6.88-7.58l0-.39a13.73,13.73,0,0,0-7-11.22Z"/><path class="cls-5" d="M542.33,671.75a2.62,2.62,0,0,1,1.93-3.49c2-.71,2.61-.42,3,1.84.36,3-1.14,3.56-3.36,2.26a9.15,9.15,0,0,0-1.56-.6Z"/><path class="cls-5" d="M550.92,660.73a3.45,3.45,0,0,1,3.37-1.3c.46.6.9,1.22,1.39,1.8,1.17,1.38.54,2.59-.35,3.76s-2.37,1.1-3.66.8c-.83-.19-.93-1.06-1-1.86a21.25,21.25,0,0,1,.26-3.2Z"/></svg>