<svg id="Capa_1" data-name="Capa 1" xmlns="http://www.w3.org/2000/svg" viewBox="0 0 896.15 761.97"><defs><style>.cls-1{fill:#65483e;}.cls-2{fill:#412c2f;}.cls-3{fill:#4d3534;}.cls-4{fill:#c6c4ac;}.cls-5{fill:#387b4d;}.cls-6{fill:#276954;}.cls-7{fill:#dee2d0;}.cls-8{fill:#133238;}.cls-9{fill:#1f5150;}.cls-10{fill:#99ced8;}.cls-11{fill:#a9a7d4;}.cls-12{fill:#997aa6;}.cls-13{fill:#c8ecec;}</style></defs><path class="cls-1" d="M568.12,689.26c5.84,1.93,16.44-13.91,22.63-24.27H563.9C562.91,678.78,564.19,688,568.12,689.26Z"/><path class="cls-1" d="M635.87,689.26c3.93-1.3,5.21-10.48,4.22-24.27H613.24C619.43,675.34,630,691.19,635.87,689.26Z"/><path class="cls-2" d="M612,654.73l-3.45,2.06c.55,1,2.29,4.2,4.68,8.2h26.85c-.23-3.19-.58-6.62-1-10.26H612Z"/><path class="cls-3" d="M612,654.73l-3.45,2.06c.54,1,1.09,2,1.65,3q1.8,3.21,3.61,6.3a33.19,33.19,0,0,1,17.34,1.62,32.34,32.34,0,0,1,9.21,5.4c0-4.12-.26-8.48-.71-13.06-.18-1.81-.38-3.58-.61-5.3H612Z"/><path class="cls-3" d="M591.94,654.73l3.45,2.06c-.54,1-1.09,2-1.65,3q-1.8,3.21-3.61,6.3a33.19,33.19,0,0,0-17.34,1.62,32.34,32.34,0,0,0-9.21,5.4c0-4.12.26-8.48.71-13.06.18-1.81.38-3.58.61-5.3h27Z"/><path class="cls-4" d="M610,536.51c18.37.36,26.52,2,30.35,3.78a23.56,23.56,0,0,0,8.13,2.16,23.24,23.24,0,0,0,7-.54q3.53,5.67,7,11.34a102.72,102.72,0,0,0-13,3.24c-6.12,2-8.31,3.3-10.3,3.78-5.1,1.22-13.78-2.06-29.26-23.75Z"/><path class="cls-5" d="M651.07,630.38c-.05-.13-.09-.25-.15-.38l-6.5-16c-7-17.34-22.51-27.78-36.26-27.78H595.63c-13.75,0-29.24,10.43-36.26,27.78l-6.5,16c0,.09-.07.18-.1.27q-1.14,6.63-2.29,13.26c0,.58.2,8.56,6.4,12.27a12.08,12.08,0,0,0,6.29,1.63h77.46c7.72,0,12.12-5.9,12.69-13.81q-1.12-6.61-2.24-13.24Z"/><path class="cls-6" d="M640.91,609.39c-10.53,4.8-17.65,4.18-22.22,2.7-8.08-2.61-9.73-8.38-16.8-8.64-6.87-.25-8.95,5.08-17.34,7.56-4.74,1.4-11.95,2-22.22-2.16l-1.08-16.19h80.2l-.54,16.73Z"/><path class="cls-6" d="M616.52,626.12a1.84,1.84,0,0,0,0,1.08c.79,2.67,6.89,3.11,8.67,3.24,1.5.11,2.38.06,9.21-.54,6.1-.54,6.76-.62,8.13-.54a24.68,24.68,0,0,1,8.67,2.16L646,617.66a50.14,50.14,0,0,0-2.89-5.88,27.37,27.37,0,0,1-6.85,7.9c-2.25,1.75-6.17,4.81-11.62,5.35-3.42.34-7.68-.3-8.13,1.08Z"/><path class="cls-7" d="M634.62,597.13h0A15.89,15.89,0,0,1,646.3,578h0a16,16,0,0,1,19.23,11.63h0a15.89,15.89,0,0,1-11.68,19.16h0A16,16,0,0,1,634.62,597.13Z"/><path class="cls-7" d="M662.34,618l5.93.89a1.25,1.25,0,0,0,1.43-1.06,57,57,0,0,0-3.48-28.12,1.26,1.26,0,0,0-1.65-.69l-9.2,3.8a1.24,1.24,0,0,0-.69,1.59,44.71,44.71,0,0,1,3,17.9,5.51,5.51,0,0,0,4.68,5.68Z"/><ellipse class="cls-4" cx="653.91" cy="595.1" rx="8.13" ry="8.1"/><path class="cls-4" d="M664.77,592.49a8.12,8.12,0,0,1,1.63-2.26,57.31,57.31,0,0,1,3.35,13.49,7.84,7.84,0,0,1-1.14-.43,8.09,8.09,0,0,1-3.83-10.8Z"/><path class="cls-4" d="M665.49,607.74a19.54,19.54,0,0,1,.58,10.86l-2.1-.32a17.9,17.9,0,0,0,.42-10.21.58.58,0,0,1,1.1-.33Z"/><path class="cls-6" d="M587.18,626.66a1.84,1.84,0,0,1,0,1.08c-.79,2.67-6.89,3.11-8.67,3.24-1.5.11-2.38.06-9.21-.54-6.1-.54-6.76-.62-8.13-.54a24.68,24.68,0,0,0-8.67,2.16l5.19-13.86a50.14,50.14,0,0,1,2.89-5.88,27.37,27.37,0,0,0,6.85,7.9c2.25,1.75,6.17,4.81,11.62,5.35,3.42.34,7.68-.3,8.13,1.08Z"/><path class="cls-6" d="M653.06,642.12c-3.29-2-7.48-1-12.37,0-5.42,1.08-11.05-.4-16.58-.36a16.1,16.1,0,0,1-5-.54c-2.06-.59-3-1.37-3.25-1.08-.54.61,2.06,5.39,5.5,8.1a3.51,3.51,0,0,1,1.54,2.16,3.65,3.65,0,0,1-1.08,2.7c-2.35,2.59-7.13.72-18.34.54-1.11,0-2.22,0-3.34,0-11.21.18-16,2.05-18.34-.54a3.65,3.65,0,0,1-1.08-2.7,3.51,3.51,0,0,1,1.54-2.16c3.45-2.71,6-7.49,5.5-8.1-.26-.29-1.19.49-3.25,1.08a15.83,15.83,0,0,1-5,.54c-5.53,0-11.16,1.44-16.58.36-4.89-1-9.08-2-12.37,0-.08.5-.17,1-.25,1.5.56,7.92,5,13.81,12.69,13.81h77.54c7.72,0,12.12-5.9,12.69-13.81-.08-.5-.17-1-.25-1.5Z"/><path class="cls-4" d="M618.76,625.16c-.82.25-1.65.46-2.48.65a35.72,35.72,0,0,0,30.53-5.95L644.42,614a49.63,49.63,0,0,0-2.79-5.77,41.5,41.5,0,0,1-22.87,17Z"/><path class="cls-4" d="M618.24,640.46c-.85-.14-1.68-.31-2.51-.5a35.68,35.68,0,0,0,37.32,5.88q.18-1.08.27-2.22-1-5.89-2-11.79a41.7,41.7,0,0,1-33.08,8.63Z"/><rect class="cls-8" x="526.57" y="508.98" width="144.69" height="72.88" rx="12"/><path class="cls-7" d="M561.07,613.5h0a15.88,15.88,0,0,0,10.29-19.93h0a16,16,0,0,0-20-10.25h0a15.88,15.88,0,0,0-10.29,19.93h0A16,16,0,0,0,561.07,613.5Z"/><path class="cls-7" d="M528.69,600.88l-3.86-4.57a1.24,1.24,0,0,1,.16-1.77,57.62,57.62,0,0,1,25.87-11.74,1.25,1.25,0,0,1,1.45,1l1.55,9.8a1.25,1.25,0,0,1-1,1.42,45.07,45.07,0,0,0-12.06,4,45.57,45.57,0,0,0-4.83,2.8,5.54,5.54,0,0,1-7.31-1Z"/><ellipse class="cls-4" cx="552.73" cy="596.05" rx="8.13" ry="8.1"/><path class="cls-4" d="M549.28,585.46a8.08,8.08,0,0,0,1.09-2.56,58.17,58.17,0,0,0-13.3,4.21,8.06,8.06,0,0,0,1,.75,8.15,8.15,0,0,0,11.24-2.39Z"/><path class="cls-9" d="M551.15,580.24A19.36,19.36,0,0,1,533.77,567,43.57,43.57,0,0,0,556,601.82a50.92,50.92,0,0,0,16.46,2.72c14.22,0,26.24-10.4,29.44-24.29H551.15Z"/><path class="cls-9" d="M652.5,580.24A19.31,19.31,0,0,0,669.83,567a43.58,43.58,0,0,1-22.15,34.8,50.67,50.67,0,0,1-16.42,2.72c-14.19,0-26.17-10.4-29.37-24.29H652.5Z"/><path class="cls-4" d="M656.2,507l-17.05-29.41a25.37,25.37,0,0,0-22-12.63H583.1a25.37,25.37,0,0,0-22,12.63l-17,29.41a25.17,25.17,0,0,0,0,25.26l1,1.65A66.32,66.32,0,0,1,565.85,506c4.93-3.87,16.67-11.81,36-13.23,19.11,1.51,30.72,9.34,35.67,13.23A65.84,65.84,0,0,1,657,530.78a25.16,25.16,0,0,0-.8-23.75Z"/><path class="cls-7" d="M663,554.32l-5.16-8.91a12.54,12.54,0,0,0-1.21-1.74,9.7,9.7,0,0,1-.74-11l.17-.29a25.13,25.13,0,0,0,0-25.21l-17-29.36a25.34,25.34,0,0,0-21.92-12.61h-34a25.34,25.34,0,0,0-21.92,12.61l-17,29.36a25.13,25.13,0,0,0,0,25.21l1.86,3.21a9.64,9.64,0,0,1-.13,9.75l0,0-5.16,8.91a13.26,13.26,0,0,0,0,13.29l5.16,8.91a13.35,13.35,0,0,0,11.55,6.64h10.32a13.35,13.35,0,0,0,11.55-6.64l1.32-2.28h0c-.12.23-.24.45-.34.69l-4.79,11a8.57,8.57,0,1,0,15.64,7l2.14-4.91v2.35a8.7,8.7,0,0,0,7.53,8.7,8.58,8.58,0,0,0,9.62-8.48v-3.24l1.86,4.26a8.73,8.73,0,0,0,10.39,5,8.55,8.55,0,0,0,5.43-11.6l-3.78-8.67.1.16A13.35,13.35,0,0,0,636,583.14h10.32a13.35,13.35,0,0,0,11.55-6.64l5.16-8.9a13.26,13.26,0,0,0,0-13.29Z"/><path class="cls-4" d="M618.73,559.18a76.8,76.8,0,0,0-43.35,0l-7.59-27.53a90.43,90.43,0,0,0,57.44,0Q622,545.42,618.73,559.18Z"/><path d="M571,561h-8.37a8.78,8.78,0,0,1-8.76-8.76h0a27.69,27.69,0,0,1,27.61-27.61h.14a8.78,8.78,0,0,1,8.76,8.76v8.23A19.44,19.44,0,0,1,571,561Z"/><path d="M625.9,561h8.37a8.78,8.78,0,0,0,8.76-8.76h0a27.69,27.69,0,0,0-27.61-27.61h-.14a8.78,8.78,0,0,0-8.76,8.76v8.23A19.44,19.44,0,0,0,625.9,561Z"/><path d="M594,562.27,591.39,567a3.86,3.86,0,0,0,3.39,5.72h5.13A3.86,3.86,0,0,0,603.3,567l-2.56-4.68a3.86,3.86,0,0,0-6.78,0Z"/><path d="M599.55,562.27,597,567a3.86,3.86,0,0,0,3.39,5.72h5.13A3.86,3.86,0,0,0,608.9,567l-2.56-4.68a3.86,3.86,0,0,0-6.78,0Z"/><path class="cls-5" d="M663.61,455.87C640.09,429,608.6,425.6,601.8,425h-.18c-6.79.57-38.28,3.92-61.81,30.83a91.7,91.7,0,0,0-22,52.71v40.1a56.61,56.61,0,0,0,39.3,53.67,43.38,43.38,0,0,1-23.5-38.41L540.92,533c3.66-15.49,10.76-29.9,24.93-41,4.93-3.87,16.67-11.81,36-13.23,19.11,1.51,30.72,9.34,35.67,13.23,14.17,11.14,21.27,25.55,24.93,41l7.32,30.94a43.37,43.37,0,0,1-23.5,38.41,56.61,56.61,0,0,0,39.3-53.67v-40.1a91.7,91.7,0,0,0-22-52.71Z"/><path class="cls-7" d="M622.72,597a40,40,0,0,1-5.73-.41A8.45,8.45,0,0,0,622.72,597Z"/><path class="cls-4" d="M628.21,585.38l-3.78-8.67.1.16a13.35,13.35,0,0,0,11.55,6.64H646.4A13.35,13.35,0,0,0,658,576.87l5.16-8.9a13.12,13.12,0,0,0,1.51-4c-1.94-.47-10.08,14.35-23.17,15.7-8.9.92-16.84-4.73-22.22-9.72a51.36,51.36,0,0,1,3.79,9.72c1.16,4.16,1.75,6.28,1.08,8.64-1.32,4.65-6.37,6.88-8.13,7.56a6.25,6.25,0,0,0,6.74,1.1.11.11,0,0,0,.07,0,8.55,8.55,0,0,0,5.43-11.6Z"/><path class="cls-4" d="M575.44,585.5l3.78-9-.1.17a13.27,13.27,0,0,1-11.55,6.86H557.25a13.29,13.29,0,0,1-11.55-6.86l-5.16-9.2A13.87,13.87,0,0,1,539,563.4c1.94-.49,10.08,14.83,23.17,16.22,8.9,1,16.84-4.88,22.22-10a54.34,54.34,0,0,0-3.79,10c-1.16,4.29-1.75,6.49-1.08,8.92,1.32,4.8,6.37,7.1,8.13,7.81a7.81,7.81,0,0,1-3.79,1.67,8.46,8.46,0,0,1-8-3.76,8.68,8.68,0,0,1-.44-8.77Z"/><path class="cls-5" d="M536.65,590.57a56.79,56.79,0,0,0,20.45,11.76,43.54,43.54,0,0,1-22.78-30.63c-.24,1-.47,2-.71,3a42.76,42.76,0,0,0,3,15.86Z"/><path class="cls-5" d="M663.6,455.85c-23.52-26.91-55-30.27-61.81-30.83h-.18c-6.79.57-38.28,3.92-61.81,30.83a91.7,91.7,0,0,0-22,52.71v10.8a91.7,91.7,0,0,1,22-52.71c23.52-26.91,55-30.27,61.81-30.83h.18c6.79.57,38.28,3.92,61.81,30.83a91.7,91.7,0,0,1,22,52.71v-10.8A91.7,91.7,0,0,0,663.6,455.85Z"/><path class="cls-5" d="M669.09,571.7a43.56,43.56,0,0,1-22.78,30.63,56.71,56.71,0,0,0,20.45-11.76,42.76,42.76,0,0,0,3-15.86c-.24-1-.47-2-.71-3Z"/><path class="cls-4" d="M637.56,492c-4.95-3.89-16.57-11.72-35.67-13.23-19.36,1.42-31.11,9.35-36,13.23-12.69,10-19.71,22.57-23.66,36.22a25.57,25.57,0,0,0,1.94,4.23l.15.25a66.81,66.81,0,0,1,21.57-29.9c4.93-3.87,16.67-11.81,36-13.23,19.11,1.51,30.72,9.34,35.67,13.23A66.21,66.21,0,0,1,657.66,529a24.84,24.84,0,0,0,1.62-6.74A67,67,0,0,0,637.56,492Z"/><path class="cls-4" d="M587.3,625.81c-.83-.19-1.65-.41-2.48-.65a41.5,41.5,0,0,1-22.76-16.82,48.39,48.39,0,0,0-2.7,5.61l-2.44,6a35.71,35.71,0,0,0,30.38,5.84Z"/><path class="cls-4" d="M570.38,648.19A35.53,35.53,0,0,0,587.86,640c-.83.19-1.66.36-2.51.5A41.68,41.68,0,0,1,552.46,632q-1,5.78-2,11.55a15.55,15.55,0,0,0,.24,2.38,35.47,35.47,0,0,0,19.67,2.28Z"/><path class="cls-4" d="M618.24,640.46c-.85-.14-1.68-.31-2.51-.5a35.68,35.68,0,0,0,37.32,5.88q.18-1.08.27-2.22-1-5.89-2-11.79a41.7,41.7,0,0,1-33.08,8.63Z"/><path class="cls-4" d="M570.38,648.19A35.53,35.53,0,0,0,587.86,640c-.83.19-1.66.36-2.51.5A41.68,41.68,0,0,1,552.46,632q-1,5.78-2,11.55a15.55,15.55,0,0,0,.24,2.38,35.47,35.47,0,0,0,19.67,2.28Z"/><path class="cls-4" d="M616.28,625.81a35.72,35.72,0,0,0,30.53-5.95l-.85-2.09a35.6,35.6,0,0,1-24.17,6.35c-1,.38-2,.73-3,1-.82.25-1.65.46-2.48.65Z"/><path class="cls-4" d="M653,643.14a35.69,35.69,0,0,1-32.5-2.36c-.77-.09-1.53-.19-2.3-.32s-1.68-.31-2.51-.5a35.68,35.68,0,0,0,37.32,5.88q.18-1.08.27-2.22l-.18-1.07c0,.2,0,.4-.09.59Z"/><path class="cls-7" d="M635.62,622.8a35.57,35.57,0,0,0,10.35-5l-1.55-3.82a49.63,49.63,0,0,0-2.79-5.77,41.43,41.43,0,0,1-19.83,15.94A35.58,35.58,0,0,0,635.62,622.8Z"/><path class="cls-7" d="M653,643.14l.09-.59q-.9-5.35-1.81-10.72a41.67,41.67,0,0,1-30.77,8.95,35.69,35.69,0,0,0,32.5,2.36Z"/><path class="cls-7" d="M568.15,622.8a35.57,35.57,0,0,1-10.35-5l1.55-3.82a49.63,49.63,0,0,1,2.79-5.77A41.43,41.43,0,0,0,582,624.11,35.58,35.58,0,0,1,568.15,622.8Z"/><path class="cls-7" d="M550.72,643.14l-.09-.59q.9-5.35,1.81-10.72a41.67,41.67,0,0,0,30.77,8.95,35.69,35.69,0,0,1-32.5,2.36Z"/><path class="cls-4" d="M528.28,611.36h0s0,.12,0,.19l.08-.19Z"/><path class="cls-4" d="M535.85,592.83a19.73,19.73,0,0,0-9.6,5.18l1.37,1.62a18.08,18.08,0,0,1,8.52-5.7.57.57,0,0,0-.29-1.1Z"/><path class="cls-6" d="M667.52,554.27q1.14,4.83,2.29,9.66a43.37,43.37,0,0,1-23.5,38.41,56.61,56.61,0,0,0,39.3-53.67V513a56.15,56.15,0,0,1-18.09,41.22Z"/><path class="cls-6" d="M517.81,513.05v35.63a56.61,56.61,0,0,0,39.3,53.67,43.38,43.38,0,0,1-23.5-38.41l2.29-9.66a56.15,56.15,0,0,1-18.09-41.22Z"/><ellipse class="cls-4" cx="623.17" cy="629.65" rx="16.96" ry="7.06" transform="translate(-136.37 173.7) rotate(-14.32)"/><polygon class="cls-10" points="617.98 606.07 632.61 635.05 631.2 647.39 618.33 631 612.48 614.92 617.98 606.07"/><path class="cls-11" d="M610.24,628.83l6.36,9.3,5,5.46,5.84,2.67s3.84,1.49,3.75,1.14-5.44-9.95-5.44-9.95l-6.51-8.31s-8.34-2.59-8.43-2.23-.57,1.92-.57,1.92Z"/><path class="cls-11" d="M622.91,615.7s-3.74,8.75.55,17.64c-6.5-5.73-11-19.88-11-19.88l3.87-7,1.6-.41"/><path class="cls-12" d="M605.23,613.73l11.08,7.1s3.94,6.73,9.44,16.61c-13-11.05-15.64-8.54-15.64-8.54l-4.89-15.18Z"/><path class="cls-13" d="M618.07,606.82c-.27,2.77-.68,9.75-.78,11.55a1.91,1.91,0,0,0,.13.82l4.26,11-15.53-15a3.8,3.8,0,0,1-1.13-3l.72-9.05a2,2,0,0,1,2.84-1.73l8.57,3.86a1.61,1.61,0,0,1,.93,1.63Z"/><ellipse class="cls-7" cx="630.25" cy="640.11" rx="18.5" ry="15.14" transform="translate(-193.71 997.95) rotate(-68.92)"/></svg>