<svg id="Capa_1" data-name="Capa 1" xmlns="http://www.w3.org/2000/svg" viewBox="0 0 896.15 761.97"><defs><style>.cls-1{fill:#fff;}</style></defs><polygon class="cls-1" points="709.92 115.17 717.26 101.8 724.6 115.17 738.02 122.48 724.6 129.8 717.26 143.17 709.92 129.8 696.5 122.48 709.92 115.17"/><polygon class="cls-1" points="771.42 189.1 778.76 175.73 786.1 189.1 799.52 196.41 786.1 203.72 778.76 217.09 771.42 203.72 758 196.41 771.42 189.1"/><polygon class="cls-1" points="864.35 150 871.69 136.63 879.03 150 892.45 157.31 879.03 164.63 871.69 178 864.35 164.63 850.93 157.31 864.35 150"/><polygon class="cls-1" points="183.29 113.04 175.95 99.67 168.61 113.04 155.19 120.35 168.61 127.66 175.95 141.03 183.29 127.66 196.71 120.35 183.29 113.04"/><polygon class="cls-1" points="121.79 186.96 114.45 173.59 107.11 186.96 93.69 194.28 107.11 201.59 114.45 214.96 121.79 201.59 135.21 194.28 121.79 186.96"/><polygon class="cls-1" points="28.86 147.87 21.52 134.5 14.18 147.87 0.76 155.18 14.18 162.49 21.52 175.86 28.86 162.49 42.28 155.18 28.86 147.87"/></svg>