<svg id="Capa_1" data-name="Capa 1" xmlns="http://www.w3.org/2000/svg" viewBox="0 0 896.15 761.97"><defs><style>.cls-1{fill:#ffb647;}.cls-15,.cls-2{fill:#ffdc72;}.cls-3{fill:#30d18a;}.cls-4{fill:#009976;}.cls-5{fill:#50396e;}.cls-6{fill:#72569c;}.cls-7{fill:#624784;}.cls-8{fill:#36261b;}.cls-9{fill:#8264b2;}.cls-10{fill:#c2c3ca;}.cls-11{fill:#d4daeb;}.cls-12{fill:#b1afb6;}.cls-13{fill:#5d3d29;}.cls-14{fill:#3a271d;}.cls-15{stroke:#ffdc72;stroke-miterlimit:10;stroke-width:0.25px;}</style></defs><path class="cls-1" d="M232.37,663.53l-.75,1.31A2.36,2.36,0,0,0,232.37,663.53Z"/><path class="cls-2" d="M232.37,663.53a2.41,2.41,0,0,0,.28-.76l-.26.45a1.63,1.63,0,0,1,0,.31Z"/><path class="cls-2" d="M231.34,665.08l.28-.25.75-1.31a1.63,1.63,0,0,0,0-.31l-1.06,1.86Z"/><path class="cls-3" d="M302.63,640.32c-10.09,33.3-21.69,56.28-29.59,55.06-10.69-1.65-11.84-47.15-11.94-52.39"/><path class="cls-4" d="M288.82,677.22a54.42,54.42,0,0,0-11.88-1.59c-5.11-.12-9.43,1.1-12.75,1.82-.41-2.52-1.29-7.6-1.69-10.12,9.72.38,19.87,2.73,29.59,3.11l-3.27,6.79Z"/><path class="cls-3" d="M289.24,641.06c10.09,33.3,21.69,56.28,29.59,55.06,10.69-1.65,11.84-47.15,11.94-52.39"/><path class="cls-4" d="M303,678.26a54.54,54.54,0,0,1,24.67-.37q.62-3.78,1.22-7.56l-29.16,1.15,3.27,6.79Z"/><path class="cls-5" d="M331.58,593.5a81.12,81.12,0,0,1-69.1-.35l4-6.91A35.3,35.3,0,0,1,297,568.79h0a35.31,35.31,0,0,1,30.7,17.84l3.9,6.87Z"/><path class="cls-6" d="M297.85,656c29.52.58,45.34-6.75,50.71-14.9a285.76,285.76,0,0,0-8.23-27.63c-11.44-31.15-21.09-35.81-29.48-45.45a12.7,12.7,0,0,0-6.11-3.88c-11.56-3.27-15.65-.54-16.83.68l-1.79,1.9C262,582.54,249.84,618,245.57,637.42c4.93,8.55,14.81,17.81,52.26,18.54Z"/><path class="cls-7" d="M348.36,640.07c-5.35,8.15-21.1,15.47-50.5,14.9-37.3-.73-47.14-10-52.05-18.54-.13.58-.25,1.15-.36,1.7-1.12,5.43-2.45,11.13-1,13.94,4.56,9.16,12.26,20.38,53.46,21.19,37.85.74,53.07-11.6,52.63-22a75.1,75.1,0,0,0-2.13-11.24Z"/><path class="cls-5" d="M331.58,593.5a81.12,81.12,0,0,1-69.1-.35l4-6.91A35.3,35.3,0,0,1,297,568.79h0a35.31,35.31,0,0,1,30.7,17.84l3.9,6.87Z"/><path class="cls-3" d="M299.55,461.06s-65.22,1.25-64.16,63.68c.44,25.64,11.34,41.36,24,51,23.24,17.6,57,17.6,80.25,0,12.7-9.62,23.6-25.33,24-51,1.06-62.43-64.16-63.68-64.16-63.68Z"/><path class="cls-4" d="M302.9,538.23H303l-57.48-.41a105,105,0,0,0,.83,10.53c1.15,8.9,3.05,14.64,3.44,14.56s-1.44-5.3,1.1-7.95c1.82-1.89,5-1.58,6.11-1.47,5.26.51,31.74,2.91,42.32,2.93s37.09-2.33,42.63-2.87c1.1-.11,4.29-.43,6.11,1.47,2.54,2.65.72,7.88,1.1,8s2.29-5.66,3.44-14.56a105,105,0,0,0,.83-10.53l-50.46.36Z"/><path class="cls-8" d="M348.27,639.87l-3.26-12a176.74,176.74,0,0,1-43.08,7.35l-2.1.08c.42,5,1.35,9.74.92,14.69a122.76,122.76,0,0,0,22.21-2.3A125.25,125.25,0,0,0,348.27,639.87Z"/><ellipse class="cls-3" cx="338.46" cy="599.74" rx="12.18" ry="14.86" transform="translate(-78.93 51.99) rotate(-7.87)"/><path d="M293.16,535.48a13.72,13.72,0,0,1,1.68,6.73v9.62a17.26,17.26,0,0,1-3.92,8.32,17.46,17.46,0,0,1-5.1,4,20.12,20.12,0,0,1-2.4,1,14.94,14.94,0,0,1-4.87.81h-1.39a9,9,0,0,1-2.3-.34h0c-6.42-1.68-10.76-5.62-12.32-12.06a32.22,32.22,0,0,1-.5-8.34,15.62,15.62,0,0,1,11.2-14.83c3.08-.85,6.45-.69,9.7-.85a11.81,11.81,0,0,1,10.24,6Z"/><path d="M313.23,535.48a13.72,13.72,0,0,0-1.68,6.73v9.62a17.26,17.26,0,0,0,3.92,8.32,17.46,17.46,0,0,0,5.1,4,20.12,20.12,0,0,0,2.4,1,14.94,14.94,0,0,0,4.87.81h1.39a9,9,0,0,0,2.3-.34h0c6.42-1.68,10.76-5.62,12.32-12.06a32.22,32.22,0,0,0,.5-8.34,15.62,15.62,0,0,0-11.2-14.83c-3.08-.85-6.45-.69-9.7-.85a11.81,11.81,0,0,0-10.24,6Z"/><path class="cls-8" d="M251,508.55l-24.8-4.19c-27.75,63.5,28.19,69.49,28.19,69.49S236.88,543.31,251,508.55Z"/><path class="cls-8" d="M372.55,504.36l-24.8,4.19c14.08,34.76-3.39,65.3-3.39,65.3S400.3,567.86,372.55,504.36Z"/><g id="Sombrero"><path class="cls-7" d="M384.57,426.45a18.67,18.67,0,0,1-6.72,2.23c-4.57.55-37.12-5.81-62.9-43.26-7.33-10.65-15.95-25.79-21.34-25.09a1.44,1.44,0,0,0-.84.47,5.89,5.89,0,0,0-.58.72q-5.44,7.82,8.7,39.33a21.35,21.35,0,0,1,1.65,6.39,6.85,6.85,0,0,0,2,4.17,18.81,18.81,0,0,1,3.8,5l.63,1.25a20.09,20.09,0,0,0,16.95,10.94l17.11.81c.35,0,1.45.17,3.11.39,18.62,2.54,25.84,6.63,33.52,3.42,1.3-.55,5-2.11,7-5.88a11.05,11.05,0,0,0,1.09-3.4h0a15.78,15.78,0,0,1-3.15,2.52Z"/><path class="cls-7" d="M372.34,447.3c-40.93-22.07-90.35-24.07-133.47-6.23-47.73,19.74-62.86,45.17-35.58,73.13s70.81,30.74,95.81,30.74c24.49,0,55.67,2.31,96.65-30.74,24.72-19.93,14.51-46.46-23.42-66.9Z"/><path class="cls-5" d="M399.62,467.3c4.55,5.19-8.43,31.38-51.87,41.24-16.72,3.8-56.36,7.3-72.31-2-2.62-1.52-1.16-30.9-1.16-33.92,0-21.9-13.73-41.28,29.38-43.55,60-3.16,90,31.43,95.95,38.18Z"/><path class="cls-9" d="M322.79,372.82c-2.78-6.55-7-11.53-12.9-14.29h0c-7.88-3.65-17.46-1.71-22.66,1.41-7.73,4.65-9.76,14.3-10.64,18.2-4.25,19-16,58.2-32.77,112.43,2.38,2.91,23.35,19.81,57.8,18.84,32-.91,50.6-15.52,53.3-18.84-9.5-38.87-22.62-78.88-32.12-117.75Z"/><path class="cls-6" d="M387.72,423.93c1.44-9.12-9.2-16.37-27.3-31.1,0,0-42.89-34.89-57.59-36.17a32.63,32.63,0,0,0-5.07,0,27,27,0,0,0-5.82,1.19,27.48,27.48,0,0,0-4.74,2.07h.05c12.64.11,28,1.1,32.48,25,3.39,41,2.24,80,5.64,121,18-4.73,28.44-13.19,30.42-15.61-6.46-26.44-15.18-53.68-23.09-80.64a1.45,1.45,0,0,1,2.36-1.47c8.76,8,24.6,23.69,43.49,22.66a20.12,20.12,0,0,0,6.85-1.64,12.3,12.3,0,0,0,2.34-5.34Z"/><path class="cls-8" d="M291.7,474.05c-8.19-.81-11.08-3.31-24.39-8.06-3.23-1.16-8.23-2.86-14.53-4.65l-5,16.51c19.44,9.88,35,16.37,43,18.62a24.7,24.7,0,0,0,10.88.79c2.52-.42,6.42-1,9.63-4.31a14.47,14.47,0,0,0,4-10.47,19.36,19.36,0,0,0-.74-4.15c-.58-2-.87-3-1.55-3.74-1.81-1.84-5.29-.52-9.56,0-2.61.33-5.64,0-11.71-.57Z"/><path class="cls-7" d="M293.58,449.47c3.45-3.3,11.26-2.89,13.7.52,3.23,4.5-4.18,12.44-.34,17.34,1.49,1.91,2.88,1,5.51,3.09,4.38,3.42,6.63,10.56,4.91,17.08a17.63,17.63,0,0,1-11.63,12.19,18.19,18.19,0,0,1-11.89-.52c-1.59-.58-7.68-2.79-10.68-9.27a17.84,17.84,0,0,1-.69-12.62c1.91-5.55,5.28-5,8-10.47,4-7.9-.83-13.57,3.1-17.34Z"/><path class="cls-8" d="M307,474.05c8.11-.81,11.56-3.28,24.39-8.06,3.79-1.41,9.31-3.37,16.17-5.41l4.74,16.23C332.07,487.34,316,494.22,308,496.48a24.66,24.66,0,0,1-10.88.79c-2.52-.42-6.42-1-9.63-4.31a14.47,14.47,0,0,1-4-10.47,19.36,19.36,0,0,1,.74-4.15c.58-2,.87-3,1.55-3.74,1.81-1.84,5.29-.52,9.56,0,2.61.33,5.64,0,11.71-.57Z"/><path class="cls-10" d="M295,452.58a1.68,1.68,0,0,1,1.66-1.66h7.54a1.68,1.68,0,0,1,1.66,1.66v16l1.48.78a14.78,14.78,0,0,1,7.7,10.49l5.57,5.55a20.48,20.48,0,0,0,.22-2.95,20.25,20.25,0,0,0-9.42-17.12V452.58a7.2,7.2,0,0,0-7.21-7.18h-7.54a7.2,7.2,0,0,0-7.21,7.18v1.8l5.55,5.53v-7.33Z"/><path class="cls-10" d="M286,485.91l-5.81-5.79a20.38,20.38,0,0,0,22.63,22.54L297,496.87a14.87,14.87,0,0,1-11-11Z"/><path class="cls-11" d="M320.59,485.43,315,479.88a14.75,14.75,0,0,1-14.61,17.4,14.55,14.55,0,0,1-3.45-.41l5.81,5.79a20.4,20.4,0,0,0,17.81-17.23Z"/><path class="cls-11" d="M285.55,482.48a14.76,14.76,0,0,1,7.94-13.09l1.48-.78v-8.7l-5.55-5.53v11a20.25,20.25,0,0,0-9.27,14.77l5.81,5.79a14.91,14.91,0,0,1-.41-3.43Z"/></g><path class="cls-12" d="M304.8,633.51a2.22,2.22,0,0,0-2.22-2.24h-4.39l6.56,6.54,0-4.3Z"/><path class="cls-12" d="M291.1,648.11l.09-8.4-4.4-4.38-.16,15a2.22,2.22,0,0,0,2.22,2.24h13.54a2.23,2.23,0,0,0,1.27-.4l-4-4Z"/><path class="cls-11" d="M304.62,650.35l.13-12.54-6.56-6.54H289a2.22,2.22,0,0,0-2.22,2.19l0,1.87,4.4,4.38,0-4h9.1l-.13,12.42h-.58l4,4a2.22,2.22,0,0,0,1-1.79Z"/><path class="cls-8" d="M300.33,635.7a194.65,194.65,0,0,1-52.61-6.51l-2.81,10.93a180.15,180.15,0,0,0,19.4,4.88c7.32,1.41,13.05,2,15.51,2.3a170.11,170.11,0,0,0,20.38.83l.06-5.49c0-2.31.05-4.62.07-6.92Z"/><ellipse class="cls-4" cx="251.92" cy="634.98" rx="5.68" ry="13.61" transform="translate(-412.83 477.6) rotate(-55.04)"/><path class="cls-13" d="M362.14,575.51,231.47,645.7a12.58,12.58,0,0,1,5.56,7l128.86-69.91c1.86-1,2.38-3.6,1.44-6.11-1.61-1.46-3.64-2-5.19-1.14Z"/><path class="cls-14" d="M368.61,578.18h0a8,8,0,0,0-1.29-1.52c.94,2.51.42,5.1-1.44,6.11l-10.16,5.51q-14.28,3.32-14.17,3.83c.05.27,3,0,8.72-.87L242.86,649.53c-2.2-3.59-5.69-5.48-8.81-4.87-.43.08-2.7.52-3.41,2.12-1,2.32,1.55,6.41,7,9.72l130.32-70.7c2.24-1.21,2.55-4.73.68-7.62Z"/><path class="cls-14" d="M237,652.67a12.58,12.58,0,0,0-5.56-7,12.16,12.16,0,0,0-4.73-1.59,13.28,13.28,0,0,0-2.37-.07l-15.65,1a2.51,2.51,0,0,1,1.8,1.69q.83,2.57,1.9,5.08c.47,1.11,1,2.21,1.54,3.31a57.73,57.73,0,0,0,3.75,6.4c.27.4.55.79.83,1.19.72,1,1.46,2,2.23,2.93a57.55,57.55,0,0,0,7.85,8,2.52,2.52,0,0,1,.88,2.3l6.86-14.11a12.24,12.24,0,0,0,1.25-5.31,12.5,12.5,0,0,0-.59-3.82Z"/><path class="cls-15" d="M181.09,663.33c-.09-.33-.19-.67-.27-1Z"/><path class="cls-15" d="M183.69,670.69c-.18-.43-.36-.86-.53-1.29C183.33,669.83,183.51,670.26,183.69,670.69Z"/><path class="cls-15" d="M178.82,648.17v0Z"/><path class="cls-15" d="M178.84,648.88c0-.21,0-.42,0-.62C178.82,648.46,178.82,648.67,178.84,648.88Z"/><path class="cls-15" d="M183.06,669.17c-.17-.44-.34-.88-.5-1.31C182.72,668.3,182.89,668.73,183.06,669.17Z"/><path class="cls-15" d="M178.87,649.66l0-.71C178.84,649.18,178.86,649.41,178.87,649.66Z"/><path class="cls-15" d="M192.65,685.35c-.14-.16-.27-.33-.4-.49C192.38,685,192.52,685.19,192.65,685.35Z"/><path class="cls-15" d="M190.72,682.9l-.21-.29Z"/><path class="cls-15" d="M178.81,647.52v0Z"/><path class="cls-15" d="M191.8,684.3c-.11-.14-.23-.28-.34-.43Z"/><path class="cls-15" d="M185.92,675.35c-.22-.4-.43-.81-.63-1.21C185.49,674.54,185.7,675,185.92,675.35Z"/><path class="cls-15" d="M186.74,676.83c-.2-.34-.39-.69-.58-1C186.35,676.14,186.54,676.49,186.74,676.83Z"/><path class="cls-15" d="M189.9,681.77l-.23-.33Z"/><path class="cls-15" d="M185.17,673.89c-.51-1-1-2-1.4-3C184.2,671.87,184.66,672.88,185.17,673.89Z"/><path class="cls-15" d="M187.66,678.37c-.21-.35-.42-.69-.62-1C187.24,677.68,187.45,678,187.66,678.37Z"/><path class="cls-15" d="M188.89,680.31c-.33-.49-.65-1-.95-1.48C188.25,679.32,188.56,679.82,188.89,680.31Z"/><path class="cls-15" d="M193.87,686.77l-.88-1C193.28,686.1,193.57,686.44,193.87,686.77Z"/><path class="cls-1" d="M190.09,663.48c-.16-.32-.31-.65-.45-1-1.17.25-2.48.49-3.89.67-1.84.24-3.38.32-4.47.36l-.17-.11c.4,1.41.87,2.87,1.42,4.36a1.43,1.43,0,0,0,.16-.24,64.65,64.65,0,0,1,7.4-4.07Z"/><path class="cls-1" d="M210.37,699.82a43.12,43.12,0,0,1,2.66-8.65c.14-.31.27-.62.41-.92a12.82,12.82,0,0,1-1.51-.24,33.89,33.89,0,0,1-3.46,3.35,31,31,0,0,1-4,2.84c-.8-.56-1.61-1.16-2.42-1.79l0-.48a48.58,48.58,0,0,1,2.76-4.09c.78-1,1.53-1.94,1.9-2.43l-.08-.08a42.44,42.44,0,0,1-4.18,3.9c-.87.7-1.63,1.23-2.17,1.59l-.13,0c-1-.86-2-1.78-3.07-2.77a.37.37,0,0,0,0-.11,9,9,0,0,1,1.24-2.55c.61-.84,1.27-1.39,1.17-1.52s-.57.33-1.56.66a7.4,7.4,0,0,1-1.7.33,12.92,12.92,0,0,1-2.16.06,61,61,0,0,0,21.23,15.3c-1.32-.57-3-1.35-4.88-2.37v0Z"/><path class="cls-1" d="M180.38,659c2.6-1.1,5.47-2.17,8.58-3.15a13.05,13.05,0,0,1,.4-1.61c-1.43,0-2.93,0-4.49-.14a53.42,53.42,0,0,1-5.72-.75c-.14-1.33-.23-2.54-.28-3.61a60.53,60.53,0,0,0,1.93,12.59c-.28-1.07-.53-2.12-.73-3.12a1.21,1.21,0,0,0,.31-.21Z"/><path class="cls-1" d="M215.44,685.83c-.21-.13-1.33,1.76-3.51,4.18a12.82,12.82,0,0,0,1.51.24C214.55,687.81,215.63,686,215.44,685.83Z"/><path class="cls-1" d="M195.69,661c-.05-.15-2.41.76-6.05,1.54a10.67,10.67,0,0,0,.45,1l.28-.13c2.84-1.31,5.37-2.24,5.32-2.39Z"/><path class="cls-15" d="M206.58,687.32l.08.08c.17-.22.27-.36.25-.38S206.78,687.11,206.58,687.32Z"/><path class="cls-1" d="M197.52,653.51a54,54,0,0,1-8.16.69,12.62,12.62,0,0,0-.4,1.61l1.54-.47c2.45-.73,4.79-1.33,7-1.82Z"/><path class="cls-15" d="M185.29,674.14l-.12-.24Z"/><path class="cls-15" d="M208.72,645a2.43,2.43,0,0,0-.81-.08l0,.13Z"/><path class="cls-15" d="M183.77,670.89a1.67,1.67,0,0,1-.08-.2A1.67,1.67,0,0,1,183.77,670.89Z"/><path class="cls-15" d="M192.25,684.85l-.44-.55Z"/><path class="cls-15" d="M183.15,669.4l-.09-.23Z"/><path class="cls-15" d="M187,677.33c-.1-.17-.19-.34-.29-.5C186.84,677,186.93,677.17,187,677.33Z"/><path class="cls-15" d="M189.67,681.44l-.78-1.13C189.15,680.7,189.41,681.07,189.67,681.44Z"/><path class="cls-15" d="M187.94,678.83c-.1-.15-.19-.3-.28-.46Z"/><path class="cls-15" d="M191.47,683.87c-.25-.32-.5-.65-.74-1Z"/><path class="cls-15" d="M186.17,675.8c-.08-.15-.16-.3-.25-.45C186,675.5,186.08,675.65,186.17,675.8Z"/><path class="cls-15" d="M228.34,678.31l-2.44,5a12.36,12.36,0,0,1-3.36,4.24h0a84.43,84.43,0,0,1-7.08,14.76c.36.16.71.3,1,.42l12.13-24.69-.26.26Z"/><path class="cls-15" d="M193,685.75l-.35-.41C192.76,685.48,192.88,685.61,193,685.75Z"/><path class="cls-15" d="M194,686.93h0l-.14-.16Z"/><path class="cls-15" d="M190.51,682.61l-.61-.84Z"/><path class="cls-15" d="M182.53,667.78l0,.08,0-.08Z"/><path class="cls-15" d="M181.11,663.42h0l0-.09a.41.41,0,0,1,0,.09Z"/><path class="cls-15" d="M228.62,673.62a57.55,57.55,0,0,1-7.85-8l-.93.51a4,4,0,0,1-1.56.46c2.07,1.79,4.48,3.5,7.09,5.36,1.51,1.08,3.85,2.65,3.91,4.42l.23-.46a2.55,2.55,0,0,0-.88-2.3Z"/><path class="cls-15" d="M208.57,647.22c.67,2.21,1.25,4.13,1.77,5.79a3.62,3.62,0,0,1,.61-.41l1.47-.79c-.71-1.67-1.35-3.37-1.9-5.08a2.57,2.57,0,0,0-1.8-1.69l-.77.05c.15.52.36,1.26.63,2.13Z"/><path class="cls-15" d="M222.54,687.56a12.26,12.26,0,0,0,3.36-4.24l2.44-5a21.36,21.36,0,0,1-1.72,1.34c-2.46,1.86-2.91,4.5-4.08,7.91Z"/><path class="cls-15" d="M215.19,663.55a27.78,27.78,0,0,0,3.08,3.05,4,4,0,0,0,1.56-.46l.93-.51c-.77-1-1.51-1.93-2.23-2.93l-.75.41a4.33,4.33,0,0,1-2.59.44Z"/><path class="cls-15" d="M213,655.63l1-.52c-.55-1.09-1.06-2.19-1.54-3.31l-1.47.79a4.33,4.33,0,0,0-.61.41c.47,1.49.89,2.78,1.29,3.9a3.67,3.67,0,0,1,1.37-1.28Z"/><path class="cls-15" d="M214,655.11l-1,.52a3.67,3.67,0,0,0-1.37,1.28,22.23,22.23,0,0,0,2.28,5,18.74,18.74,0,0,0,1.29,1.68,4.33,4.33,0,0,0,2.59-.44l.75-.41c-.28-.39-.56-.78-.83-1.19a59.34,59.34,0,0,1-3.75-6.4Z"/><path class="cls-15" d="M206.67,687.4c-.38.49-1.12,1.39-1.9,2.43a48.58,48.58,0,0,0-2.76,4.09l0,.48c.82.64,1.63,1.23,2.42,1.79a31,31,0,0,0,4-2.84,32.86,32.86,0,0,0,3.46-3.35,12.13,12.13,0,0,1-5.26-2.61Z"/><path class="cls-15" d="M196.17,686.87a7.4,7.4,0,0,0,1.7-.33c1-.33,1.48-.78,1.56-.66s-.57.68-1.17,1.52A9,9,0,0,0,197,690s0,.08,0,.11c1,1,2.05,1.91,3.07,2.77l.13,0c.54-.36,1.3-.9,2.17-1.59a41.26,41.26,0,0,0,4.18-3.9,12.88,12.88,0,0,1-2.2-2.48l-13.49-20a12.82,12.82,0,0,1-.8-1.37,64.65,64.65,0,0,0-7.4,4.07c-.05.08-.1.16-.16.24l0,.08c.16.44.33.87.5,1.31l.09.23c.17.43.35.86.53,1.29a1.67,1.67,0,0,1,.08.2c.43,1,.89,2,1.4,3l.12.24c.2.4.41.81.63,1.21.08.15.16.3.25.45.19.34.38.69.58,1,.1.17.19.34.29.5.2.35.41.69.62,1l.28.46c.31.49.62,1,.95,1.48s.52.76.78,1.13l.23.33.61.84.21.29c.25.33.5.65.74,1l.34.43.44.55c.13.17.27.33.4.49s.23.27.35.41c.29.34.58.68.88,1l.14.16a12.92,12.92,0,0,0,2.16-.06Z"/><path class="cls-15" d="M222.54,687.56a12.54,12.54,0,0,1-9.1,2.69c-.14.3-.27.61-.41.92a42.48,42.48,0,0,0-2.66,8.65v0c1.9,1,3.56,1.8,4.88,2.37l0,0,.17.07a83.35,83.35,0,0,0,7.08-14.75h0Z"/><path class="cls-15" d="M185.75,663.17c1.41-.18,2.71-.42,3.89-.67a12.09,12.09,0,0,1-.68-6.69c-3.11,1-6,2.06-8.58,3.15a1.21,1.21,0,0,1-.31.21c.21,1,.45,2.05.73,3.12v0c.1.33.19.66.28,1l0,.09a.62.62,0,0,1,.17.11,44.25,44.25,0,0,0,4.47-.36Z"/><path class="cls-15" d="M179.15,653.32a53.08,53.08,0,0,0,5.72.75c1.56.12,3,.16,4.49.14a12.35,12.35,0,0,1,11.06-8.63l7.52-.48,0-.13-29.09,2v1.31c0,.2,0,.41,0,.62V649c0,.23,0,.46,0,.71v0c0,1.06.14,2.27.28,3.61Z"/><path class="cls-15" d="M211.69,662.36h0c-.11-.23-.21-.46-.29-.68a7.93,7.93,0,0,1-1.75-2.35h0c-1.21-2.45-.89-5,.69-6.32-.52-1.66-1.1-3.57-1.77-5.79-.27-.88-.48-1.61-.63-2.13l-7.52.48a12.35,12.35,0,0,0-11.06,8.63,55.05,55.05,0,0,0,8.16-.69c-2.23.49-4.58,1.09-7,1.82l-1.54.47a12.18,12.18,0,0,0,.68,6.69c3.64-.78,6-1.69,6.05-1.54s-2.49,1.08-5.32,2.39l-.28.13a14.77,14.77,0,0,0,.8,1.37l13.49,20a12.59,12.59,0,0,0,2.2,2.48c.2-.2.31-.32.33-.3s-.08.15-.25.38a12.35,12.35,0,0,0,5.26,2.61c2.18-2.42,3.3-4.31,3.51-4.18s-.88,2-2,4.42a12.52,12.52,0,0,0,9.1-2.69c1.17-3.41,1.62-6,4.08-7.91.66-.5,1.26-.92,1.72-1.34l.94-1.93c-.07-1.77-2.4-3.34-3.91-4.42-2.61-1.86-5-3.57-7.09-5.36-2.4.22-5.21-1.48-6.57-4.24Z"/><path class="cls-15" d="M215.19,663.55a6.94,6.94,0,0,1-3.79-1.87c.09.23.18.46.29.68h0c1.37,2.76,4.18,4.47,6.57,4.24a28.67,28.67,0,0,1-3.08-3.05Z"/><path class="cls-15" d="M209.65,659.33h0a8.29,8.29,0,0,0,1.75,2.35,5.36,5.36,0,0,1,.23-4.76c-.4-1.12-.82-2.41-1.29-3.9-1.59,1.32-1.91,3.86-.69,6.32Z"/><path class="cls-15" d="M211.4,661.68a6.9,6.9,0,0,0,3.79,1.87,20.28,20.28,0,0,1-1.29-1.68,22.23,22.23,0,0,1-2.28-5,5.36,5.36,0,0,0-.23,4.76Z"/><path class="cls-13" d="M232.46,651.37a11.31,11.31,0,0,0-7.7-6.41c-3.16-.77-7.89-.5-9.78,2.26a5.24,5.24,0,0,0-.94,3.5,12.18,12.18,0,0,0,1.15,2.48A44,44,0,0,0,218,658c.2.3.41.59.62.89.86,1.21,1.57,2.07,1.67,2.2s2.92,3.55,6.07,3.25c2.44-.23,4.66-2.61,5.46-5.82l.14-.3a9.17,9.17,0,0,0,.94-4,10.9,10.9,0,0,0-.44-2.86Z"/><path class="cls-14" d="M312,603.48c.12.44,6.07-.4,11.79-3,1.23-.56,4.34-2.07,4.22-2.37-.27-.65-16.21,4.64-16,5.38Z"/><ellipse class="cls-3" cx="244.1" cy="640.52" rx="12.18" ry="14.86"/><ellipse class="cls-4" cx="330.76" cy="604.51" rx="5.69" ry="13.6" transform="translate(-295.51 317.06) rotate(-36.66)"/></svg>