<svg xmlns="http://www.w3.org/2000/svg" viewBox="0 0 44.97 18.32"><defs><style>.cls-1{fill:#fff;}</style></defs><g id="Capa_2" data-name="Capa 2"><g id="Capa_7" data-name="Capa 7"><path class="cls-1" d="M44.47,16.45H.47A.43.43,0,0,0,0,16.9v1.26a1,1,0,0,0,0,.14.32.32,0,0,0,.1-.1,1,1,0,0,1,.71-.53,3.64,3.64,0,0,1,.56-.05H43.7a4.38,4.38,0,0,1,.63.12,1.13,1.13,0,0,1,.58.58.65.65,0,0,0,0-.19c0-.39,0-.78,0-1.18S44.93,16.45,44.47,16.45Z"/><path class="cls-1" d="M12.65,8.5a.78.78,0,0,0-.22,0l0,.06a1.56,1.56,0,0,1,.2.16,1.32,1.32,0,0,1,.45,1.09c0,.91,0,1.82,0,2.74,0,.45,0,.9,0,1.35a1.15,1.15,0,0,1-.49.94l-.08.09h2.36a2.45,2.45,0,0,1-.23-.31,1.52,1.52,0,0,1-.27-.52c-.06-.45-.07-.92-.1-1.38,0-.19.07-.26.26-.27H15a.93.93,0,0,1,1,.66c.19.51.42,1,.62,1.53.12.29.17.33.48.33h3.58l-.09-.1a.88.88,0,0,1-.28-.92l.12-.39a.31.31,0,0,1,.32-.23h2a.35.35,0,0,1,.27.16,3.22,3.22,0,0,1,.2.69.69.69,0,0,1-.24.61L22.8,15h2.29l-.14-.2a4.69,4.69,0,0,1-.5-.83c-.47-1.2-.91-2.4-1.35-3.6-.2-.54-.4-1.08-.59-1.62-.05-.14-.12-.25-.3-.25h-1.4a2,2,0,0,0-.27.06.78.78,0,0,1,.36.8,2.46,2.46,0,0,1-.1.47l-1.11,3a7.7,7.7,0,0,1-.91,1.84c-.24.35-.41.37-.63,0a16.23,16.23,0,0,1-.84-1.46c-.17-.34-.27-.71-.66-.86v0l.13-.07a1.67,1.67,0,0,0,1-1.38,5.39,5.39,0,0,0-.06-1.06,1.23,1.23,0,0,0-.88-1,2.26,2.26,0,0,0-.72-.15C15,8.52,13.8,8.51,12.65,8.5ZM21.71,10h0l.86,2.47H20.84Zm-5.22.1a3.78,3.78,0,0,1,0,.89.67.67,0,0,1-.55.58c-.34.07-.68.08-1,.12v0h-.58c-.09,0-.13,0-.13-.11,0-.61,0-1.23,0-1.84,0-.21.1-.29.3-.28.43,0,.85,0,1.27,0A.65.65,0,0,1,16.49,10.06Z"/><path class="cls-1" d="M33.23,14.43a.74.74,0,0,0-.2.71c0,.06.08.16.13.16.41,0,.74-.06.83-.48a7,7,0,0,0,2.88,0,.45.45,0,0,0,.35.42,2,2,0,0,0,.49,0,.22.22,0,0,0,.12-.13.85.85,0,0,0-.19-.72,1.45,1.45,0,0,0,.43-1c0-.61,0-1.22,0-1.83A1.61,1.61,0,0,0,37.22,10l.13-.11a1.7,1.7,0,0,0,.55-.74c0-.12,0-.22-.1-.27a5.58,5.58,0,0,0-.67-.28,6.52,6.52,0,0,0-2.6-.21A4.38,4.38,0,0,0,33,8.73c-.11,0-.17.12-.12.24a3.41,3.41,0,0,0,.31.6,2.4,2.4,0,0,0,.39.39,1.49,1.49,0,0,0-.85,1.33c0,.44,0,.89,0,1.34,0,.19,0,.39,0,.59A1.67,1.67,0,0,0,33.23,14.43Zm.55-5.34A3.48,3.48,0,0,1,37,9a.93.93,0,0,1,.15.13,1.51,1.51,0,0,1-.17.1,6.27,6.27,0,0,1-2.48.15c-.22,0-.44-.07-.65-.12-.05,0-.09-.06-.13-.09A.38.38,0,0,1,33.78,9.09Z"/><path class="cls-1" d="M12.66,6.64a6,6,0,0,0,2.6.06,1.62,1.62,0,0,0,1.52-1.87c0-.39,0-.79,0-1.19,0-.61,0-1.23,0-1.85A1.5,1.5,0,0,0,15.64.21a5.72,5.72,0,0,0-3.15,0,1.36,1.36,0,0,0-1,1.26c0,.64,0,1.27-.05,2,0,.53,0,1.12.05,1.71A1.39,1.39,0,0,0,12.66,6.64Zm.07-4.88a.61.61,0,0,1,.63-.68,12.34,12.34,0,0,1,1.49,0,.62.62,0,0,1,.63.58c0,.44,0,.89.06,1.34s0,1.2,0,1.8a1.58,1.58,0,0,1,0,.38.76.76,0,0,1-.77.6,8.83,8.83,0,0,1-1.36,0A.63.63,0,0,1,12.73,5c0-.54,0-1.09,0-1.64S12.72,2.31,12.73,1.76Z"/><path class="cls-1" d="M28.51,6.64a6.06,6.06,0,0,0,2.84,0,1.45,1.45,0,0,0,1.27-1.5A19.11,19.11,0,0,0,32.67,3c0-.52,0-1-.06-1.55A1.38,1.38,0,0,0,31.54.22a5.65,5.65,0,0,0-3.08,0,1.36,1.36,0,0,0-1.11,1.41c0,.6,0,1.2,0,1.8s0,1.16,0,1.74A1.42,1.42,0,0,0,28.51,6.64Zm0-4.33a4,4,0,0,1,0-.49.75.75,0,0,1,.68-.76,4.33,4.33,0,0,1,1.48,0,.7.7,0,0,1,.63.67c0,.36,0,.74.05,1.11,0,.19,0,.38,0,.57h0V4.81a1.34,1.34,0,0,1-.05.35.74.74,0,0,1-.73.61,8.31,8.31,0,0,1-1.32,0c-.47,0-.66-.29-.73-.79a2.69,2.69,0,0,1,0-.4Z"/><path class="cls-1" d="M25.52,14.86l-.11.06V15a1.81,1.81,0,0,0,.23,0c.8,0,1.61,0,2.42,0,.51,0,1,0,1.54-.09a1.74,1.74,0,0,0,1.07-.47,1.8,1.8,0,0,0,.52-1.21,18.28,18.28,0,0,0,0-3.14,1.45,1.45,0,0,0-1-1.34,5.56,5.56,0,0,0-1.08-.2,6.33,6.33,0,0,0-.87,0l-2.6,0a1.17,1.17,0,0,0-.24.06l.16.09a.94.94,0,0,1,.52.66,4.27,4.27,0,0,1,.07.71c0,1.16,0,2.33,0,3.49a4.93,4.93,0,0,1,0,.55A1,1,0,0,1,25.52,14.86Zm2-5.44c.55,0,1.11,0,1.67.11a.84.84,0,0,1,.79.9c0,.88,0,1.77,0,2.65a.82.82,0,0,1-.84.9c-.56,0-1.13,0-1.69,0-.12,0-.1-.08-.1-.16V11.72c0-.71,0-1.42,0-2.13C27.31,9.46,27.35,9.41,27.49,9.42Z"/><path class="cls-1" d="M33.77.3a1,1,0,0,1,.63.9c0,.1,0,.21,0,.31V5c0,.28,0,.55,0,.82a.79.79,0,0,1-.49.7,1.58,1.58,0,0,0-.16.14H36l-.1-.08a1,1,0,0,1-.5-.7,2.7,2.7,0,0,1,0-.49c0-1,0-2,0-3,0-.06,0-.12,0-.19h0c0,.06.09.12.13.19.38.59.77,1.18,1.14,1.78S37.56,5.5,38,6.21a1,1,0,0,0,.8.54,2.27,2.27,0,0,0,.45,0c.13,0,.2-.07.2-.2V5.73c0-1.46,0-2.93,0-4.39A1.06,1.06,0,0,1,40,.3s.05,0,.07-.08a12.19,12.19,0,0,0-2.35,0l.14.07a.92.92,0,0,1,.52.66,2.42,2.42,0,0,1,.06.46c0,1.05,0,2.1,0,3.14a1.94,1.94,0,0,1,0,.24.42.42,0,0,1-.14-.16L36.7,2.08,35.62.38a.36.36,0,0,0-.34-.2c-.48,0-1,0-1.45,0l-.16,0s0,.05,0,.05Z"/><path class="cls-1" d="M9.44,8.68c0-.14-.13-.23-.29-.21s-.25,0-.38,0H7.55a1,1,0,0,0,.09.16,1.1,1.1,0,0,1,.12,1.16c-.26.61-.47,1.25-.69,1.87A12.06,12.06,0,0,1,5.55,14.9a.64.64,0,0,0,0,.07H7.59l-.15-.17a.77.77,0,0,1-.21-.72,3.79,3.79,0,0,1,.14-.48.32.32,0,0,1,.34-.24H9.38c.53,0,.53,0,.69.52a.91.91,0,0,1-.24,1l0,.06H12l-.12-.19a7.41,7.41,0,0,1-.58-1c-.47-1.2-.9-2.41-1.35-3.62C9.79,9.65,9.61,9.16,9.44,8.68ZM7.79,12.43c.3-.83.59-1.65.87-2.47h.05l.86,2.47Z"/><path class="cls-1" d="M41.12,8.53H39c.16.19.32.34.44.51l1.66,2.51a.29.29,0,0,1,0,.35c-.1.14-.2.28-.31.41l-2,2.6s0,0,0,.06h2v-.05a.7.7,0,0,1,0-1l.76-1.17.2-.3.08.1c.28.45.54.91.82,1.35s.34.67.08,1v0h2.13a.62.62,0,0,0-.08-.12c-.76-.92-1.37-1.95-2-2.93a.36.36,0,0,1,0-.45c.41-.59.81-1.2,1.23-1.79a3.44,3.44,0,0,1,.81-1,.55.55,0,0,0,.12-.14.7.7,0,0,0-.19-.06h-1.8c0,.1,0,.19.07.28a.63.63,0,0,1-.05.58l-.84,1.54s0,0-.06.08c-.35-.6-.7-1.16-1-1.74a.58.58,0,0,1,.06-.64A1,1,0,0,0,41.12,8.53Z"/><path class="cls-1" d="M.11,14.9.05,15H2.54l0,0a.78.78,0,0,1-.2-.16c-.12-.14-.29-.28-.32-.45-.09-.58-.12-1.17-.18-1.77l.29,0c.66,0,1.32-.05,2-.12a1.26,1.26,0,0,0,1.2-.92A3.45,3.45,0,0,0,5.4,9.62a1.16,1.16,0,0,0-1.15-1c-1.34-.06-2.68-.09-4-.13a.77.77,0,0,0-.17.05s0,.06.06.07A1.14,1.14,0,0,1,.75,9.76c0,1.32,0,2.65,0,4A1.22,1.22,0,0,1,.11,14.9ZM3.63,9.45a.61.61,0,0,1,.55.53,4,4,0,0,1,0,.91.7.7,0,0,1-.66.67c-.5,0-1,0-1.51,0A.14.14,0,0,1,2,11.52V9.33C2.54,9.37,3.08,9.39,3.63,9.45Z"/><path class="cls-1" d="M5.39,1.67c0,1.16,0,2.32,0,3.48a4.6,4.6,0,0,1,0,.64.83.83,0,0,1-.46.69s-.07.07-.14.14H7.25l0,0-.18-.12a.86.86,0,0,1-.47-.79c0-.45,0-.9-.07-1.35,0-.14,0-.18.18-.17A10.18,10.18,0,0,0,9,4a1.14,1.14,0,0,0,1-1,9.73,9.73,0,0,0,.07-1.32,1.28,1.28,0,0,0-1-1.31A5.94,5.94,0,0,0,8,.19l-3,0a2.26,2.26,0,0,0-.33,0A1.4,1.4,0,0,1,5.39,1.67Zm1.2-.46V1c.3,0,.57,0,.83,0a8.52,8.52,0,0,1,.87.08.58.58,0,0,1,.51.45,2.32,2.32,0,0,1,0,1.08.66.66,0,0,1-.58.55c-.44,0-.89,0-1.34.06s-.32,0-.32-.33Z"/><path class="cls-1" d="M17.89,1.55a2.31,2.31,0,0,1,1.72-.48.23.23,0,0,1,.26.23c0,.13,0,.27,0,.4V5.25c0,.15,0,.3,0,.45a1,1,0,0,1-.52.86s0,0,0,.06h2.44l-.3-.23c-.07-.08-.17-.16-.19-.25a3,3,0,0,1-.17-.83c0-1.3,0-2.6,0-3.9a3.16,3.16,0,0,1,0-.32,3.1,3.1,0,0,1,2.12.52c0-.11,0-.17,0-.21L23,.68c-.14-.51-.14-.52-.67-.52H18.47a.93.93,0,0,0-.24,0c-.06,0-.13.06-.14.11-.14.43-.26.85-.39,1.28l0,0A.59.59,0,0,0,17.89,1.55Z"/><path class="cls-1" d="M25.7,3.33V3H24.56v.7c0,.56,0,1.12,0,1.67A1.44,1.44,0,0,0,25,6.49a.13.13,0,0,0,.2,0,1.4,1.4,0,0,0,.48-1.08C25.7,4.71,25.7,4,25.7,3.33Z"/><path class="cls-1" d="M24.48,2.13a3,3,0,0,1,.06.51c0,.11,0,.15.15.15s.46,0,.69,0,.33,0,.33-.32a1,1,0,0,1,.53-1s.07-.07.12-.12H23.9v.05l.1.06A.92.92,0,0,1,24.48,2.13Z"/><path class="cls-1" d="M25.65,1.05a2.44,2.44,0,0,0,0-.47.47.47,0,0,0-.53-.41.48.48,0,0,0-.5.43c0,.17,0,.35,0,.55.33,0,.63,0,.94,0A.17.17,0,0,0,25.65,1.05Z"/></g></g></svg>