<?xml version="1.0" encoding="UTF-8"?><svg id="Capa_2" xmlns="http://www.w3.org/2000/svg" viewBox="0 0 102.74 256.71"><defs><style>.cls-1{fill:#362f3f;}.cls-2{fill:#eeb558;}.cls-3{fill:#f7e9d2;}.cls-4{fill:#f8d392;}.cls-5{fill:#6bad0a;}.cls-6{fill:#008f3e;}</style></defs><g id="Capa_1-2"><path class="cls-3" d="M7.63,220.39C2.82,214.48,0,207.38,0,199.72c0-20.59,20.32-37.17,45.19-37.17,24.87,0,45.19,16.58,45.19,37.17,.09,4.13,.55,10.03,2.34,16.82,4.12,15.68,12.42,25.28,9.34,28.62-.72,.78-2.25,1.43-5.88,.56,0,0-10.28-2.55-14.46-8.83-4.18-6.29-11.65-6.15-11.65-6.15l.03-.04c-7.16,3.9-15.71,6.19-24.91,6.19-2.44,0-4.83-.16-7.17-.47h0c-8.5-.44-13.49,7.45-15.25,14.2-1.76,6.74-6.3,6.01-6.3,6.01,0,0-8.8,1.61-5.18-9.53,3.62-11.13-3.66-26.68-3.68-26.71Z"/><g><g><path class="cls-2" d="M47.69,126.6c-19.21,0-34.92-12.57-34.92-28.17v38.82c6.19-4.46,14.26-7.25,23.18-7.25,19.21,0,34.92,12.57,34.92,28.17v58.06c7.14-5.15,11.73-12.56,11.73-20.92V98.43c0,15.61-15.7,28.17-34.92,28.17Z"/><path class="cls-4" d="M35.96,130c-8.92,0-17,2.79-23.18,7.25v58.06c0,15.61,15.7,28.17,34.92,28.17,8.92,0,17-2.79,23.18-7.25v-58.06c0-15.61-15.7-28.17-34.92-28.17Z"/></g><g><path class="cls-3" d="M76.76,114.97s-5.64,12.03-2.84,20.64c2.8,8.61-4,7.36-4,7.36,0,0-3.51,.57-4.87-4.64-1.36-5.21-5.21-11.31-11.78-10.97"/><path class="cls-3" d="M11.02,112c1.38-5.25,1.74-9.8,1.8-13,0-15.91,15.7-28.72,34.92-28.72,19.21,0,34.92,12.81,34.92,28.72s-15.7,28.72-34.92,28.72c-7.1,0-13.71-1.77-19.24-4.78l.02,.03s-5.77-.11-9,4.75c-3.23,4.86-11.17,6.82-11.17,6.82-2.81,.67-3.99,.17-4.54-.44-2.38-2.58,4.04-10,7.22-22.11Z"/></g><path class="cls-4" d="M77.21,92.29c0,10.64-13.28,19.21-29.52,19.21s-29.52-8.57-29.52-19.21,13.28-19.21,29.52-19.21,29.52,8.57,29.52,19.21Z"/><path class="cls-6" d="M48.37,0s-1.25,15.97,18.24,38.51c19.48,22.54-4.9,38.17-18.25,38.17s-26.15-5.32-26.83-25.03C20.84,31.94,48.37,0,48.37,0Z"/><polyline class="cls-3" points="18.17 137.67 28.24 142.84 26.97 209.63 19.97 201.47 18.21 139.2"/><path class="cls-5" d="M48.18,31.16s-.74,9.48,10.83,22.86c11.56,13.38-2.91,22.66-10.83,22.66s-15.52-3.16-15.93-14.86c-.4-11.7,15.94-30.66,15.94-30.66Z"/><path class="cls-1" d="M47.36,51.53c-.73,7.26-1.36,14.11-.67,21.23,.62,7.13,2.44,13.71,4.68,20.66-11.44-10.24-12.99-29.61-4.01-41.9h0Z"/></g></g></svg>