<svg xmlns="http://www.w3.org/2000/svg" viewBox="0 0 250 250"><defs><style>.cls-1{fill:#fff;}</style></defs><g id="Capa_2" data-name="Capa 2"><path class="cls-1" d="M84.78,78.53h.16l79.48,2.22a5.69,5.69,0,0,1,5.46,5.78L167.66,166a5.65,5.65,0,0,1-5.61,5.46h-.16l-79.48-2.22A5.69,5.69,0,0,1,77,163.47L79.17,84a5.65,5.65,0,0,1,5.61-5.46m0-17a22.7,22.7,0,0,0-22.61,22L60,163a22.7,22.7,0,0,0,22,23.24l79.48,2.22h.64a22.69,22.69,0,0,0,22.6-22L186.87,87a22.69,22.69,0,0,0-22-23.24L85.42,61.54Z"/><path class="cls-1" d="M46.67,109.28a83.2,83.2,0,0,1,43.51,11.89,128.24,128.24,0,0,1,12.45,8.48c5.23,3.91,10.27,8.61,15.15,11.86a3.41,3.41,0,0,0,.45.24,1.4,1.4,0,0,0-.3-.14,9.32,9.32,0,0,0-8.79,2.12,8.23,8.23,0,0,0-2.52,4l.12-.52c4.54-17.77,21-36.3,34.58-48,22.44-19.42,52.87-32.91,82.9-28.49a4.15,4.15,0,0,1,.08,8.19,111.83,111.83,0,0,0-25.39,7.38c-23.71,10.29-43.72,28.47-58.62,49.31a76.6,76.6,0,0,0-8.64,15.26,19.5,19.5,0,0,0-.78,2.89c-2.91,11.77-15.23,15.77-25.25,9.49-7.26-4.52-12.47-10.49-18.19-15.82-6.31-6.1-12.36-11.69-19.52-16.65-7.32-5.2-15-9.31-23-13.54a4.21,4.21,0,0,1,1.78-7.94Z"/></g></svg>