<?xml version="1.0" encoding="UTF-8"?><svg id="Capa_2" xmlns="http://www.w3.org/2000/svg" viewBox="0 0 804.27 614"><defs><style>.cls-1,.cls-2{fill:#a9b0b5;font-family:Hideout-Regular, Hideout-Regular;font-size:32.13px;}.cls-2,.cls-3{opacity:.67;}.cls-4{fill:#e9f2e9;}.cls-5{letter-spacing:-.01em;}.cls-6{letter-spacing:0em;}.cls-7{fill:#009976;}.cls-8{letter-spacing:-.06em;}</style></defs><g id="Capa_2-2"><rect class="cls-7" x="0" y="2.01" width="388.58" height="74.3" rx="37.15" ry="37.15"/><rect class="cls-7" x="415.19" y="2.01" width="388.58" height="74.3" rx="37.15" ry="37.15"/><rect class="cls-4" x="0" y="0" width="388.58" height="70.29" rx="35.14" ry="35.14"/><rect class="cls-4" x="415.19" y="0" width="388.58" height="70.29" rx="35.14" ry="35.14"/><rect class="cls-7" x="0" y="117.98" width="388.58" height="74.3" rx="37.15" ry="37.15"/><rect class="cls-7" x="415.19" y="117.98" width="388.58" height="74.3" rx="37.15" ry="37.15"/><rect class="cls-4" x="0" y="115.97" width="388.58" height="70.29" rx="35.14" ry="35.14"/><rect class="cls-7" x="1.51" y="355.28" width="802.77" height="258.72" rx="42.73" ry="42.73"/><rect class="cls-4" x="1.51" y="347.92" width="802.77" height="257.56" rx="36.9" ry="36.9"/><rect class="cls-4" x="415.19" y="115.97" width="388.58" height="70.29" rx="35.14" ry="35.14"/><g class="cls-3"><text class="cls-1" transform="translate(22.22 43.88)"><tspan class="cls-6" x="0" y="0">N</tspan><tspan x="23.2" y="0">ombre</tspan></text></g><g class="cls-3"><text class="cls-1" transform="translate(438.42 43.88)"><tspan x="0" y="0">Primer apellido</tspan></text></g><text class="cls-2" transform="translate(19.71 161.86)"><tspan x="0" y="0">Segundo apellido</tspan></text><rect class="cls-7" x="0" y="233.95" width="803.77" height="74.3" rx="37.15" ry="37.15"/><rect class="cls-4" x="0" y="231.94" width="803.77" height="70.29" rx="35.14" ry="35.14"/><text class="cls-2" transform="translate(19.71 277.84)"><tspan x="0" y="0">Correo</tspan></text><text class="cls-2" transform="translate(432.39 161.86)"><tspan class="cls-8" x="0" y="0">T</tspan><tspan x="17.74" y="0">elé</tspan><tspan class="cls-5" x="62.27" y="0">f</tspan><tspan x="73.39" y="0">ono</tspan></text><text class="cls-2" transform="translate(23.91 389.79)"><tspan x="0" y="0">Mensaje</tspan></text></g></svg>