<svg xmlns="http://www.w3.org/2000/svg" viewBox="0 0 1920 1080"><defs><style>.cls-1{fill:#302b3f;}.cls-2{fill:#353244;}.cls-3{fill:#413d51;}.cls-4{fill:#4d3534;}.cls-5{fill:#3f3131;}.cls-6{fill:#3a5354;}.cls-7{fill:#323d44;}.cls-8{fill:#426761;}.cls-9{fill:#547a54;}.cls-10{fill:#3d4c45;}</style></defs><g id="Capa_2" data-name="Capa 2"><rect class="cls-1" x="-7.89" y="-21.94" width="1945.64" height="1101.94"/><ellipse class="cls-2" cx="951.45" cy="220.83" rx="1026.38" ry="522.46"/><ellipse class="cls-3" cx="968.55" cy="-47.43" rx="1026.38" ry="522.46"/><polygon class="cls-4" points="309.72 926.11 118.1 926.11 145.65 849.9 153.78 827.38 213.91 661.01 274.61 829 279.38 842.2 309.72 926.11"/><polygon class="cls-4" points="479.31 919.57 371.04 919.57 386.61 844.96 391.2 822.91 425.17 660.03 459.48 824.49 462.17 837.42 479.31 919.57"/><path class="cls-5" d="M66.34,897.83A135.84,135.84,0,0,1,9.25,910.41a136,136,0,0,1-57-12.58l16.41-59,4.84-17.44L9.28,692.55,45.43,822.63l2.85,10.22Z"/><polygon class="cls-6" points="-156.02 851.93 -94.37 768.48 19.99 613.66 117.64 777.28 175.6 874.38 111.85 871.27 88.87 822.95 37.25 867.63 12.16 866.4 -28.28 834.22 -29.36 841.73 -29.21 842.25 -33.69 873.33 -69.18 883.32 -79.81 845.81 -81.21 840.96 -156.02 851.93"/><path class="cls-7" d="M-80.53,778.63-44,747l-2,22.25,32.43,1.59,21-40,28,59.25,22.92-10.66q5-15.06,10-30.13l21.33,26.52,28,1.37L20,613.66-94.37,768.48Z"/><path class="cls-6" d="M-79.92,745.64l38.57-29.06-3.47,22.07,32.24,3.76L11.09,704l16.73,43.16.26,0L35,765l23.59-9.09-.18-46.77L90,754.39l28.27,3.29-37.09-73-8.93-17.56L27.5,579.09l-57.42,67.63L-48,668l-42.21,49.73,0,0-9.5,11.19Z"/><path class="cls-7" d="M-29.92,646.72l-9.82-1.14,13-25a8.61,8.61,0,0,0,4.75-.16c7.63-2.36,11.47-8.13,15.05-14.84A172.47,172.47,0,0,1,2.19,591a9.94,9.94,0,0,0,6-2.15c8.63-7,14.93-16,22.93-23.57,5.12-4.87,11.1-7.82,17.25-10.63l14.48,57.67,23,48.49-13.55,6.38,8.93,17.56-16.89,7.94L40.23,659.15,28.16,676l-32.55-17.3-26.82,11.23L-48,668Z"/><path class="cls-6" d="M-43.34,639.21l19.68,4.21,27.78-8.63,16.57-18.95,6.17,39.45,15.93-17,26.47,36.78,5.46-2,14.1-5.06L100.41,664,75.5,595,61.82,504.6a8.58,8.58,0,0,0-15.66-3.36Z"/><polygon class="cls-8" points="446.68 840.51 -18.86 840.51 54.85 738.36 66.44 722.28 76.41 708.45 209.36 524.09 213.93 517.74 277.2 605.5 359.97 720.31 363.47 725.15 379.75 747.73 446.68 840.51"/><polygon class="cls-7" points="376.92 725.15 314.07 725.15 287.5 670.87 235.74 725.15 209.42 725.15 165.41 690.4 164.66 699.11 164.84 699.68 161.75 735.68 125.1 749.15 112.03 706.63 110.31 701.14 76.41 708.45 209.36 524.09 277.2 605.5 356.31 700.43 376.92 725.15"/><polygon class="cls-8" points="30.72 663.99 95.36 576.48 215.27 414.15 317.66 585.71 378.44 687.53 311.59 684.27 287.49 633.6 233.37 680.45 207.06 679.17 164.66 645.42 163.52 653.3 163.68 653.84 158.99 686.43 121.77 696.9 110.62 657.58 109.15 652.49 30.72 663.99"/><path class="cls-7" d="M109.87,587.13,148.15,554l-2.06,23.33,34,1.66,22-41.89,29.34,62.13,24-11.17q5.2-15.81,10.42-31.6l22.38,27.81,29.37,1.43L215.27,414.15,95.36,576.48Z"/><path class="cls-8" d="M110.51,552.54,151,522.07l-3.63,23.14,33.8,3.95,24.82-40.32,17.54,45.26.27,0L231,572.81l24.74-9.53-.19-49,33.17,47.47,29.65,3.46-38.9-76.51-9.36-18.41-47-92.35-60.22,70.92L144,471.11,99.74,523.25l0,0L89.73,535Z"/><path class="cls-7" d="M162.93,448.82l-10.29-1.2,13.62-26.17a9,9,0,0,0,5-.17c8-2.47,12-8.52,15.79-15.56,2.85-5.35,6.22-10.35,9.57-15.37a10.3,10.3,0,0,0,6.31-2.25c9.06-7.3,15.66-16.76,24.05-24.72,5.37-5.1,11.64-8.19,18.09-11.14l15.18,60.48,24.08,50.83-14.21,6.7,9.36,18.41L261.75,497l-25.26-35.14-12.65,17.68-34.13-18.15-28.13,11.78L144,471.11Z"/><path class="cls-8" d="M148.87,440.94l20.63,4.42,29.13-9.05L216,416.43l6.46,41.37L239.18,440l27.76,38.56,5.72-2,14.78-5.31,12.15-4.35-26.11-72.33L259.13,299.8a9,9,0,0,0-16.42-3.52Z"/><polygon class="cls-9" points="163.77 871.08 649.03 871.08 579.27 794.87 558.66 772.35 406.41 605.98 252.67 773.97 240.59 787.17 163.77 871.08"/><polygon class="cls-10" points="240.59 787.17 312.66 773 314.38 778.01 327.46 816.74 364.11 804.47 367.19 771.68 367.01 771.15 367.76 763.23 411.77 794.87 438.1 794.87 489.86 745.44 516.42 794.87 579.27 794.87 558.66 772.35 406.41 605.98 252.67 773.97 240.59 787.17"/><polygon class="cls-9" points="233.08 752.24 297.72 664.73 417.62 502.39 520.02 673.96 580.79 775.78 513.95 772.51 489.85 721.85 435.72 768.7 409.42 767.41 367.02 733.66 365.88 741.54 366.04 742.09 361.34 774.67 324.13 785.15 312.98 745.82 311.51 740.74 233.08 752.24"/><path class="cls-10" d="M312.23,675.38l38.28-33.13-2.06,23.34,34,1.66,22-41.89,29.34,62.13,24-11.18q5.22-15.79,10.43-31.59l22.37,27.81L520,674,417.62,502.39,297.72,664.73Z"/><path class="cls-9" d="M312.87,640.79l40.44-30.48-3.64,23.15,33.81,3.94,24.81-40.31,17.54,45.25.28,0,7.24,18.67,24.74-9.53-.19-49L491.07,650l29.65,3.45-38.9-76.5-9.37-18.42L425.5,466.15l-60.21,70.91-18.93,22.29L302.09,611.5l0,0-10,11.74Z"/><path class="cls-10" d="M365.29,537.06,355,535.86l21.23-40.79a9.6,9.6,0,0,0,11-1.78c6.19-6,9.31-13.25,12.57-21.05,3.64-8.73,7.73-14.43,15.55-19.89,8.93-6.23,23.46-15.66,28.17-27.3L462.59,501l24.07,50.84-14.21,6.69,9.37,18.42-17.71,8.32L438.85,550.1,426.2,567.78l-34.13-18.15L363.94,561.4l-17.58-2Z"/><path class="cls-9" d="M351.23,529.18l20.63,4.43L401,524.55l17.39-19.87,6.46,41.37q8.35-8.89,16.7-17.78l27.77,38.56,5.72-2,14.78-5.31L502,555.13,475.84,482.8,461.49,388a9,9,0,0,0-16.42-3.52Z"/><polygon class="cls-4" points="1654.95 894.79 1794.76 894.79 1774.66 839.18 1768.72 822.75 1724.86 701.35 1680.56 823.93 1677.08 833.56 1654.95 894.79"/><polygon class="cls-4" points="1463.48 954.76 1601.24 954.76 1581.44 859.84 1575.59 831.78 1532.37 624.55 1488.72 833.8 1485.29 850.24 1463.48 954.76"/><path class="cls-5" d="M1872.42,902.34a135.7,135.7,0,0,0,114.12,0l-16.41-59-4.84-17.43-35.81-128.84-36.15,130.09-2.84,10.22Z"/><polygon class="cls-6" points="2094.78 856.44 2033.13 772.98 1918.78 618.16 1821.12 781.79 1763.16 878.89 1826.91 875.78 1849.9 827.46 1901.52 872.14 1926.6 870.91 1967.04 838.73 1968.13 846.24 1967.98 846.76 1972.45 877.84 2007.94 887.83 2018.58 850.32 2019.98 845.47 2094.78 856.44"/><path class="cls-7" d="M2019.29,783.14l-36.5-31.59,2,22.25-32.42,1.59-21-39.95q-14,29.63-28,59.25L1880.42,784l-9.94-30.13-21.34,26.52-28,1.37,97.66-163.62L2033.13,773Z"/><path class="cls-6" d="M2018.68,750.15l-38.57-29.06,3.47,22.07-32.24,3.76-23.66-38.44L1911,751.64l-.26,0-6.91,17.81-23.6-9.09.18-46.77-31.63,45.27-28.27,3.3,37.1-73,8.93-17.56,44.77-88.07,57.43,67.63,18,21.26L2029,722.22l0,0,9.5,11.19Z"/><path class="cls-7" d="M1968.69,651.23l9.81-1.15-13-25a8.61,8.61,0,0,1-4.75-.16c-7.63-2.36-11.47-8.13-15-14.84-2.72-5.1-5.93-9.87-9.13-14.66a9.82,9.82,0,0,1-6-2.14c-8.64-7-14.94-16-22.93-23.58-5.13-4.86-11.11-7.81-17.26-10.62l-14.48,57.67-23,48.49,13.55,6.38-8.93,17.56,16.88,7.94,24.09-33.51,12.07,16.86,32.55-17.3L1970,674.44l16.77-2Z"/><path class="cls-6" d="M1982.1,643.72l-19.68,4.21-27.77-8.63-16.58-18.95-6.17,39.45q-8-8.47-15.92-17l-26.48,36.78-5.46-2-14.1-5.07-11.58-4.14,24.9-69L1877,509.11a8.57,8.57,0,0,1,15.65-3.36Z"/><polygon class="cls-8" points="1492.08 845.02 1957.63 845.02 1883.91 742.86 1872.32 726.79 1862.35 712.96 1729.4 528.6 1724.83 522.25 1661.56 610.01 1578.79 724.82 1575.29 729.66 1559.01 752.24 1492.08 845.02"/><polygon class="cls-7" points="1561.84 729.66 1624.7 729.66 1651.26 675.38 1703.02 729.66 1729.34 729.66 1773.35 694.91 1774.1 703.62 1773.92 704.19 1777.01 740.18 1813.66 753.66 1826.73 711.14 1828.45 705.65 1862.35 712.96 1729.4 528.6 1661.56 610.01 1582.45 704.94 1561.84 729.66"/><polygon class="cls-8" points="1908.05 668.5 1843.4 580.99 1723.5 418.65 1621.1 590.22 1560.33 692.04 1627.17 688.78 1651.27 638.11 1705.4 684.96 1731.7 683.68 1774.11 649.92 1775.24 657.81 1775.09 658.35 1779.78 690.94 1816.99 701.41 1828.14 662.09 1829.61 657 1908.05 668.5"/><path class="cls-7" d="M1828.9,591.64l-38.29-33.12,2.06,23.33-34,1.66-22-41.89-29.34,62.13-24-11.18q-5.22-15.8-10.43-31.59l-22.37,27.81-29.38,1.43,102.4-171.56L1843.4,581Z"/><path class="cls-8" d="M1828.25,557.05l-40.44-30.47,3.64,23.14-33.81,3.94-24.81-40.31-17.54,45.26-.28,0-7.24,18.68L1683,567.79l.19-49-33.17,47.47-29.64,3.46,38.89-76.51,9.37-18.41,46.95-92.35,60.21,70.92,18.93,22.29L1839,527.76l0,0,10,11.73Z"/><path class="cls-7" d="M1775.83,453.33l10.29-1.21L1772.5,426a9,9,0,0,1-5-.17c-8-2.47-12-8.52-15.78-15.56-2.86-5.35-6.22-10.35-9.58-15.37a10.3,10.3,0,0,1-6.31-2.25c-9-7.3-15.66-16.76-24-24.72-5.38-5.1-11.65-8.19-18.1-11.14l-15.18,60.48-24.07,50.83,14.21,6.7-9.37,18.41L1677,501.5l25.26-35.14L1714.92,484l34.13-18.15,28.13,11.78,17.58-2.05Z"/><path class="cls-8" d="M1789.89,445.45l-20.63,4.42-29.12-9.05-17.38-19.88-6.47,41.37q-8.36-8.88-16.7-17.78l-27.76,38.56-5.73-2-14.78-5.31-12.15-4.35,26.12-72.33,14.34-94.76a9,9,0,0,1,16.42-3.51Z"/><polygon class="cls-9" points="1774.99 875.59 1289.73 875.59 1359.49 799.38 1380.1 776.86 1532.35 610.49 1686.09 778.48 1698.17 791.68 1774.99 875.59"/><polygon class="cls-10" points="1698.17 791.68 1626.1 777.51 1624.38 782.51 1611.31 821.25 1574.66 808.98 1571.57 776.19 1571.75 775.66 1571 767.74 1526.99 799.38 1500.67 799.38 1448.91 749.95 1422.35 799.38 1359.49 799.38 1380.1 776.86 1532.35 610.49 1686.09 778.48 1698.17 791.68"/><polygon class="cls-9" points="1705.69 756.75 1641.04 669.24 1521.14 506.9 1418.74 678.47 1357.97 780.28 1424.81 777.02 1448.91 726.36 1503.04 773.21 1529.35 771.92 1571.75 738.17 1572.88 746.05 1572.73 746.6 1577.42 779.18 1614.63 789.66 1625.79 750.33 1627.25 745.25 1705.69 756.75"/><path class="cls-10" d="M1626.54,679.89l-38.28-33.13,2,23.34-34,1.66-22-41.89Q1519.62,660.94,1505,692l-24-11.18q-5.22-15.8-10.43-31.59L1448.12,677l-29.38,1.43,102.4-171.57L1641,669.24Z"/><path class="cls-9" d="M1625.89,645.3l-40.44-30.48,3.64,23.15-33.81,3.94-24.81-40.31-17.54,45.25-.28,0-7.24,18.68L1480.67,656l.19-49-33.17,47.47-29.64,3.46,38.89-76.51,9.37-18.41,47-92.34,60.21,70.91,18.93,22.29L1636.67,616l0,0,10,11.73Z"/><path class="cls-10" d="M1573.47,541.57l10.3-1.2-21.24-40.79a9.61,9.61,0,0,1-11-1.78c-6.19-6-9.31-13.25-12.56-21.05-3.65-8.73-7.74-14.43-15.55-19.89-8.94-6.23-23.47-15.66-28.18-27.3l-19.06,75.91-24.07,50.84,14.21,6.69-9.37,18.41,17.71,8.33,25.26-35.14q6.33,8.85,12.65,17.69l34.13-18.15,28.13,11.77,17.58-2Z"/><path class="cls-9" d="M1587.54,533.69l-20.63,4.43-29.13-9.06-17.38-19.87-6.47,41.37q-8.36-8.89-16.7-17.78l-27.76,38.56-5.72-2L1449,564l-12.15-4.34,26.12-72.33,14.35-94.76a9,9,0,0,1,16.41-3.52Z"/></g></svg>