<svg xmlns="http://www.w3.org/2000/svg" viewBox="0 0 337.96 581.14"><defs><style>.cls-1{fill:#6f4c45;}.cls-2{fill:#3b3b41;}.cls-3{fill:#54545e;}.cls-4{fill:#edc544;}.cls-5{fill:#d19943;}.cls-6{fill:#f1dda5;}.cls-7{fill:#543c40;}.cls-8{fill:#85674d;}.cls-9{fill:#eec27e;}.cls-10{fill:#593c44;}</style></defs><g id="Capa_2" data-name="Capa 2"><g id="Capa_1-2" data-name="Capa 1"><path class="cls-1" d="M319.7,34.25V566.39H243.48V11.74A11.49,11.49,0,0,1,255,.25H285.7a34,34,0,0,1,34,34Z"/><path class="cls-1" d="M275.89,11.51V57.68A11.49,11.49,0,0,1,264.4,69.17H137.14V0H264.4a11.48,11.48,0,0,1,11.36,9.79A10.63,10.63,0,0,1,275.89,11.51Z"/><path class="cls-2" d="M115.45,9.91H83.07V0H105A10.54,10.54,0,0,1,115.45,9.91Z"/><path class="cls-2" d="M151.52,10.52V58.9A10.52,10.52,0,0,1,141,69.39H93.56A10.52,10.52,0,0,1,83.07,58.9V10.52c0-.2,0-.41,0-.61A10.52,10.52,0,0,1,93.56,0H105a10.54,10.54,0,0,1,10.48,9.89H151.5C151.52,10.11,151.52,10.32,151.52,10.52Z"/><path class="cls-1" d="M115.47,10.52V58.9A10.52,10.52,0,0,1,105,69.39H10.5A10.52,10.52,0,0,1,0,58.9V10.52A10.53,10.53,0,0,1,10.5,0H105a10.54,10.54,0,0,1,10.48,9.89C115.46,10.11,115.47,10.32,115.47,10.52Z"/><rect class="cls-2" x="125.38" y="64.53" width="8.75" height="13.73"/><rect class="cls-2" x="125.38" y="103.47" width="8.75" height="13.73"/><path class="cls-3" d="M129.75,110.7a15.52,15.52,0,0,1-15.5-15.5V89.38a15.5,15.5,0,0,1,31,0V95.2A15.51,15.51,0,0,1,129.75,110.7Zm0-28.07A6.76,6.76,0,0,0,123,89.38V95.2a6.76,6.76,0,0,0,6.75,6.75h0a6.75,6.75,0,0,0,6.75-6.75V89.38A6.75,6.75,0,0,0,129.75,82.63Z"/><path class="cls-3" d="M127.08,323.66l2.67,2.67,2.67-2.67a39.64,39.64,0,0,0,0-56,3.77,3.77,0,0,0-5.34,0,39.61,39.61,0,0,0,0,56Z"/><polygon class="cls-4" points="167.14 282.76 92.36 282.76 65.82 176.99 193.69 176.99 167.14 282.76"/><path class="cls-2" d="M170.67,287.28H88.84L60,172.47H199.48Zm-74.78-9h67.72l24.28-96.73H71.61Z"/><polygon class="cls-5" points="158.24 277.97 101.26 277.97 81.03 187.15 178.47 187.15 158.24 277.97"/><path class="cls-2" d="M118.38,313.22h23.38a7.35,7.35,0,0,0,5.21-2.08l22.62-22.67H89.91l23.32,22.74A7.41,7.41,0,0,0,118.38,313.22Z"/><circle class="cls-3" cx="129.75" cy="135.23" r="19.95"/><path class="cls-2" d="M148.61,126.9H109.85a11.52,11.52,0,0,0-8.64,3.9L63.69,173.23H195.82l-38.67-42.55A11.54,11.54,0,0,0,148.61,126.9Z"/><path class="cls-3" d="M128,133.41l-17.14-.1a5.2,5.2,0,0,0-3.88,1.66L81.68,162.56a3.17,3.17,0,0,0,2.56,5.26l47.32-.22a4.91,4.91,0,0,0,5-5.48L133,137.56A5,5,0,0,0,128,133.41Z"/><rect class="cls-2" x="75.38" y="167.52" width="98.38" height="4.96"/><circle class="cls-4" cx="129.75" cy="229.89" r="40.67"/><circle class="cls-6" cx="129.75" cy="229.89" r="28.31"/><rect class="cls-2" x="124.96" y="186.58" width="9.58" height="91.74"/><path class="cls-3" d="M54.85,172.54h149.8a1.6,1.6,0,0,1,1.6,1.6v0A14.83,14.83,0,0,1,191.43,189H68.08a14.83,14.83,0,0,1-14.83-14.83v0A1.6,1.6,0,0,1,54.85,172.54Z"/><path class="cls-3" d="M82.67,275.46h94.17a3.5,3.5,0,0,1,3.5,3.5v0a12.93,12.93,0,0,1-12.93,12.93H92.1A12.93,12.93,0,0,1,79.17,279v0A3.5,3.5,0,0,1,82.67,275.46Z"/><path class="cls-3" d="M145.42,44.77A9.9,9.9,0,0,1,140.9,46h-.25a10.06,10.06,0,0,1,0-20.11h.26l4.48,1.21L178,36Z"/><path class="cls-7" d="M10.41,301.94H508.62a0,0,0,0,1,0,0v14.67A17.39,17.39,0,0,1,491.23,334H10.41a0,0,0,0,1,0,0V301.94A0,0,0,0,1,10.41,301.94Z" transform="translate(-58.45 577.48) rotate(-90)"/><path class="cls-8" d="M264,0H32.45A3.51,3.51,0,0,0,29,3.5V6.31a3.51,3.51,0,0,0,3.5,3.5H137.14V0H264Z"/><path class="cls-8" d="M309.34,9.81H275.76A11.48,11.48,0,0,0,266.68.25h19A33.88,33.88,0,0,1,309.34,9.81Z"/><path class="cls-8" d="M275.76,9.81H137.14V0H264.4A11.48,11.48,0,0,1,275.76,9.81Z"/><path class="cls-3" d="M151.5,9.91h-36A10.54,10.54,0,0,0,105,0H141A10.52,10.52,0,0,1,151.5,9.91Z"/><rect class="cls-9" y="0.02" width="47.01" height="69.37" rx="10.71"/><path class="cls-10" d="M335.6,535.7c-9.55,7.3-20.57,15.78-25.35,27.08a112.42,112.42,0,0,1,4.45-29.19c2.14-6.28,4.09-12.47,6.77-18.66a70.56,70.56,0,0,1,12.08-17.83,1.51,1.51,0,0,0-1.63-2.42,64.51,64.51,0,0,0-28.9,22c-7,11.37-9.87,25.43-9,39.05l-.13,0c0-.33-.05-.66-.08-1-.51-7-3.58-13.93-7.2-20s-6.76-12.62-11.65-17.91a74.9,74.9,0,0,0-15.8-13.46,1.53,1.53,0,0,0-2.19,1.92,180,180,0,0,1,9.77,26.63c1.85,5.7,1.72,11.84,1.87,17.75a70.27,70.27,0,0,0,1.69,10.92,9.73,9.73,0,0,0,0,1.08A6.65,6.65,0,0,0,270,561a68.39,68.39,0,0,0-3.87-9,53.39,53.39,0,0,0-16.57-18.94,50,50,0,0,0-14.83-7.54.58.58,0,0,0-.52.1.57.57,0,0,0-.07.79c3.46,4.26,6.74,8.28,9.71,12.43A247.56,247.56,0,0,1,259.11,564l0,0,0-.06c-7.07-7.49-18-9.94-27.6-12.22a1.5,1.5,0,0,0-1.12,2.7,42.55,42.55,0,0,1,10.1,9.28c4.57,5.8,8.1,11.7,14.61,15.61a5.6,5.6,0,0,0,3,1v.11c10.4.58,21.51.82,33.25.57,7.72-.17,15.14-.54,22.24-1.07v-.05a5.51,5.51,0,0,0,4.78-2.3c5.68-7.58,8-16.25,11.28-24.9a63.73,63.73,0,0,1,8.09-15A1.48,1.48,0,0,0,335.6,535.7Z"/></g></g></svg>