<svg xmlns="http://www.w3.org/2000/svg" viewBox="0 0 483.14 644.38"><defs><style>.cls-1{fill:#49373e;}.cls-2{fill:#4d2ac6;}.cls-3{fill:#6027f9;}.cls-4{fill:#cd9691;}.cls-5{fill:#dbb8b4;}.cls-6{fill:#2a1e51;}.cls-7{fill:#f0d332;}.cls-8{fill:#f9ed4d;}.cls-9{fill:#b4b4b4;}.cls-10{fill:#ccc;}.cls-11{fill:#312b2a;}.cls-12{fill:#f1cd30;}</style></defs><g id="Capa_2" data-name="Capa 2"><g id="Capa_1-2" data-name="Capa 1"><ellipse class="cls-1" cx="214.11" cy="569.7" rx="214.11" ry="74.68"/><path class="cls-2" d="M405.7,377.46v.05h-.09L397.75,376l-26.14-4.94-32.86-6.21-43-8.12c-12.6-2.38-21.3-13.83-21.48-26v-.37c0-12,8.3-23.49,20.7-26.21l25.64-5.63,11-2.42L342,293.86l3.6-.79,51.47-11.3h0l6.36-1.4.84-.18v.4l.21,14.53.92,62.47Z"/><ellipse class="cls-3" cx="402.46" cy="329.07" rx="19.06" ry="48.87" transform="translate(-4.82 5.98) rotate(-0.85)"/><ellipse class="cls-4" cx="440.41" cy="304.58" rx="23.46" ry="9.81" transform="translate(-67.67 473.64) rotate(-53.07)"/><path class="cls-5" d="M443.52,303.54h26.77A12.71,12.71,0,0,1,483,316.25v18.8a12.71,12.71,0,0,1-12.71,12.71H443.52a22.12,22.12,0,0,1-22.12-22.12v0a22.12,22.12,0,0,1,22.12-22.12Z" transform="translate(-4.76 6.71) rotate(-0.85)"/><ellipse class="cls-6" cx="405.1" cy="326.35" rx="12.18" ry="31.24" transform="translate(-4.77 6.02) rotate(-0.85)"/><path class="cls-2" d="M368.93,542.13c-10-46.57-26.13-93-48.36-141.45Q306.49,370,289.11,338.09c-3-5.61-9.07-9.94-17.22-13.22a109,109,0,0,0-20.8-36.44h0c-23-26.46-60.4-26.46-83.45,0h0a108.94,108.94,0,0,0-20.79,36.44c-8.15,3.28-14.24,7.61-17.23,13.22-39,71.74-65.61,137.79-79.82,204-1.39,6.58,2.66,16.66,8.06,19.8a310.83,310.83,0,0,0,64.83,28.35c79,24.17,163.81,14.72,238.18-28.35C366.27,558.79,370.32,548.71,368.93,542.13Z"/><path class="cls-2" d="M372,542.13c-10-46.57-26.13-93-48.36-141.45Q309.57,370,292.2,338.09c-3-5.61-9.07-9.94-17.22-13.22a108.86,108.86,0,0,0-20.8-36.44c-11.52-13.23-26.62-19.84-41.73-19.84s-30.2,6.61-41.71,19.84a105.63,105.63,0,0,0-12.21,17.27,112,112,0,0,0-8.59,19.17c-8.16,3.28-14.24,7.61-17.23,13.22-38.95,71.74-65.61,137.79-79.81,204-1.4,6.58,2.66,16.66,8.06,19.8a310.76,310.76,0,0,0,64.82,28.35,299.24,299.24,0,0,0,43.29,9.81,293.17,293.17,0,0,0,42.63,3.22c52.19.13,104.39-13.66,152.26-41.38,4.09-2.38,7.41-8.74,8.17-14.54A15.58,15.58,0,0,0,372,542.13ZM136.46,504a23.32,23.32,0,0,1,21.77-21.71,26.26,26.26,0,0,1,2.66,0q-9.21,20.42-16.87,40.4A23.16,23.16,0,0,1,136.46,504Z"/><path class="cls-3" d="M372.13,547.39c-.78,5.8-4.14,12.16-8.28,14.54-47.85,27.35-100,41.14-152.15,41.38a301.87,301.87,0,0,1-36.9-2.1,38.7,38.7,0,0,1-5.73-1.12c-24.94-6.85-39.5-37.72-29.46-65.56,1.43-3.94,2.89-7.87,4.41-11.82q7.64-20,16.87-40.4,3.95-8.71,8.18-17.52c3.78-7.87,13.18-9.43,18.78-3.09l13.61,15.43a11.54,11.54,0,0,0,17.75,0l33.4-37.85a106.44,106.44,0,0,0,14.42-21c7.89-15,22.75-23.5,38.07-21.31,4.57.65,8.93,1.46,13,2.42l.05,0a10.61,10.61,0,0,1,7.06,6.06c21.39,46.69,37,91.63,46.8,136.66A15.58,15.58,0,0,1,372.13,547.39Z"/><path class="cls-2" d="M161.87,347.64c-7.48-5.62-18.55-9.17-30.91-9.17-12.17,0-23.08,3.44-30.54,8.9L115.3,325c8.68-13,23-15.57,33.44-7.78C156.8,323.28,161.94,335.05,161.87,347.64Z"/><path class="cls-3" d="M161.87,347.64a44.73,44.73,0,0,1-1.45,11.12l-7.37,28.18-26,99.29v0l-.21.81a2.38,2.38,0,0,0-.37-.06,3.57,3.57,0,0,0-.66,0,2.84,2.84,0,0,0-2.08-.22c-8.36,2.26-15.34-1-22.46-6.33-1.94-1.47-3.91-2.91-5.87-4.34-5.13-3.73-10.3-7.4-15.28-11.43-3.46-2.8-6.81-5.79-10.14-8.83l0,0c-3.09-2.82-6.15-5.67-9.25-8.45S55,442,52.13,439L52,438.9a13.51,13.51,0,0,0-1.21-5.13,4.93,4.93,0,0,0-2.33-2.41A6.11,6.11,0,0,0,47,427.61l0,0,.21-.31.12-.2,14.64-22,11.69-17.55,16.71-25.09,10-15.08c7.46-5.46,18.37-8.9,30.54-8.9C143.32,338.47,154.39,342,161.87,347.64Z"/><ellipse class="cls-2" cx="86.85" cy="457.53" rx="13.5" ry="49.89" transform="translate(-327.81 245.55) rotate(-52.17)"/><ellipse class="cls-6" cx="88.25" cy="460.95" rx="8.63" ry="31.9" transform="translate(-329.97 247.97) rotate(-52.17)"/><ellipse class="cls-4" cx="85.55" cy="478.11" rx="9.81" ry="23.46" transform="translate(-186.53 75.76) rotate(-23.92)"/><path class="cls-5" d="M52.48,466.38h38A8.62,8.62,0,0,1,99.1,475v0a21.36,21.36,0,0,1-21.36,21.36H52.48a15,15,0,0,1-15-15v0a15,15,0,0,1,15-15Z" transform="translate(553.48 512.6) rotate(101.76)"/><path class="cls-7" d="M142.37,349.75l4.27,8.64,9.53,1.39a3,3,0,0,1,1.66,5.1l-6.9,6.73,1.63,9.5a3,3,0,0,1-4.34,3.15l-8.53-4.48-8.53,4.48a3,3,0,0,1-4.34-3.15l1.63-9.5-6.9-6.73a3,3,0,0,1,1.65-5.1l9.54-1.39,4.27-8.64A3,3,0,0,1,142.37,349.75Z"/><path class="cls-8" d="M93.37,403.55,85,408.22,84,417.81a3,3,0,0,1-5,1.91L72,413.15l-9.41,2.09a3,3,0,0,1-3.35-4.18l2.77-6,11.69-17.55,3.59-4.06a3,3,0,0,1,5.18,1.41l1.85,9.45,8.84,3.84A3,3,0,0,1,93.37,403.55Z"/><path class="cls-7" d="M379.77,357.5l-5.19,8.11,2.66,6.31-32.86-6.2a3,3,0,0,1,.51-5.32l9-3.51,2.18-9.39a3,3,0,0,1,5.22-1.22l6.12,7.45,9.6-.82A3,3,0,0,1,379.77,357.5Z"/><path class="cls-5" d="M105.74,145.49h30.63a184,184,0,0,1,184,184v30.63a1.24,1.24,0,0,1-1.24,1.24H288.54a184,184,0,0,1-184-184V146.73A1.24,1.24,0,0,1,105.74,145.49Z" transform="translate(183.47 582.89) rotate(-135)"/><path class="cls-9" d="M193,244.61h0A106.66,106.66,0,0,1,299.67,351.27V419a0,0,0,0,1,0,0H231.91A106.66,106.66,0,0,1,125.25,312.37v0A67.76,67.76,0,0,1,193,244.61Z" transform="translate(296.86 -53.04) rotate(45)"/><path class="cls-10" d="M212.46,455.61,181.14,424.3a69.72,69.72,0,0,1,0-98.59h0a44.29,44.29,0,0,1,62.63,0h0a69.72,69.72,0,0,1,0,98.59Z"/><path class="cls-4" d="M172.75,257.67h76.32a8.79,8.79,0,0,1,8.79,8.79v0a40,40,0,0,1-40,40H204a40,40,0,0,1-40-40v0A8.79,8.79,0,0,1,172.75,257.67Z"/><path class="cls-11" d="M180,264.71h61.91a0,0,0,0,1,0,0v0a31,31,0,0,1-31,31h0a31,31,0,0,1-31-31v0A0,0,0,0,1,180,264.71Z"/><path class="cls-4" d="M257.87,237.39s16.54.51,29-12C288.5,239.61,288.5,255,288.5,255L282,264.71l-22.37-15.66Z"/><path class="cls-4" d="M167.23,237.39s-16.54.51-29-12c-1.62,14.19-1.62,29.61-1.62,29.61l6.49,9.68,22.37-15.66Z"/><path class="cls-9" d="M222.4,277.58h97.21A13.45,13.45,0,0,1,333.05,291v7.69a5.75,5.75,0,0,1-5.75,5.75H242.38A23.44,23.44,0,0,1,218.94,281v0a3.46,3.46,0,0,1,3.46-3.46Z" transform="translate(567.03 15.03) rotate(90)"/><path class="cls-10" d="M213.56,247.67c3.94,8.57,11.81,15.7,20.72,21.42,8.73,5.27,17.45,10.26,25.65,15.94a230.43,230.43,0,0,1,27.41,22c2.28,2.14,4.7,4.43,6.9,6.62,3.67,3.62,7.26,7.4,11.14,11.28,1.57,1.67,5.2.92,5.4-1.13,1.15-9.95-.46-20.05-3.82-29.69-5-14.67-15.15-28.74-27.89-40.58-8.42-7.74-17.16-15.31-29.29-19.74a59,59,0,0,0-20.25-3.93c-11.85.07-20.17,9.48-16,17.85Z"/><path class="cls-9" d="M110.72,281.68h93.12a5.75,5.75,0,0,1,5.75,5.75v7.69a13.45,13.45,0,0,1-13.45,13.45H90.74a3.46,3.46,0,0,1-3.46-3.46v0a23.44,23.44,0,0,1,23.44-23.44Z" transform="translate(443.57 146.69) rotate(90)"/><path class="cls-10" d="M208.26,247.67c-3.94,8.57-11.81,15.7-20.72,21.42-8.73,5.27-17.44,10.26-25.65,15.94a231.24,231.24,0,0,0-27.41,22c-2.28,2.14-4.7,4.43-6.89,6.62-3.68,3.62-7.27,7.4-11.14,11.28-1.57,1.67-5.21.92-5.41-1.13-1.15-9.95.46-20.05,3.82-29.69,5-14.67,15.16-28.74,27.9-40.58,8.41-7.74,17.15-15.31,29.28-19.74a59,59,0,0,1,20.25-3.93c11.86.07,20.17,9.48,16,17.85Z"/><path class="cls-10" d="M224.52,243.59l-12.06,2-12.06-2-41.66,21.17,2,21.07s24.55-11.47,51.74-13.23c27.18,1.76,51.74,13.23,51.74,13.23l2-21.07Z"/><path class="cls-4" d="M219.94,264.71H205A30.83,30.83,0,0,1,174.23,234h0A30.83,30.83,0,0,1,205,203.24h15A30.83,30.83,0,0,1,250.68,234h0A30.82,30.82,0,0,1,219.94,264.71Z"/><path class="cls-4" d="M194.35,173.22s7.07,25.63-39.2,26.14H144l4.45-12.77,19.86-11.3Z"/><path class="cls-4" d="M230.85,173.12s-7.07,25.63,39.2,26.14h11.16l-4.45-12.78L256.9,175.19Z"/><ellipse class="cls-11" cx="168.3" cy="198.63" rx="9.9" ry="14.51"/><ellipse class="cls-11" cx="257.93" cy="198.53" rx="9.9" ry="14.51"/><path class="cls-4" d="M157.29,168.8s59.8-17.93,109.23,0l.64-3.33-9.86-15.62-32.91-20.24-58.27,22.8-8.83,14.89Z"/><path class="cls-10" d="M152.67,163h36.12a5.75,5.75,0,0,1,5.75,5.75v7.69a13.45,13.45,0,0,1-13.45,13.45H132.69a3.46,3.46,0,0,1-3.46-3.46v0A23.44,23.44,0,0,1,152.67,163Z" transform="translate(-21.82 22.85) rotate(-7.56)"/><path class="cls-10" d="M234.44,163h48.41a13.45,13.45,0,0,1,13.45,13.45v7.69a5.75,5.75,0,0,1-5.75,5.75H254.42A23.44,23.44,0,0,1,231,166.48v0a3.46,3.46,0,0,1,3.46-3.46Z" transform="translate(501.75 386.11) rotate(-172.44)"/><path class="cls-2" d="M260.66,153.67H164.25c-4.84,0-.37-25.36,7.06-47.73L186,61.7l9.06-27.27,9.41-28.31a.5.5,0,0,1,.05-.13A8.26,8.26,0,0,1,220.4,6a1.12,1.12,0,0,0,0,.13l4.47,13.45,28.69,86.37a229.73,229.73,0,0,1,7.31,27.62C263.15,145.11,263.47,153.67,260.66,153.67Z"/><path class="cls-7" d="M208.13,44.71l-6.9,6.72,1.62,9.5a3,3,0,0,1-4.33,3.16L190,59.61l-4,2.09,9.06-27.27,1.87,3.79,9.54,1.39A3,3,0,0,1,208.13,44.71Z"/><path class="cls-3" d="M260.92,133.56a38.08,38.08,0,0,1-65.08-34.77l14-57.14a37.91,37.91,0,0,1,15.08-22.08l28.69,86.37A229.73,229.73,0,0,1,260.92,133.56Z"/><path class="cls-8" d="M233.15,99.25l4.26,8.64,9.54,1.38a3,3,0,0,1,1.65,5.11l-6.9,6.72,1.63,9.5a3,3,0,0,1-4.34,3.15l-8.53-4.48-8.53,4.48a3,3,0,0,1-4.34-3.15l1.63-9.5-6.9-6.72a3,3,0,0,1,1.66-5.11l9.53-1.38,4.27-8.64A3,3,0,0,1,233.15,99.25Z"/><path class="cls-12" d="M160.89,482.31q-9.21,20.42-16.87,40.4a23.24,23.24,0,0,1,14.21-40.39A26.26,26.26,0,0,1,160.89,482.31Z"/><path class="cls-8" d="M172.55,524.81a23.21,23.21,0,0,1-28.53-2.1q7.64-20,16.87-40.4a23.17,23.17,0,0,1,10.76,3.32,2,2,0,0,1-.91,3.67h-.17a17.19,17.19,0,0,0,1.58,34.31h0A.65.65,0,0,1,172.55,524.81Z"/><path class="cls-7" d="M355.29,325.87a23.22,23.22,0,0,1-36.1-20.78,22.57,22.57,0,0,1,1.39-6.52l11-2.42L342,293.86l3.6-.79a17.16,17.16,0,0,0,9.3,31.61h0A.65.65,0,0,1,355.29,325.87Z"/><path class="cls-8" d="M297.83,437.69l6.16,7.4,9.6-.88a3,3,0,0,1,2.8,4.58l-5.13,8.15,3.8,8.86a3,3,0,0,1-3.49,4.08l-9.34-2.37L295,473.86a3,3,0,0,1-5-2.05l-.64-9.62-8.28-4.92a3,3,0,0,1,.42-5.35l9-3.58,2.13-9.4A3,3,0,0,1,297.83,437.69Z"/><path class="cls-8" d="M253.88,543.54l1.53,9.52,8.7,4.13a3,3,0,0,1,.08,5.37L255.61,567l-1.24,9.56a3,3,0,0,1-5.08,1.73l-6.83-6.8L233,573.21a3,3,0,0,1-3.22-4.3l4.36-8.59-4.61-8.46a3,3,0,0,1,3.09-4.39l9.52,1.49,6.63-7A3,3,0,0,1,253.88,543.54Z"/></g></g></svg>